<?xml version="1.0" standalone="no"?>
<!DOCTYPE svg PUBLIC "-//W3C//DTD SVG 20010904//EN"
 "http://www.w3.org/TR/2001/REC-SVG-20010904/DTD/svg10.dtd">
<svg version="1.0" xmlns="http://www.w3.org/2000/svg"
 width="700.000000pt" height="700.000000pt" viewBox="0 0 700.000000 700.000000"
 preserveAspectRatio="xMidYMid meet">
<metadata>
Created by potrace 1.11, written by Peter Selinger 2001-2013
</metadata>
<g transform="translate(0.000000,700.000000) scale(0.100000,-0.100000)"
fill="#000000" stroke="none">
<path d="M4147 6215 c-1 -2 -58 -5 -127 -9 -69 -3 -136 -8 -150 -10 -14 -3
-47 -7 -73 -11 -263 -33 -593 -139 -856 -276 -735 -381 -1254 -1065 -1422
-1871 l-22 -108 -559 0 c-307 0 -559 1 -560 1 -10 6 -90 -46 -111 -70 -117
-140 -149 -444 -67 -652 28 -69 76 -135 119 -162 36 -22 37 -22 604 -23 312
-1 570 -4 573 -7 3 -3 15 -49 26 -104 96 -469 347 -945 684 -1302 76 -80 206
-201 270 -251 11 -8 40 -31 64 -50 227 -179 566 -352 862 -440 55 -17 111 -32
122 -34 12 -3 62 -14 112 -25 101 -22 213 -39 324 -48 153 -13 463 -6 590 13
124 19 222 38 307 60 54 14 105 27 113 29 8 2 53 17 100 33 852 293 1489 960
1745 1827 51 171 87 372 101 560 11 144 5 433 -10 512 -2 10 -7 46 -11 78 -38
311 -187 730 -365 1020 -44 72 -149 226 -160 235 -3 3 -16 19 -28 37 -121 173
-496 514 -679 618 -15 8 -50 30 -78 47 -99 61 -281 150 -405 198 -129 51 -360
117 -470 135 -19 3 -60 10 -90 15 -86 14 -139 20 -220 26 -86 6 -249 12 -253
9z m303 -178 c14 -3 52 -8 85 -12 163 -18 424 -85 600 -155 382 -152 758 -421
1010 -725 28 -33 52 -62 55 -65 33 -31 169 -234 222 -330 74 -135 85 -157 122
-245 21 -49 44 -103 51 -120 31 -73 100 -318 119 -425 2 -14 7 -41 10 -60 28
-155 38 -432 24 -630 -43 -572 -296 -1132 -703 -1559 -235 -246 -548 -461
-867 -595 -93 -39 -274 -102 -318 -111 -9 -2 -67 -14 -130 -28 -63 -14 -135
-28 -160 -31 -25 -3 -65 -8 -90 -11 -113 -14 -358 -20 -455 -10 -22 2 -69 6
-105 9 -36 3 -74 7 -85 10 -11 2 -42 7 -68 10 -63 10 -66 10 -172 35 -921 218
-1660 947 -1889 1867 -14 54 -30 126 -35 159 -6 33 -13 69 -15 80 -4 20 -15
126 -22 200 -5 56 -4 342 1 390 18 170 27 239 31 246 2 4 6 24 10 45 3 22 16
82 29 134 202 802 784 1461 1555 1763 102 40 281 95 365 112 133 28 228 43
313 51 37 4 68 7 70 9 5 4 417 -3 442 -8z"/>
<path d="M4060 5833 c-25 -2 -81 -8 -125 -14 -44 -5 -100 -12 -125 -16 -76 -9
-302 -70 -406 -109 -102 -38 -306 -133 -383 -179 -101 -61 -280 -189 -346
-250 -197 -180 -298 -297 -429 -495 -195 -295 -324 -658 -366 -1035 -9 -81 -7
-449 3 -495 3 -14 8 -47 11 -75 9 -77 24 -150 57 -273 136 -511 442 -958 874
-1278 88 -64 86 -63 195 -127 298 -176 609 -278 960 -315 83 -9 435 -8 475 1
11 3 47 8 80 11 168 19 431 95 630 182 176 77 419 232 565 359 78 68 239 235
299 310 224 280 394 639 465 987 26 125 30 154 42 288 54 607 -155 1250 -557
1714 -41 47 -191 198 -241 242 -167 149 -445 318 -658 402 -169 67 -412 131
-555 147 -33 4 -76 9 -95 11 -41 6 -304 11 -370 7z"/>
</g>
</svg>
