<?xml version="1.0" encoding="utf-8"?>
<!-- Generator: Adobe Illustrator 14.0.0, SVG Export Plug-In . SVG Version: 6.00 Build 43363)  -->
<!DOCTYPE svg PUBLIC "-//W3C//DTD SVG 1.1//EN" "http://www.w3.org/Graphics/SVG/1.1/DTD/svg11.dtd">
<svg version="1.1" xmlns="http://www.w3.org/2000/svg" xmlns:xlink="http://www.w3.org/1999/xlink" x="0px" y="0px" width="240px"
	 height="200px" viewBox="0 0 240 200" enable-background="new 0 0 240 200" xml:space="preserve">
<g id="backgroud">
	<rect fill="#07AA07" width="240" height="200"/>
</g>
<g id="l-theanine">
	<line fill="#FFFFFF" stroke="#FFFFFF" stroke-width="2" x1="33.1" y1="85.4" x2="58" y2="110.3"/>
	<line fill="#FFFFFF" stroke="#FFFFFF" stroke-width="2" x1="54.6" y1="106.8" x2="54.6" y2="122.5"/>
	<line fill="#FFFFFF" stroke="#FFFFFF" stroke-width="2" x1="62" y1="106.8" x2="62" y2="122.5"/>
	<line fill="#FFFFFF" stroke="#FFFFFF" stroke-width="2" x1="152.8" y1="106.8" x2="152.8" y2="122.5"/>
	<line fill="#FFFFFF" stroke="#FFFFFF" stroke-width="2" x1="160.3" y1="106.8" x2="160.3" y2="122.5"/>
	<line fill="#FFFFFF" stroke="#FFFFFF" stroke-width="2" x1="82.9" y1="85.4" x2="58" y2="110.3"/>
	<line fill="#FFFFFF" stroke="#FFFFFF" stroke-width="2" x1="81.9" y1="85.4" x2="106.8" y2="110.3"/>
	<line fill="#FFFFFF" stroke="#FFFFFF" stroke-width="2" x1="131.7" y1="85.4" x2="106.8" y2="110.3"/>
	<line fill="#FFFFFF" stroke="#FFFFFF" stroke-width="2" x1="131.7" y1="85.4" x2="156.6" y2="110.3"/>
	<line fill="#FFFFFF" stroke="#FFFFFF" stroke-width="2" x1="173.3" y1="93.6" x2="156.6" y2="110.3"/>
	<line fill="#FFFFFF" stroke="#FFFFFF" stroke-width="2" x1="189.7" y1="94.6" x2="205.4" y2="110.3"/>
	<line fill="#FFFFFF" stroke="#FFFFFF" stroke-width="2" x1="230.3" y1="85.4" x2="205.4" y2="110.3"/>
	<g>
		<path fill="#FFFFFF" d="M13,62v7.4h8.6V62h2.3v17.7h-2.3v-8.3H13v8.3h-2.3V62H13z"/>
		<path fill="#FFFFFF" d="M43,70.7c0,6.1-3.7,9.3-8.2,9.3c-4.7,0-8-3.7-8-9c0-5.6,3.5-9.3,8.2-9.3C39.9,61.7,43,65.4,43,70.7z
			 M29.2,71c0,3.8,2.1,7.2,5.7,7.2c3.6,0,5.7-3.3,5.7-7.4c0-3.6-1.8-7.2-5.7-7.2S29.2,67.1,29.2,71z"/>
	</g>
	<g>
		<path fill="#FFFFFF" d="M64.7,70.4V52.7h2.5l5.7,9c1.3,2.1,2.3,3.9,3.2,5.8l0.1,0c-0.2-2.4-0.3-4.5-0.3-7.3v-7.4H78v17.7h-2.3
			l-5.6-9c-1.2-2-2.4-4-3.3-5.9l-0.1,0c0.1,2.2,0.2,4.4,0.2,7.3v7.6H64.7z"/>
		<path fill="#FFFFFF" d="M84.3,52.7v7.4h8.6v-7.4h2.3v17.7h-2.3v-8.3h-8.6v8.3H82V52.7H84.3z"/>
		<path fill="#FFFFFF" d="M97.6,70.4v-0.5l0.7-0.7c1.6-1.5,2.4-2.4,2.4-3.3c0-0.6-0.3-1.2-1.2-1.2c-0.6,0-1.1,0.3-1.3,0.5l-0.3-0.6
			c0.4-0.4,1.1-0.6,1.8-0.6c1.4,0,1.9,0.9,1.9,1.8c0,1.2-0.8,2.1-2.2,3.4l-0.5,0.5v0h2.8v0.7H97.6z"/>
	</g>
	<g>
		<path fill="#FFFFFF" d="M66.3,138.9c0,6.1-3.7,9.3-8.2,9.3c-4.7,0-8-3.7-8-9c0-5.6,3.5-9.3,8.2-9.3
			C63.1,129.9,66.3,133.6,66.3,138.9z M52.5,139.1c0,3.8,2.1,7.2,5.7,7.2c3.6,0,5.7-3.3,5.7-7.4c0-3.6-1.8-7.2-5.7-7.2
			C54.4,131.7,52.5,135.3,52.5,139.1z"/>
	</g>
	<g>
		<path fill="#FFFFFF" d="M164.8,138.9c0,6.1-3.7,9.3-8.2,9.3c-4.7,0-8-3.7-8-9c0-5.6,3.5-9.3,8.2-9.3
			C161.6,129.9,164.8,133.6,164.8,138.9z M151,139.1c0,3.8,2.1,7.2,5.7,7.2s5.7-3.3,5.7-7.4c0-3.6-1.8-7.2-5.7-7.2
			C152.9,131.7,151,135.3,151,139.1z"/>
	</g>
	<g>
		<path fill="#FFFFFF" d="M177.2,64v7.4h8.6V64h2.3v17.7h-2.3v-8.3h-8.6v8.3h-2.3V64H177.2z"/>
		<path fill="#FFFFFF" d="M174.8,108V90.3h2.5l5.7,9c1.3,2.1,2.3,3.9,3.2,5.8l0.1,0c-0.2-2.4-0.3-4.5-0.3-7.3v-7.4h2.2V108h-2.3
			l-5.6-9c-1.2-2-2.4-4-3.3-5.9l-0.1,0c0.1,2.2,0.2,4.4,0.2,7.3v7.6H174.8z"/>
	</g>
	<polygon fill="#FFFFFF" points="82.4,85.9 77.6,73.6 86.8,73.6 	"/>
</g>
</svg>
