<?xml version="1.0" encoding="utf-8"?>
<!-- Generator: Adobe Illustrator 14.0.0, SVG Export Plug-In . SVG Version: 6.00 Build 43363)  -->
<!DOCTYPE svg PUBLIC "-//W3C//DTD SVG 1.1//EN" "http://www.w3.org/Graphics/SVG/1.1/DTD/svg11.dtd">
<svg version="1.1" xmlns="http://www.w3.org/2000/svg" xmlns:xlink="http://www.w3.org/1999/xlink" x="0px" y="0px" width="840px"
	 height="274px" viewBox="0 0 840 274" enable-background="new 0 0 840 274" xml:space="preserve">
<g id="guides">
	<rect x="-107" y="-132" fill="#FF00FF" width="3.3" height="0"/>
</g>
<g id="Layer_1">
	<line fill="none" stroke="#007A00" stroke-width="2.4355" x1="257.4" y1="109.1" x2="304" y2="155.7"/>
	<line fill="none" stroke="#007A00" stroke-width="2.4355" x1="297.7" y1="149.2" x2="297.7" y2="178.6"/>
	<line fill="none" stroke="#007A00" stroke-width="2.4355" x1="311.6" y1="149.2" x2="311.6" y2="178.6"/>
	<line fill="none" stroke="#007A00" stroke-width="2.4355" x1="481.5" y1="149.2" x2="481.5" y2="178.6"/>
	<line fill="none" stroke="#007A00" stroke-width="2.4355" x1="495.5" y1="149.2" x2="495.5" y2="178.6"/>
	<line fill="none" stroke="#007A00" stroke-width="2.4355" x1="350.6" y1="109.1" x2="304" y2="155.7"/>
	<line fill="none" stroke="#007A00" stroke-width="2.4355" x1="348.7" y1="109.1" x2="395.3" y2="155.7"/>
	<line fill="none" stroke="#007A00" stroke-width="2.4355" x1="441.9" y1="109.1" x2="395.3" y2="155.7"/>
	<line fill="none" stroke="#007A00" stroke-width="2.4355" x1="441.9" y1="109.1" x2="488.5" y2="155.7"/>
	<line fill="none" stroke="#007A00" stroke-width="2.4355" x1="519.8" y1="124.4" x2="488.5" y2="155.7"/>
	<line fill="none" stroke="#007A00" stroke-width="2.4355" x1="550.4" y1="126.3" x2="579.8" y2="155.7"/>
	<line fill="none" stroke="#007A00" stroke-width="2.4355" x1="626.4" y1="109.1" x2="579.8" y2="155.7"/>
	<g>
		<path fill="#007A00" d="M219.8,65.3v13.9h16.1V65.3h4.3v33.2h-4.3V82.9h-16.1v15.6h-4.3V65.3H219.8z"/>
		<path fill="#007A00" d="M275.9,81.6c0,11.4-6.9,17.5-15.4,17.5c-8.8,0-14.9-6.8-14.9-16.9c0-10.5,6.5-17.4,15.4-17.4
			C270.1,64.7,275.9,71.7,275.9,81.6z M250.1,82c0,7.1,3.8,13.5,10.6,13.5c6.8,0,10.6-6.3,10.6-13.8c0-6.6-3.4-13.5-10.6-13.5
			S250.1,74.8,250.1,82z"/>
	</g>
	<g>
		<path fill="#007A00" d="M316.6,81V47.8h4.7l10.6,16.8c2.4,3.9,4.4,7.4,5.9,10.8l0.1,0c-0.4-4.4-0.5-8.5-0.5-13.6V47.8h4V81h-4.3
			l-10.5-16.8c-2.3-3.7-4.5-7.5-6.2-11.1l-0.1,0c0.2,4.2,0.3,8.2,0.3,13.7V81H316.6z"/>
		<path fill="#007A00" d="M353.2,47.8v13.9h16.1V47.8h4.3V81h-4.3V65.4h-16.1V81h-4.3V47.8H353.2z"/>
		<path fill="#007A00" d="M378.1,81v-1l1.3-1.2c3-2.9,4.4-4.4,4.4-6.2c0-1.2-0.6-2.3-2.3-2.3c-1.1,0-2,0.5-2.5,1l-0.5-1.1
			c0.8-0.7,2-1.2,3.3-1.2c2.6,0,3.6,1.8,3.6,3.5c0,2.2-1.6,4-4.1,6.4l-0.9,0.9v0h5.3V81H378.1z"/>
	</g>
	<g>
		<path fill="#007A00" d="M319.5,209.1c0,11.4-6.9,17.5-15.4,17.5c-8.8,0-14.9-6.8-14.9-16.9c0-10.5,6.5-17.4,15.4-17.4
			C313.6,192.3,319.5,199.2,319.5,209.1z M293.7,209.6c0,7.1,3.8,13.5,10.6,13.5c6.8,0,10.6-6.3,10.6-13.8c0-6.6-3.4-13.5-10.6-13.5
			S293.7,202.4,293.7,209.6z"/>
	</g>
	<g>
		<path fill="#007A00" d="M503.8,209.1c0,11.4-6.9,17.5-15.4,17.5c-8.8,0-14.9-6.8-14.9-16.9c0-10.5,6.5-17.4,15.4-17.4
			C498,192.3,503.8,199.2,503.8,209.1z M478,209.6c0,7.1,3.8,13.5,10.6,13.5s10.6-6.3,10.6-13.8c0-6.6-3.4-13.5-10.6-13.5
			C481.6,195.8,478,202.4,478,209.6z"/>
	</g>
	<g>
		<path fill="#007A00" d="M527,69v13.9h16.1V69h4.3v33.2h-4.3V86.6H527v15.6h-4.3V69H527z"/>
		<path fill="#007A00" d="M522.6,151.4v-33.2h4.7l10.6,16.8c2.4,3.9,4.4,7.4,5.9,10.8l0.1,0c-0.4-4.4-0.5-8.5-0.5-13.6v-13.9h4v33.2
			h-4.3l-10.5-16.8c-2.3-3.7-4.5-7.5-6.2-11.1l-0.1,0c0.2,4.2,0.3,8.2,0.3,13.7v14.2H522.6z"/>
	</g>
	<polygon fill="#007A00" points="349.7,110 340.6,87 357.9,87 	"/>
</g>
</svg>
