<?xml version="1.0" encoding="utf-8"?>
<!-- Generator: Adobe Illustrator 14.0.0, SVG Export Plug-In . SVG Version: 6.00 Build 43363)  -->
<!DOCTYPE svg PUBLIC "-//W3C//DTD SVG 1.1//EN" "http://www.w3.org/Graphics/SVG/1.1/DTD/svg11.dtd">
<svg version="1.1" xmlns="http://www.w3.org/2000/svg" xmlns:xlink="http://www.w3.org/1999/xlink" x="0px" y="0px" width="41px"
	 height="41px" viewBox="0 0 41 41" enable-background="new 0 0 41 41" xml:space="preserve">
<g id="guide">
</g>
<g id="basket">
	<g>
		<path fill="#FFFFFF" d="M32.9,20.6c0,0.8-0.7,1.5-1.5,1.5H9.7c-0.8,0-1.5-0.7-1.5-1.5l0,0c0-0.8,0.7-1.5,1.5-1.5h21.7
			C32.2,19,32.9,19.7,32.9,20.6L32.9,20.6z"/>
		<path fill="#FFFFFF" d="M29.7,29.8c0,0.8-0.5,1.5-1.1,1.5H12.4c-0.6,0-1.1-0.7-1.1-1.5l0,0c0-0.8,0.5-1.5,1.1-1.5h16.2
			C29.2,28.3,29.7,28.9,29.7,29.8L29.7,29.8z"/>
		<polygon fill="#FFFFFF" points="9.7,21.5 11.3,29.8 29.7,30 31.2,21.5 		"/>
		<path fill="#FFFFFF" d="M23.8,12.1c0,0.5-0.4,0.9-0.9,0.9h-4.7c-0.5,0-0.9-0.4-0.9-0.9v-1.5c0-0.5,0.4-0.9,0.9-0.9h4.7
			c0.5,0,0.9,0.4,0.9,0.9V12.1z"/>
		<path fill="#FFFFFF" d="M11,18.2c0,0,1.6,0.4,1.6,0c0-0.8,0.4-1.8,0.5-2.6c0.1-0.6,0.3-1.1,0.4-1.7c0.1-0.5,0.3-1.1,0.7-1.5
			c0.5-0.5,1.3-0.5,2-0.5c0.6,0,1.3,0,1.9,0l-0.2-1.5L15,10.5c0,0-1.3-0.1-2.2,1.1c0,0-0.7,1.6-1.2,4.1L11,18.2z"/>
		<path fill="#FFFFFF" d="M30,18.2c0,0-1.6,0.4-1.6,0c0-0.8-0.4-1.8-0.5-2.6c-0.1-0.6-0.3-1.1-0.4-1.7c-0.1-0.5-0.3-1.1-0.7-1.5
			c-0.5-0.5-1.3-0.5-2-0.5c-0.6,0-1.3,0-1.9,0l0.2-1.5l3.1,0.1c0,0,1.3-0.1,2.2,1.1c0,0,0.7,1.6,1.2,4.1L30,18.2z"/>
		<path fill="#222222" d="M19.1,27.8c0,0.5-0.4,0.9-0.9,0.9h0c-0.5,0-0.9-0.4-0.9-0.9V23c0-0.5,0.4-0.9,0.9-0.9h0
			c0.5,0,0.9,0.4,0.9,0.9V27.8z"/>
		<path fill="#222222" d="M23.8,27.8c0,0.5-0.4,0.9-0.9,0.9h0c-0.5,0-0.9-0.4-0.9-0.9V23c0-0.5,0.4-0.9,0.9-0.9h0
			c0.5,0,0.9,0.4,0.9,0.9V27.8z"/>
		<path fill="#222222" d="M28.1,27.8c0,0.5-0.4,0.9-0.9,0.9h0c-0.5,0-0.9-0.4-0.9-0.9V23c0-0.5,0.4-0.9,0.9-0.9h0
			c0.5,0,0.9,0.4,0.9,0.9V27.8z"/>
		<path fill="#222222" d="M14.7,27.8c0,0.5-0.4,0.9-0.9,0.9h0c-0.5,0-0.9-0.4-0.9-0.9V23c0-0.5,0.4-0.9,0.9-0.9h0
			c0.5,0,0.9,0.4,0.9,0.9V27.8z"/>
	</g>
</g>
</svg>
