<?xml version="1.0" encoding="utf-8"?>
<!-- Generator: Adobe Illustrator 14.0.0, SVG Export Plug-In . SVG Version: 6.00 Build 43363)  -->
<!DOCTYPE svg PUBLIC "-//W3C//DTD SVG 1.1//EN" "http://www.w3.org/Graphics/SVG/1.1/DTD/svg11.dtd">
<svg version="1.1" xmlns="http://www.w3.org/2000/svg" xmlns:xlink="http://www.w3.org/1999/xlink" x="0px" y="0px" width="100px"
	 height="100px" viewBox="0 0 100 100" enable-background="new 0 0 100 100" xml:space="preserve">
<g id="Layer_1">
	<circle fill="#07AA07" cx="50" cy="50" r="50"/>
</g>
<g id="Layer_4">
	<path fill="#FFFFFF" d="M22.9,68.3c-0.1-1.7-0.1-3.4,0-5c0.8-11.1,7.2-20.5,14.8-28.3c5.8-5.9,15-15.3,10.8-24.5
		c0.4,1,2.3,1.9,3,2.6c2.8,2.3,5.3,4.8,7.7,7.5c6.8,7.9,13.4,17.3,16.6,27.2c3.7,11.5,4.8,25.2-3.9,34.7c-2.3,2.5-5.3,5.1-8.3,6.7
		c-3.3,1.8-7.4,2.8-11.1,3.1c-3.8,0.4-7.9-0.3-11.6-1.5c-8.1-2.5-14.7-9.7-17.1-17.8C23.3,71.5,23,69.9,22.9,68.3z"/>
	<path fill="#07AA07" d="M32.2,77.5c-0.1-1.1-0.1-2.2,0-3.3c0.6-7.3,4.8-13.6,9.8-18.7c3.8-3.9,9.9-10.1,7.1-16.2
		c0.3,0.6,1.5,1.3,2,1.7c1.8,1.5,3.5,3.2,5.1,5c4.5,5.2,8.9,11.4,11,18c2.4,7.6,3.1,16.6-2.6,22.9C63,88.5,61,90.2,59,91.3
		c-2.2,1.2-4.9,1.8-7.3,2.1c-2.5,0.3-5.2-0.2-7.6-1c-5.4-1.7-9.7-6.4-11.3-11.8C32.5,79.6,32.3,78.5,32.2,77.5z"/>
</g>
</svg>
