<?xml version="1.0" encoding="utf-8"?>
<!-- Generator: Adobe Illustrator 14.0.0, SVG Export Plug-In . SVG Version: 6.00 Build 43363)  -->
<!DOCTYPE svg PUBLIC "-//W3C//DTD SVG 1.1//EN" "http://www.w3.org/Graphics/SVG/1.1/DTD/svg11.dtd">
<svg version="1.1" id="Layer_1" xmlns="http://www.w3.org/2000/svg" xmlns:xlink="http://www.w3.org/1999/xlink" x="0px" y="0px"
	 width="87.5px" height="30px" viewBox="0 0 87.5 30" enable-background="new 0 0 87.5 30" xml:space="preserve">
<g>
	<path fill="#007AC9" d="M29.9,24.1c0,3.2-2.6,5.9-5.9,5.9H5.9C2.6,30,0,27.3,0,24.1V5.9C0,2.7,2.6,0,5.9,0h18.2
		c3.2,0,5.9,2.6,5.9,5.9V24.1z"/>
	<g>
		<path fill="#FFFFFF" d="M23.4,16.8c0.8-2.3,2-7.5,2.4-9.3c0.4-1.6,0.7-2.2-0.1-2.2c-0.6,0-2.2,0.2-2.5,1.4c-0.5,2.1-1.8,7-2.3,8.6
			c-0.5,1.7-1.6,2.1-3,2.1c-1.2,0-1.9-0.1-1.9-1c-0.4,0-1,0-1.2,0c-0.3,0-0.9,0-1.2,0c0,1-0.7,1-1.9,1c-0.9,0-2.2-0.2-2.7-1.8
			C8.8,14.5,8,11.6,7.5,10C7.1,8.5,5.7,8.4,5,8.4c-0.7,0-0.7,0.1-0.3,1.6c0.4,1.5,1.3,4.9,2,7.2c0.6,2.3,2.9,3,4.3,3
			c1.2,0,1.3,0,2.4,0c1.1,0,1.5-0.5,1.5-0.6c0.1,0.1,0.5,0.6,1.6,0.6c1.1,0,1.1,0,2.3,0C20.9,20.3,22.7,19.1,23.4,16.8z"/>
		<circle fill="#FFFFFF" cx="11.3" cy="9.8" r="1.1"/>
		<circle fill="#FFFFFF" cx="15" cy="9.8" r="1.1"/>
		<path fill="#FFFFFF" d="M18.8,10.9c0.6,0,1.1-0.5,1.1-1.1c0-0.6-0.5-1.1-1.1-1.1c-0.6,0-1.1,0.5-1.1,1.1
			C17.6,10.4,18.2,10.9,18.8,10.9z"/>
		<circle fill="#FFFFFF" cx="11.3" cy="13.9" r="1.1"/>
		<circle fill="#FFFFFF" cx="15" cy="13.9" r="1.1"/>
		<path fill="#FFFFFF" d="M18.8,15c0.6,0,1.1-0.5,1.1-1.1c0-0.6-0.5-1.1-1.1-1.1c-0.6,0-1.1,0.5-1.1,1.1C17.6,14.5,18.2,15,18.8,15z
			"/>
		<path fill="#FFFFFF" d="M6,20.9c-1.3,0-2.3,1-2.3,2.3c0,1.3,1,2.3,2.3,2.3s2.3-1,2.3-2.3C8.3,21.9,7.3,20.9,6,20.9z M6,24
			c-0.5,0-0.8-0.4-0.8-0.8c0-0.5,0.4-0.8,0.8-0.8s0.8,0.4,0.8,0.8C6.8,23.7,6.5,24,6,24z"/>
		<path fill="#FFFFFF" d="M24,20.9c-1.3,0-2.3,1-2.3,2.3c0,1.3,1,2.3,2.3,2.3s2.3-1,2.3-2.3C26.3,21.9,25.2,20.9,24,20.9z M24,24
			c-0.5,0-0.8-0.4-0.8-0.8c0-0.5,0.4-0.8,0.8-0.8c0.5,0,0.8,0.4,0.8,0.8C24.8,23.6,24.4,24,24,24z"/>
	</g>
</g>
<g>
	<path fill="#007AC9" d="M41.5,14.2c-0.6-0.6-1.3-0.9-2.1-0.9c-0.8,0-1.6,0.3-2.2,0.9c-0.6,0.6-0.9,1.3-0.9,2.2
		c0,0.9,0.3,1.6,0.9,2.2c0.6,0.6,1.5,0.9,2.3,0.9c0.6,0,1.1-0.1,1.6-0.4c0.5-0.3,0.8-0.6,1.1-1.1c0,0,0.1-0.2-0.2-0.2
		c-0.2,0-0.5,0-0.7,0.2c-0.5,0.6-1.2,0.7-1.7,0.7c-0.6,0-1.3-0.2-1.7-0.6c-0.4-0.4-0.6-0.9-0.7-1.4h4.9c0.2,0,0.3,0,0.4-0.1
		c0.1-0.1,0.1-0.3,0.1-0.4c0,0,0,0,0-0.1C42.4,15.4,42.1,14.7,41.5,14.2z M37.1,16.1c0.1-0.5,0.3-1.1,0.7-1.5c0.4-0.4,1-0.6,1.6-0.6
		c0.6,0,1.1,0.2,1.6,0.6c0.4,0.4,0.7,0.9,0.8,1.5L37.1,16.1z"/>
	<path fill="#007AC9" d="M67.9,13.3c-0.2,0-0.5,0.2-0.6,0.4l-1.6,4.9c0,0.1,0,0.1,0,0.2c0,0,0-0.1-0.1-0.2l-1.6-4.3
		c0-0.1-0.1-0.3-0.4-0.3c-0.2,0-0.4,0.1-0.4,0.3l-1.5,4.3c0,0.1,0,0.1-0.1,0.1c0,0,0-0.1-0.1-0.1l-1.6-4.9c-0.1-0.3-0.3-0.4-0.6-0.4
		c-0.3,0-0.2,0.2-0.2,0.2l1.8,5.3c0.1,0.5,0.4,0.6,0.7,0.6c0,0,0,0,0,0c0.3,0,0.5-0.2,0.7-0.6l1.3-3.7l1.3,3.7
		c0.2,0.4,0.4,0.6,0.7,0.6h0c0.2,0,0.5-0.1,0.6-0.6l1.7-5.3l0,0C68.1,13.4,68.2,13.3,67.9,13.3z"/>
	<path fill="#007AC9" d="M74.9,11.3c-0.3,0-0.5,0.2-0.5,0.5c0,0.3,0.2,0.5,0.5,0.5c0.3,0,0.5-0.2,0.5-0.5
		C75.5,11.5,75.3,11.3,74.9,11.3z"/>
	<path fill="#007AC9" d="M75.3,13.8c0-0.3-0.1-0.4-0.5-0.4c0,0-0.2,0-0.2,0.2c0,0.2,0,5.6,0,5.6c0,0.4,0.2,0.4,0.5,0.4
		c0,0,0.2,0,0.2-0.2C75.3,19.3,75.3,13.8,75.3,13.8L75.3,13.8L75.3,13.8L75.3,13.8z"/>
	<path fill="#007AC9" d="M87.3,10.2c-0.3,0-0.4,0-0.4,0.4l0,3.8c0-0.1-0.1-0.2-0.2-0.2c-0.6-0.6-1.3-0.9-2.1-0.9c0,0,0,0,0,0
		c0,0,0,0,0,0c0,0,0,0,0,0c-0.8,0-1.5,0.3-2.1,0.9c-0.6,0.6-0.9,1.4-0.9,2.2c0,0.9,0.3,1.6,0.9,2.2c0.6,0.6,1.3,0.9,2.1,0.9
		c0.8,0,1.6-0.3,2.2-0.9c0.1-0.1,0.2-0.2,0.2-0.3l0,0.9c0,0,0,0.2,0.1,0.2c0.3,0,0.4,0,0.5-0.3l0-8.7C87.5,10.4,87.5,10.2,87.3,10.2
		z M86.9,16.4c0,0.7-0.3,1.2-0.8,1.7c-0.5,0.5-1,0.8-1.7,0.8c-0.6,0-1.2-0.3-1.6-0.7c-0.4-0.5-0.7-1.1-0.7-1.8
		c0-0.7,0.2-1.2,0.7-1.7c0.4-0.4,0.9-0.7,1.6-0.7c0.7,0,1.4,0.3,1.8,0.8C86.7,15.2,86.9,15.9,86.9,16.4L86.9,16.4L86.9,16.4
		L86.9,16.4z"/>
	<path fill="#007AC9" d="M52.9,18c-0.5,0.6-1,0.8-1.8,0.8c-0.6,0-1.2-0.3-1.6-0.7c-0.4-0.5-0.7-1.1-0.7-1.7c0-0.7,0.3-1.2,0.8-1.7
		c0.4-0.4,0.8-0.6,1.2-0.6c0.1,0,0.2,0,0.3,0c0,0,0,0,0.1,0h0c0.1,0,0.1,0,0.2,0l0.1,0c0.2,0,0.4,0.1,0.6,0.1
		c0.4,0.2,0.6,0.3,0.9,0.6c0.1,0.1,0.2,0.2,0.5,0.2c0.1,0,0.2,0,0.4,0c0.3,0,0.1-0.2,0.1-0.2c-0.3-0.5-0.8-0.9-1.4-1.2
		c-0.2-0.1-0.4-0.2-0.7-0.2c0,0-0.1,0-0.1,0c-0.1,0-0.2,0-0.2,0c0,0,0,0-0.1,0c0,0-0.1,0-0.2,0c0,0,0,0,0,0c0,0-0.1,0-0.1,0
		c-0.2,0-0.3,0-0.4,0l0,0l0,0c-0.6,0.1-1.1,0.4-1.6,0.8c-0.6,0.6-0.9,1.3-1,2.2c0,0.9,0.3,1.6,0.8,2.3c0.6,0.6,1.3,1,2.2,1h0
		c0.6,0,1.1-0.1,1.6-0.4c0.5-0.3,0.9-0.7,1.2-1.1c0,0,0.2-0.2-0.1-0.2c-0.1,0-0.2,0-0.2,0C53.3,17.8,53,17.9,52.9,18z"/>
</g>
</svg>
