<?xml version="1.0" encoding="utf-8"?>
<!-- Generator: Adobe Illustrator 14.0.0, SVG Export Plug-In . SVG Version: 6.00 Build 43363)  -->
<!DOCTYPE svg PUBLIC "-//W3C//DTD SVG 1.1//EN" "http://www.w3.org/Graphics/SVG/1.1/DTD/svg11.dtd">
<svg version="1.1" id="Layer_1" xmlns="http://www.w3.org/2000/svg" xmlns:xlink="http://www.w3.org/1999/xlink" x="0px" y="0px"
	 width="176px" height="38px" viewBox="0 0 176 38" enable-background="new 0 0 176 38" xml:space="preserve">
<g>
	<path fill="#007AC9" d="M104.7,30.3c0,4-3.2,7.2-7.2,7.2H75c-4,0-7.2-3.2-7.2-7.2V7.7c0-4,3.2-7.2,7.2-7.2h22.5
		c4,0,7.2,3.2,7.2,7.2V30.3z"/>
	<g>
		<path fill="#FFFFFF" d="M96.7,21.3c1-2.9,2.4-9.2,3-11.5c0.5-2,0.8-2.7-0.1-2.7c-0.8,0-2.7,0.2-3.1,1.8c-0.7,2.6-2.2,8.7-2.8,10.6
			c-0.6,2.1-2,2.6-3.7,2.6c-1.5,0-2.3-0.1-2.3-1.2c-0.5,0-1.2,0-1.5,0c-0.3,0-1.1,0-1.5,0c0,1.2-0.8,1.2-2.3,1.2
			c-1.1,0-2.8-0.2-3.4-2.2c-0.4-1.4-1.5-5-2-7c-0.5-1.9-2.3-2-3.1-2c-0.9,0-0.8,0.1-0.3,2c0.5,1.9,1.7,6.1,2.5,8.9
			c0.8,2.8,3.6,3.7,5.3,3.7c1.5,0,1.6,0,3,0c1.3,0,1.8-0.6,1.9-0.8c0.1,0.2,0.6,0.8,1.9,0.8c1.4,0,1.4,0,2.9,0
			C93.5,25.5,95.8,24.1,96.7,21.3z"/>
		<circle fill="#FFFFFF" cx="81.7" cy="12.5" r="1.4"/>
		<circle fill="#FFFFFF" cx="86.3" cy="12.5" r="1.4"/>
		<path fill="#FFFFFF" d="M90.9,13.9c0.8,0,1.4-0.6,1.4-1.4c0-0.8-0.6-1.4-1.4-1.4c-0.8,0-1.4,0.6-1.4,1.4
			C89.5,13.3,90.2,13.9,90.9,13.9z"/>
		<circle fill="#FFFFFF" cx="81.7" cy="17.6" r="1.4"/>
		<circle fill="#FFFFFF" cx="86.3" cy="17.6" r="1.4"/>
		<path fill="#FFFFFF" d="M90.9,19c0.8,0,1.4-0.6,1.4-1.4c0-0.8-0.6-1.4-1.4-1.4c-0.8,0-1.4,0.6-1.4,1.4C89.5,18.4,90.2,19,90.9,19z
			"/>
		<path fill="#FFFFFF" d="M75.1,26.3c-1.6,0-2.8,1.3-2.8,2.8c0,1.6,1.3,2.8,2.8,2.8c1.6,0,2.8-1.3,2.8-2.8
			C78,27.6,76.7,26.3,75.1,26.3z M75.1,30.2c-0.6,0-1-0.5-1-1c0-0.6,0.5-1,1-1c0.6,0,1,0.5,1,1C76.2,29.7,75.7,30.2,75.1,30.2z"/>
		<path fill="#FFFFFF" d="M97.4,26.3c-1.6,0-2.8,1.3-2.8,2.8c0,1.6,1.3,2.8,2.8,2.8c1.6,0,2.8-1.3,2.8-2.8
			C100.2,27.6,98.9,26.3,97.4,26.3z M97.4,30.1c-0.6,0-1-0.5-1-1s0.5-1,1-1s1,0.5,1,1S97.9,30.1,97.4,30.1z"/>
	</g>
</g>
<g>
	<path fill="#007AC9" d="M119.1,18c-0.7-0.7-1.6-1.1-2.6-1.1c-1,0-2,0.4-2.7,1.1c-0.7,0.8-1.1,1.6-1.1,2.7c0,1.1,0.4,2,1.1,2.8
		c0.7,0.8,1.8,1.2,2.8,1.2c0.7,0,1.4-0.2,2-0.5c0.6-0.4,1-0.8,1.3-1.4c0,0,0.2-0.2-0.2-0.2c-0.3,0-0.7,0.1-0.9,0.3
		c-0.6,0.7-1.5,0.9-2.1,0.9c-0.8,0-1.6-0.3-2.1-0.8c-0.5-0.5-0.8-1.1-0.9-1.7h6c0.2,0,0.4,0,0.5-0.1c0.1-0.1,0.1-0.3,0.1-0.5
		c0,0,0-0.1,0-0.1C120.2,19.5,119.8,18.7,119.1,18z M113.6,20.3c0.1-0.7,0.4-1.3,0.9-1.8c0.5-0.5,1.2-0.8,2-0.8c0.7,0,1.4,0.3,2,0.8
		c0.5,0.5,0.9,1.1,1,1.8L113.6,20.3z"/>
	<path fill="#007AC9" d="M151.7,16.9c-0.3,0-0.6,0.2-0.7,0.5l-1.9,6c0,0.1,0,0.2-0.1,0.2c0,0,0-0.1-0.1-0.2l-2-5.4
		c-0.1-0.1-0.2-0.3-0.5-0.3c-0.3,0-0.4,0.2-0.5,0.4l-1.9,5.4c0,0.1-0.1,0.1-0.1,0.2c0,0,0-0.1-0.1-0.1l-2-6.1
		c-0.1-0.3-0.4-0.5-0.7-0.5c-0.4,0-0.3,0.2-0.3,0.2l2.2,6.6c0.2,0.6,0.5,0.8,0.8,0.8c0,0,0,0,0,0c0.4,0,0.6-0.2,0.9-0.7l1.6-4.5
		l1.6,4.5c0.2,0.5,0.5,0.7,0.9,0.7h0.1c0.3,0,0.6-0.1,0.8-0.8l2.1-6.6l0,0C152,17,152.1,16.9,151.7,16.9z"/>
	<path fill="#007AC9" d="M160.4,14.4c-0.4,0-0.7,0.3-0.7,0.7c0,0.4,0.3,0.7,0.7,0.7c0.4,0,0.7-0.3,0.7-0.7
		C161.1,14.7,160.8,14.4,160.4,14.4z"/>
	<path fill="#007AC9" d="M160.8,17.5c0-0.4-0.1-0.4-0.7-0.4c0,0-0.2,0-0.2,0.2c0,0.2,0,7,0,7c0,0.5,0.3,0.5,0.7,0.5
		c0,0,0.2,0,0.2-0.2C160.8,24.3,160.8,17.5,160.8,17.5L160.8,17.5L160.8,17.5L160.8,17.5z"/>
	<path fill="#007AC9" d="M175.7,13.1c-0.4,0-0.6,0-0.6,0.5l0,4.7c-0.1-0.1-0.2-0.2-0.2-0.3c-0.7-0.8-1.6-1.2-2.6-1.2c0,0,0,0,0,0
		c0,0,0,0-0.1,0c0,0,0,0,0,0c-1,0-1.9,0.4-2.6,1.2c-0.7,0.8-1.1,1.7-1.1,2.8c0,1.1,0.4,2,1.1,2.8c0.7,0.8,1.6,1.2,2.6,1.2
		c1,0,2-0.4,2.7-1.2c0.1-0.1,0.2-0.2,0.3-0.3l0,1.1c0,0,0,0.2,0.2,0.2c0.4,0,0.6,0,0.6-0.4l0-10.8C175.9,13.3,175.9,13.1,175.7,13.1
		z M175.2,20.8c0,0.8-0.4,1.5-0.9,2.1c-0.6,0.6-1.2,1-2,1c-0.8,0-1.4-0.3-2-0.9c-0.5-0.6-0.8-1.4-0.8-2.2c0-0.8,0.3-1.5,0.8-2.1
		c0.4-0.5,1.1-0.9,2-0.9c0.9,0,1.8,0.4,2.3,1.1C175,19.3,175.2,20.1,175.2,20.8L175.2,20.8L175.2,20.8L175.2,20.8z"/>
	<path fill="#007AC9" d="M133.1,22.7c-0.6,0.8-1.3,1-2.2,1c-0.8,0-1.5-0.3-2-0.9c-0.5-0.6-0.9-1.3-0.8-2.1c0-0.8,0.4-1.5,0.9-2.1
		c0.4-0.4,0.9-0.7,1.5-0.8c0.1,0,0.2,0,0.3,0c0,0,0,0,0.1,0h0c0.1,0,0.2,0,0.3,0l0.1,0c0.2,0,0.5,0.1,0.7,0.2
		c0.5,0.2,0.8,0.4,1.1,0.8c0.2,0.1,0.2,0.3,0.6,0.3c0.1,0,0.3,0,0.4,0c0.4,0,0.1-0.3,0.1-0.3c-0.4-0.7-1-1.2-1.7-1.5
		c-0.2-0.1-0.5-0.2-0.8-0.3c0,0-0.1,0-0.1,0c-0.1,0-0.2,0-0.3,0c0,0,0,0-0.1,0c-0.1,0-0.1,0-0.2,0c0,0,0,0,0,0c0,0-0.1,0-0.1,0
		c-0.2,0-0.3,0-0.5,0l0,0l0,0c-0.7,0.1-1.4,0.5-1.9,1c-0.8,0.7-1.2,1.7-1.2,2.7c0,1.1,0.3,2,1,2.8c0.7,0.8,1.6,1.2,2.7,1.2h0
		c0.7,0,1.3-0.2,1.9-0.5c0.6-0.3,1.1-0.8,1.4-1.4c0,0,0.2-0.3-0.1-0.3c-0.1,0-0.2,0-0.3,0C133.6,22.5,133.3,22.6,133.1,22.7z"/>
</g>
</svg>
