<?xml version="1.0" encoding="utf-8"?>
<!-- Generator: Adobe Illustrator 14.0.0, SVG Export Plug-In . SVG Version: 6.00 Build 43363)  -->
<!DOCTYPE svg PUBLIC "-//W3C//DTD SVG 1.1//EN" "http://www.w3.org/Graphics/SVG/1.1/DTD/svg11.dtd">
<svg version="1.1" xmlns="http://www.w3.org/2000/svg" xmlns:xlink="http://www.w3.org/1999/xlink" x="0px" y="0px" width="176px"
	 height="60px" viewBox="0 0 176 60" enable-background="new 0 0 176 60" xml:space="preserve">
<g id="Layer_1">
	<g>
		<path fill="#007AC9" d="M59.9,48.2c0,6.5-5.2,11.7-11.7,11.7H11.7C5.3,59.9,0,54.7,0,48.2V11.7C0,5.3,5.3,0,11.7,0h36.5
			c6.5,0,11.7,5.3,11.7,11.7V48.2z"/>
		<g>
			<path fill="#FFFFFF" d="M47,33.6c1.5-4.7,4-15,4.9-18.6c0.8-3.2,1.3-4.4-0.1-4.4c-1.2,0-4.3,0.3-5,2.9
				c-1.1,4.3-3.6,14.1-4.6,17.2c-1,3.4-3.2,4.2-6,4.2c-2.4,0-3.7-0.2-3.7-2c-0.8,0-1.9,0-2.5,0c-0.5,0-1.7,0-2.5,0
				c0,1.9-1.3,2-3.7,2c-1.8,0-4.5-0.3-5.5-3.6c-0.7-2.3-2.4-8.2-3.3-11.3c-0.9-3.1-3.7-3.3-5-3.3c-1.5,0-1.4,0.2-0.5,3.3
				c0.8,3.1,2.7,9.9,4,14.5c1.3,4.6,5.8,6.1,8.6,6.1c2.4,0,2.5,0,4.8,0c2.2,0,3-0.9,3.1-1.2c0.1,0.3,1,1.2,3.1,1.2
				c2.3,0,2.2,0,4.7,0C41.8,40.6,45.5,38.2,47,33.6z"/>
			<circle fill="#FFFFFF" cx="22.7" cy="19.5" r="2.3"/>
			<circle fill="#FFFFFF" cx="30.1" cy="19.5" r="2.3"/>
			<path fill="#FFFFFF" d="M37.6,21.8c1.3,0,2.3-1,2.3-2.3c0-1.3-1-2.3-2.3-2.3c-1.3,0-2.3,1-2.3,2.3C35.4,20.7,36.4,21.8,37.6,21.8
				z"/>
			<circle fill="#FFFFFF" cx="22.7" cy="27.7" r="2.3"/>
			<circle fill="#FFFFFF" cx="30.1" cy="27.7" r="2.3"/>
			<path fill="#FFFFFF" d="M37.6,30c1.3,0,2.3-1,2.3-2.3c0-1.3-1-2.3-2.3-2.3c-1.3,0-2.3,1-2.3,2.3S36.4,30,37.6,30z"/>
			<path fill="#FFFFFF" d="M12.1,41.8c-2.5,0-4.6,2-4.6,4.6c0,2.5,2,4.6,4.6,4.6c2.5,0,4.6-2,4.6-4.6C16.6,43.9,14.6,41.8,12.1,41.8
				z M12.1,48c-0.9,0-1.6-0.7-1.6-1.6c0-0.9,0.7-1.6,1.6-1.6c0.9,0,1.6,0.7,1.6,1.6C13.7,47.3,13,48,12.1,48z"/>
			<path fill="#FFFFFF" d="M48.1,41.8c-2.5,0-4.6,2-4.6,4.6c0,2.5,2,4.6,4.6,4.6c2.5,0,4.6-2,4.6-4.6C52.6,43.8,50.6,41.8,48.1,41.8
				z M48.1,48c-0.9,0-1.6-0.7-1.6-1.6c0-0.9,0.7-1.6,1.6-1.6c0.9,0,1.6,0.7,1.6,1.6C49.7,47.2,49,48,48.1,48z"/>
		</g>
	</g>
</g>
<g id="Layer_3">
	<g>
		<path fill="#007AC9" d="M83.2,28.3c-1.2-1.2-2.6-1.7-4.3-1.7c-1.7,0-3.2,0.6-4.4,1.9c-1.2,1.2-1.8,2.6-1.8,4.4
			c0,1.7,0.6,3.2,1.8,4.5c1.2,1.2,2.9,1.9,4.6,1.9c1.1,0,2.2-0.3,3.2-0.9c1-0.6,1.6-1.2,2.1-2.2c0,0,0.3-0.3-0.3-0.3
			c-0.5,0-1.1,0.1-1.5,0.5c-0.9,1.2-2.4,1.4-3.5,1.4c-1.2,0-2.5-0.4-3.4-1.3c-0.8-0.8-1.3-1.7-1.4-2.8H84c0.3,0,0.7,0,0.9-0.2
			c0.2-0.2,0.2-0.5,0.2-0.8c0,0,0-0.1,0-0.1C85.1,30.8,84.4,29.4,83.2,28.3z M74.3,32.1c0.2-1.1,0.7-2.1,1.5-2.9
			c0.9-0.9,2-1.3,3.2-1.3c1.2,0,2.3,0.4,3.2,1.3c0.8,0.8,1.4,1.8,1.6,2.9L74.3,32.1z"/>
		<path fill="#007AC9" d="M136.1,26.5c-0.5,0-1,0.3-1.1,0.9l-3.1,9.8c0,0.1-0.1,0.3-0.1,0.3c0,0-0.1-0.2-0.1-0.4l-3.2-8.7
			c-0.1-0.2-0.3-0.5-0.7-0.5c-0.4,0-0.7,0.3-0.8,0.6l-3.1,8.7c0,0.1-0.1,0.2-0.1,0.3c0,0-0.1-0.1-0.1-0.2l-3.2-9.9
			c-0.2-0.6-0.7-0.8-1.2-0.8c-0.7,0-0.5,0.4-0.5,0.4l3.5,10.7c0.3,1,0.9,1.2,1.3,1.2c0.1,0,0,0,0.1,0c0.7,0,1-0.3,1.4-1.2l2.6-7.4
			l2.7,7.4c0.3,0.9,0.8,1.2,1.4,1.2h0.1c0.4,0,0.9-0.2,1.3-1.3l3.4-10.6l0-0.1C136.5,26.8,136.7,26.5,136.1,26.5z"/>
		<path fill="#007AC9" d="M150.1,22.6c-0.7,0-1.1,0.4-1.1,1.1c0,0.7,0.4,1.1,1.1,1.1c0.7,0,1.1-0.4,1.1-1.1
			C151.2,23,150.8,22.6,150.1,22.6z"/>
		<path fill="#007AC9" d="M150.8,27.5c0-0.6-0.2-0.7-1.1-0.7c0,0-0.3,0-0.3,0.4c0,0.4,0,11.3,0,11.3c0,0.7,0.4,0.8,1.1,0.8
			c0,0,0.3,0,0.3-0.3C150.8,38.5,150.8,27.5,150.8,27.5L150.8,27.5L150.8,27.5L150.8,27.5z"/>
		<path fill="#007AC9" d="M174.9,20.4c-0.7,0-0.9,0.1-0.9,0.8l0,7.5c-0.1-0.1-0.3-0.4-0.3-0.5c-1.2-1.2-2.6-1.9-4.2-1.9
			c0,0,0,0-0.1,0c0,0-0.1,0-0.1,0c0,0,0,0-0.1,0c-1.7,0-3.1,0.6-4.2,1.9c-1.2,1.2-1.7,2.7-1.7,4.5c0,1.7,0.6,3.2,1.7,4.5
			c1.2,1.2,2.6,1.9,4.2,1.9c1.7,0,3.2-0.6,4.4-1.9c0.1-0.1,0.3-0.4,0.4-0.5l0,1.7c0,0,0,0.3,0.3,0.3c0.6,0,0.9,0,1-0.6l0-17.5
			C175.2,20.7,175.3,20.4,174.9,20.4z M174.1,32.8c0,1.3-0.6,2.4-1.5,3.4c-0.9,1-2,1.6-3.3,1.6c-1.3,0-2.3-0.5-3.2-1.5
			c-0.9-0.9-1.3-2.2-1.3-3.5c0-1.3,0.5-2.5,1.4-3.4c0.7-0.8,1.8-1.5,3.3-1.5c1.5,0,2.9,0.6,3.7,1.7
			C173.8,30.5,174.1,31.7,174.1,32.8L174.1,32.8L174.1,32.8L174.1,32.8z"/>
		<path fill="#007AC9" d="M105.9,36c-1,1.3-2.1,1.6-3.6,1.6c-1.3,0-2.4-0.5-3.3-1.5c-0.9-1-1.4-2.1-1.4-3.5c0-1.3,0.6-2.5,1.5-3.4
			c0.7-0.7,1.5-1.1,2.4-1.3c0.2,0,0.3,0,0.5-0.1c0,0,0.1,0,0.1,0h0c0.2,0,0.3,0,0.4,0l0.1,0c0.4,0,0.8,0.1,1.1,0.3
			c0.8,0.3,1.2,0.7,1.8,1.2c0.3,0.2,0.4,0.4,1,0.5c0.2,0,0.4,0,0.7,0c0.6,0,0.2-0.5,0.2-0.5c-0.7-1.1-1.6-1.9-2.7-2.4
			c-0.4-0.2-0.8-0.3-1.3-0.4c-0.1,0-0.2,0-0.2-0.1c-0.2,0-0.3,0-0.5-0.1c0,0-0.1,0-0.1,0c-0.1,0-0.2,0-0.3,0c0,0-0.1,0-0.1,0
			c-0.1,0-0.2,0-0.2,0c-0.3,0-0.6,0-0.8,0.1l-0.1,0l0,0c-1.2,0.2-2.2,0.8-3.1,1.7c-1.2,1.2-1.9,2.7-1.9,4.4c0,1.7,0.5,3.2,1.7,4.5
			c1.2,1.3,2.6,1.9,4.3,2h0c1.1,0,2.2-0.2,3.1-0.8c1-0.6,1.8-1.3,2.3-2.3c0,0,0.3-0.4-0.2-0.4c-0.2,0-0.3,0-0.4,0
			C106.7,35.6,106.2,35.7,105.9,36z"/>
	</g>
</g>
<g id="guide">
</g>
</svg>
