<?xml version="1.0" encoding="utf-8"?>
<!-- Generator: Adobe Illustrator 14.0.0, SVG Export Plug-In . SVG Version: 6.00 Build 43363)  -->
<!DOCTYPE svg PUBLIC "-//W3C//DTD SVG 1.1//EN" "http://www.w3.org/Graphics/SVG/1.1/DTD/svg11.dtd">
<svg version="1.1" xmlns="http://www.w3.org/2000/svg" xmlns:xlink="http://www.w3.org/1999/xlink" x="0px" y="0px" width="30px"
	 height="80px" viewBox="0 0 30 80" enable-background="new 0 0 30 80" xml:space="preserve">
<g id="Layer_1">
	<circle fill="#07AA07" cx="15" cy="39" r="15"/>
</g>
<g id="facebook">
	<path fill="#FFFFFF" d="M16.8,50.9V40.1h3.6l0.5-4.2h-4.2v-2.7c0-1.2,0.3-2.1,2.1-2.1l2.2,0v-3.8c-0.4-0.1-1.7-0.2-3.3-0.2
		c-3.2,0-5.4,2-5.4,5.6v3.1H8.8v4.2h3.7v10.8H16.8z"/>
</g>
<g id="insta" display="none">
	<g display="inline">
		<path fill-rule="evenodd" clip-rule="evenodd" fill="#FFFFFF" d="M12.7,28c1.5,0,3,0,4.5,0c1.3,0,2.6,0,3.7,0.2
			c2.1,0.4,3.6,1.6,4.4,3.3c0.4,0.9,0.6,1.9,0.7,3.2c0.1,1.2,0.1,2.5,0.1,3.8c0,1.9,0,3.9-0.1,5.7c-0.2,1.8-0.8,3.1-1.7,4
			c-1,1-2.3,1.6-4.1,1.8c-1.8,0.2-3.7,0.1-5.7,0.1c-1.3,0-2.6,0-3.8-0.1c-1.3-0.1-2.3-0.2-3.2-0.7c-0.9-0.4-1.6-1-2.1-1.7
			c-0.6-0.7-0.9-1.6-1.1-2.7C4,43.8,4,42.6,3.9,41.3c0-1.5,0-3,0-4.5c0-1.5,0-2.9,0.3-4.1c0.6-2.3,2.1-3.8,4.4-4.4
			C9.8,28,11.2,28,12.7,28z M11.8,30c-1.1,0-2.2,0.1-3.1,0.3c-1.1,0.4-1.9,1.1-2.4,2.2c-0.4,1.1-0.4,2.5-0.4,4.1c0,1.9,0,3.8,0,5.6
			c0,1.1,0,2.2,0.3,3.1c0.4,1.1,1.1,1.9,2.2,2.4c0.6,0.2,1.2,0.3,1.9,0.4c1.4,0.1,3,0.1,4.5,0.1c1.5,0,3.1,0,4.5-0.1
			c0.7,0,1.4-0.1,2-0.3c1.1-0.4,1.9-1.1,2.4-2.2c0.4-1.1,0.4-2.6,0.5-4.1c0-0.8,0-1.5,0-2.3c0-1.5,0-3.1-0.1-4.5
			c0-0.7-0.1-1.4-0.3-2c-0.4-1.1-1.1-1.9-2.2-2.4C20.5,30,19,30,17.5,30c-1.5,0-3.1-0.1-4.5,0C12.6,30,12.2,30,11.8,30z"/>
		<path fill-rule="evenodd" clip-rule="evenodd" fill="#FFFFFF" d="M20.8,31.8c0.8,0,1.3,0.5,1.4,1.2c0.1,0.9-0.7,1.5-1.5,1.4
			c-0.5,0-1-0.4-1.1-0.9c-0.1-0.5,0-0.9,0.2-1.2C20,32,20.4,31.8,20.8,31.8z"/>
		<path fill-rule="evenodd" clip-rule="evenodd" fill="#FFFFFF" d="M14.7,33.3c1.8-0.1,3.2,0.6,4.2,1.5c0.5,0.5,0.9,1,1.2,1.6
			c0.3,0.6,0.6,1.4,0.6,2.2c0.1,1.8-0.6,3.2-1.5,4.2c-0.5,0.5-1,0.9-1.6,1.2c-0.6,0.3-1.4,0.6-2.2,0.6c-1.8,0.1-3.2-0.6-4.2-1.5
			c-1-0.9-1.7-2.1-1.8-3.8c-0.1-0.9,0.1-1.8,0.4-2.4c0.5-1.3,1.5-2.3,2.7-3c0.3-0.2,0.6-0.3,1-0.4C13.8,33.4,14.3,33.4,14.7,33.3z
			 M14,35.5c-0.7,0.2-1.3,0.6-1.7,1.1c-0.5,0.6-1,1.5-0.9,2.7c0.1,1.1,0.5,1.9,1.2,2.5c0.6,0.6,1.5,1,2.7,0.9c1.1,0,1.9-0.6,2.5-1.2
			c0.6-0.6,1-1.5,1-2.7c0-1.1-0.6-2-1.2-2.5c-0.6-0.6-1.6-1-2.7-1C14.5,35.4,14.2,35.4,14,35.5z"/>
	</g>
</g>
<g id="twitter" display="none">
	<path display="inline" fill="#FFFFFF" d="M11.3,47.2c7.6,0,11.8-6.3,11.8-11.8c0-0.2,0-0.4,0-0.5c0.8-0.6,1.5-1.3,2.1-2.1
		c-0.8,0.3-1.6,0.6-2.4,0.7c0.9-0.5,1.5-1.3,1.8-2.3c-0.8,0.5-1.7,0.8-2.6,1c-1.6-1.7-4.2-1.7-5.9-0.2c-1.1,1-1.5,2.5-1.2,4
		c-3.3-0.2-6.4-1.7-8.5-4.3c-1.1,1.9-0.5,4.3,1.3,5.5c-0.7,0-1.3-0.2-1.9-0.5c0,0,0,0,0,0.1c0,2,1.4,3.7,3.3,4.1
		c-0.6,0.2-1.3,0.2-1.9,0.1c0.5,1.7,2.1,2.8,3.9,2.9c-1.5,1.2-3.3,1.8-5.1,1.8c-0.3,0-0.7,0-1-0.1C6.8,46.6,9,47.2,11.3,47.2"/>
</g>
</svg>
