<?xml version="1.0" encoding="utf-8"?>
<!-- Generator: Adobe Illustrator 14.0.0, SVG Export Plug-In . SVG Version: 6.00 Build 43363)  -->
<!DOCTYPE svg PUBLIC "-//W3C//DTD SVG 1.1//EN" "http://www.w3.org/Graphics/SVG/1.1/DTD/svg11.dtd">
<svg version="1.1" xmlns="http://www.w3.org/2000/svg" xmlns:xlink="http://www.w3.org/1999/xlink" x="0px" y="0px" width="240px"
	 height="200px" viewBox="0 0 240 200" enable-background="new 0 0 240 200" xml:space="preserve">
<g id="backgroud">
	<rect fill="#07AA07" width="240" height="200"/>
</g>
<g id="Layer_2">
	<path fill="#FFFFFF" d="M70,129.1c-0.3-3-0.3-6.1,0-9.1c1.5-20,13-37,26.6-51c10.5-10.7,27.1-27.6,19.5-44.2
		c0.8,1.7,4.1,3.5,5.5,4.6c5,4.2,9.6,8.7,13.8,13.6c12.2,14.2,24.3,31.1,30,49.1c6.6,20.7,8.6,45.5-7.1,62.5
		c-4.2,4.6-9.5,9.1-15,12.1c-6,3.2-13.3,5-20,5.7c-6.9,0.7-14.2-0.6-20.9-2.6c-14.7-4.6-26.5-17.4-30.8-32.1
		C70.7,134.9,70.2,132,70,129.1z"/>
	<path fill="#07AA07" d="M86.7,145.7c-0.2-2-0.2-4,0-6c1-13.2,8.6-24.4,17.6-33.7c6.9-7.1,17.9-18.2,12.8-29.2
		c0.5,1.1,2.7,2.3,3.6,3.1c3.3,2.7,6.3,5.7,9.1,9c8.1,9.4,16,20.6,19.8,32.4c4.3,13.7,5.7,30-4.7,41.3c-2.8,3-6.3,6-9.9,8
		c-3.9,2.1-8.8,3.3-13.2,3.7c-4.6,0.5-9.4-0.4-13.8-1.7c-9.7-3-17.5-11.5-20.3-21.2C87.2,149.5,86.9,147.6,86.7,145.7z"/>
</g>
</svg>
