<?xml version="1.0" encoding="utf-8"?>
<!-- Generator: Adobe Illustrator 16.0.0, SVG Export Plug-In . SVG Version: 6.00 Build 0)  -->
<!DOCTYPE svg PUBLIC "-//W3C//DTD SVG 1.1//EN" "http://www.w3.org/Graphics/SVG/1.1/DTD/svg11.dtd">
<svg version="1.1" id="Layer_1" xmlns="http://www.w3.org/2000/svg" xmlns:xlink="http://www.w3.org/1999/xlink" x="0px" y="0px"
	 width="175px" height="57.8px" viewBox="0 0 175 57.8" enable-background="new 0 0 175 57.8" xml:space="preserve">
<path fill="#FFFFFF" d="M170.4,47.7H5c-2.2,0-4.1-1.8-4.1-4.1V4.9c0-2.2,1.8-4.1,4.1-4.1h165.4c2.2,0,4.1,1.8,4.1,4.1v38.8
	C174.5,45.9,172.6,47.7,170.4,47.7z"/>
<path fill="#222222" d="M63.3,29.4h-1.8V18.4h6.2v1.5h-4.4v3.4h4.1v1.5h-4.1L63.3,29.4L63.3,29.4z M73.7,20.9c0.4,0,0.6,0,0.9,0.1
	l-0.2,1.6c-0.2-0.1-0.5-0.1-0.8-0.1c-0.7,0-1.3,0.2-1.7,0.7c-0.4,0.5-0.7,1.1-0.7,1.8v4.3h-1.8v-8.3h1.4l0.2,1.5h0.1
	c0.3-0.5,0.6-0.9,1.1-1.2C72.7,21.1,73.2,20.9,73.7,20.9z M79.7,29.5c-1.3,0-2.3-0.4-3-1.1c-0.7-0.7-1.1-1.8-1.1-3.1
	c0-1.3,0.3-2.4,1-3.2s1.6-1.2,2.8-1.2c1.1,0,2,0.3,2.6,1c0.6,0.7,0.9,1.6,0.9,2.7v1h-5.5c0,0.8,0.2,1.4,0.7,1.8
	c0.4,0.4,1,0.6,1.7,0.6c0.5,0,0.9,0,1.4-0.1c0.4-0.1,0.9-0.2,1.4-0.5v1.4c-0.4,0.2-0.9,0.3-1.3,0.4C80.8,29.4,80.3,29.5,79.7,29.5z
	 M79.4,22.3c-0.6,0-1,0.2-1.3,0.5c-0.3,0.4-0.5,0.9-0.6,1.6h3.8c0-0.7-0.2-1.2-0.5-1.6C80.4,22.4,80,22.3,79.4,22.3z M88.6,29.5
	c-1.3,0-2.3-0.4-3-1.1c-0.7-0.7-1.1-1.8-1.1-3.1c0-1.3,0.3-2.4,1-3.2s1.6-1.2,2.8-1.2c1.1,0,2,0.3,2.6,1c0.6,0.7,0.9,1.6,0.9,2.7v1
	h-5.5c0,0.8,0.2,1.4,0.7,1.8c0.4,0.4,1,0.6,1.7,0.6c0.5,0,0.9,0,1.4-0.1c0.4-0.1,0.9-0.2,1.4-0.5v1.4c-0.4,0.2-0.9,0.3-1.3,0.4
	C89.6,29.4,89.1,29.5,88.6,29.5z M88.3,22.3c-0.6,0-1,0.2-1.3,0.5c-0.3,0.4-0.5,0.9-0.6,1.6h3.8c0-0.7-0.2-1.2-0.5-1.6
	C89.2,22.4,88.8,22.3,88.3,22.3z M104.3,26.4c0,1-0.3,1.7-1.1,2.3c-0.7,0.6-1.7,0.8-2.9,0.8c-1.2,0-2.2-0.2-3-0.6v-1.7
	c0.5,0.2,1,0.4,1.6,0.6c0.6,0.1,1.1,0.2,1.6,0.2c0.7,0,1.2-0.1,1.6-0.4c0.3-0.3,0.5-0.6,0.5-1.1c0-0.4-0.2-0.8-0.5-1
	c-0.3-0.3-0.9-0.6-1.9-1c-1-0.4-1.7-0.9-2.1-1.4c-0.4-0.5-0.6-1.1-0.6-1.9c0-0.9,0.3-1.6,1-2.2c0.6-0.5,1.5-0.8,2.6-0.8
	c1.1,0,2.1,0.2,3.1,0.7l-0.6,1.5c-1-0.4-1.8-0.6-2.6-0.6c-0.6,0-1,0.1-1.3,0.4c-0.3,0.3-0.4,0.6-0.4,1c0,0.3,0.1,0.5,0.2,0.7
	c0.1,0.2,0.3,0.4,0.6,0.6s0.8,0.4,1.5,0.7c0.8,0.3,1.4,0.6,1.8,0.9c0.4,0.3,0.6,0.6,0.8,1C104.2,25.5,104.3,25.9,104.3,26.4
	L104.3,26.4z M113.5,29.4h-1.8v-5.1c0-0.6-0.1-1.1-0.4-1.4c-0.3-0.3-0.7-0.5-1.2-0.5c-0.7,0-1.3,0.2-1.6,0.7
	c-0.3,0.4-0.5,1.2-0.5,2.2v4.1h-1.8V17.7h1.8v3c0,0.5,0,1-0.1,1.5h0.1c0.2-0.4,0.6-0.7,1-0.9c0.4-0.2,0.9-0.3,1.5-0.3c2,0,3,1,3,3
	V29.4L113.5,29.4z M115.8,18.9c0-0.3,0.1-0.6,0.3-0.7c0.2-0.2,0.4-0.3,0.7-0.3c0.3,0,0.6,0.1,0.7,0.3c0.2,0.2,0.3,0.4,0.3,0.7
	c0,0.3-0.1,0.5-0.3,0.7c-0.2,0.2-0.4,0.3-0.7,0.3s-0.6-0.1-0.7-0.3C115.9,19.4,115.8,19.2,115.8,18.9z M117.7,29.4h-1.8v-8.3h1.8
	V29.4z M124.4,29.5c-1.1,0-1.9-0.4-2.4-1.1h-0.1c0.1,0.7,0.1,1.1,0.1,1.3V33h-1.8v-12h1.4c0,0.2,0.1,0.5,0.2,1.1h0.1
	c0.6-0.8,1.4-1.3,2.5-1.3c1,0,1.8,0.4,2.4,1.1c0.6,0.7,0.9,1.8,0.9,3.1c0,1.3-0.3,2.4-0.9,3.2C126.2,29.1,125.4,29.5,124.4,29.5
	L124.4,29.5z M123.9,22.4c-0.7,0-1.2,0.2-1.5,0.6c-0.3,0.4-0.5,1.1-0.5,2v0.3c0,1,0.2,1.7,0.5,2.2c0.3,0.5,0.8,0.7,1.6,0.7
	c0.6,0,1.1-0.2,1.4-0.7c0.3-0.5,0.5-1.2,0.5-2.1c0-0.9-0.2-1.6-0.5-2.1C125,22.6,124.6,22.4,123.9,22.4L123.9,22.4z M133.9,29.5
	c-1.1,0-1.9-0.4-2.4-1.1h-0.1c0.1,0.7,0.1,1.1,0.1,1.3V33h-1.8v-12h1.4c0,0.2,0.1,0.5,0.2,1.1h0.1c0.6-0.8,1.4-1.3,2.5-1.3
	c1,0,1.8,0.4,2.4,1.1c0.6,0.7,0.9,1.8,0.9,3.1c0,1.3-0.3,2.4-0.9,3.2C135.7,29.1,134.9,29.5,133.9,29.5L133.9,29.5z M133.5,22.4
	c-0.7,0-1.2,0.2-1.5,0.6c-0.3,0.4-0.5,1.1-0.5,2v0.3c0,1,0.2,1.7,0.5,2.2c0.3,0.5,0.8,0.7,1.6,0.7c0.6,0,1.1-0.2,1.4-0.7
	c0.3-0.5,0.5-1.2,0.5-2.1c0-0.9-0.2-1.6-0.5-2.1C134.6,22.6,134.1,22.4,133.5,22.4z M139.1,18.9c0-0.3,0.1-0.6,0.3-0.7
	c0.2-0.2,0.4-0.3,0.7-0.3c0.3,0,0.6,0.1,0.7,0.3c0.2,0.2,0.3,0.4,0.3,0.7c0,0.3-0.1,0.5-0.3,0.7c-0.2,0.2-0.4,0.3-0.7,0.3
	c-0.3,0-0.6-0.1-0.7-0.3C139.2,19.4,139.1,19.2,139.1,18.9z M141,29.4h-1.8v-8.3h1.8V29.4z M150.8,29.4H149v-5.1
	c0-0.6-0.1-1.1-0.4-1.4c-0.3-0.3-0.7-0.5-1.2-0.5c-0.7,0-1.3,0.2-1.6,0.7c-0.3,0.4-0.5,1.2-0.5,2.2v4.1h-1.8v-8.3h1.4l0.2,1.1h0.1
	c0.2-0.4,0.6-0.7,1.1-0.9c0.5-0.2,1-0.3,1.5-0.3c2,0,3,1,3,3L150.8,29.4L150.8,29.4z M160.2,21.1v1l-1.4,0.3
	c0.1,0.2,0.2,0.4,0.3,0.6c0.1,0.3,0.1,0.5,0.1,0.8c0,0.8-0.3,1.5-0.9,2c-0.6,0.5-1.4,0.7-2.4,0.7c-0.3,0-0.5,0-0.7-0.1
	c-0.4,0.2-0.6,0.5-0.6,0.8c0,0.2,0.1,0.3,0.3,0.4c0.2,0.1,0.5,0.1,1,0.1h1.4c0.9,0,1.6,0.2,2.1,0.6c0.5,0.4,0.7,0.9,0.7,1.7
	c0,0.9-0.4,1.7-1.2,2.2c-0.8,0.5-1.9,0.8-3.3,0.8c-1.1,0-2-0.2-2.6-0.6c-0.6-0.4-0.9-1-0.9-1.7c0-0.5,0.2-0.9,0.5-1.3
	c0.3-0.3,0.8-0.6,1.3-0.7c-0.2-0.1-0.4-0.3-0.6-0.5c-0.2-0.2-0.2-0.5-0.2-0.7c0-0.3,0.1-0.6,0.3-0.8c0.2-0.2,0.4-0.4,0.8-0.6
	c-0.4-0.2-0.8-0.5-1-0.9c-0.3-0.4-0.4-0.9-0.4-1.5c0-0.9,0.3-1.6,0.8-2.1c0.6-0.5,1.4-0.7,2.4-0.7c0.2,0,0.5,0,0.7,0.1
	c0.3,0,0.4,0.1,0.6,0.1L160.2,21.1L160.2,21.1z M153.7,30.6c0,0.4,0.2,0.7,0.5,0.9c0.3,0.2,0.8,0.3,1.4,0.3c1,0,1.7-0.1,2.1-0.4
	c0.5-0.3,0.7-0.6,0.7-1.1c0-0.4-0.1-0.6-0.4-0.8c-0.3-0.2-0.7-0.2-1.4-0.2h-1.3c-0.5,0-0.9,0.1-1.2,0.4
	C153.9,29.9,153.7,30.2,153.7,30.6L153.7,30.6z M154.5,23.8c0,0.5,0.1,0.9,0.4,1.2s0.7,0.4,1.1,0.4c1,0,1.5-0.5,1.5-1.6
	c0-0.5-0.1-0.9-0.4-1.2c-0.3-0.3-0.6-0.4-1.1-0.4s-0.9,0.1-1.2,0.4C154.6,22.8,154.5,23.2,154.5,23.8z"/>
<path fill="#222222" d="M48.9,25.1L48.9,25.1c0-0.5-0.4-0.9-0.9-0.9h-0.2l-3.6-7c-0.2-0.3-0.5-0.5-0.8-0.5h-6.2l0.2-1.9
	c0.1-0.8-0.2-1.5-0.7-2c-0.5-0.6-1.2-0.8-1.9-0.8H15.4c-0.5,0-0.9,0.4-0.9,0.9l-0.2,1.6h11c0.7,0,1.3,0.6,1.3,1.3
	c0,0.7-0.6,1.3-1.3,1.3h-3.7v0H10.8c-0.5,0-0.9,0.4-0.9,0.9c0,0.5,0.4,0.9,0.9,0.9H25c0.7,0.1,1.2,0.7,1.1,1.4
	c0,0.8-0.7,1.4-1.4,1.4h-9.8c-0.5,0-0.9,0.4-0.9,0.9c0,0.5,0.4,0.9,0.9,0.9h9.7c0.7,0.1,1.2,0.7,1.2,1.4c0,0.8-0.7,1.4-1.4,1.4H12.2
	c-0.5,0-0.9,0.4-0.9,0.9c0,0.5,0.4,0.9,0.9,0.9H13l-0.3,3.3c-0.1,0.8,0.2,1.5,0.7,2c0.5,0.5,1.2,0.8,1.9,0.8h0.7
	c0.3,1.9,2,3.3,4,3.3s3.7-1.4,4.2-3.3h8.7c0.7,0,1.4-0.3,1.9-0.7c0.5,0.5,1.1,0.7,1.8,0.7h0.2c0.3,1.9,2,3.3,4,3.3s3.7-1.4,4.2-3.3
	h0.6c1.5,0,2.8-1.2,3-2.7L48.9,25.1L48.9,25.1L48.9,25.1z M20,35.7c-1.3,0-2.3-1-2.2-2.3c0-1.3,1.1-2.3,2.4-2.3c1.3,0,2.3,1,2.2,2.3
	C22.3,34.6,21.2,35.7,20,35.7z M40.7,35.7c-1.3,0-2.3-1-2.2-2.3c0-1.3,1.1-2.3,2.4-2.3c1.3,0,2.3,1,2.2,2.3
	C43,34.6,41.9,35.7,40.7,35.7z M46.5,31.4c-0.1,0.5-0.5,1-1.1,1h-0.6c-0.4-1.8-2-3.1-4-3.1c-1.9,0-3.6,1.3-4.1,3.1h-0.2
	c-0.2,0-0.4-0.1-0.6-0.2c-0.1-0.2-0.2-0.4-0.2-0.6l1.2-12.9h2.7l-0.4,4.7c-0.1,0.8,0.2,1.5,0.7,2s1.2,0.8,1.9,0.8h5.2L46.5,31.4z"/>
</svg>
