<?xml version="1.0" encoding="utf-8"?>
<!-- Generator: Adobe Illustrator 16.0.0, SVG Export Plug-In . SVG Version: 6.00 Build 0)  -->
<!DOCTYPE svg PUBLIC "-//W3C//DTD SVG 1.1//EN" "http://www.w3.org/Graphics/SVG/1.1/DTD/svg11.dtd">
<svg version="1.1" id="Layer_1" xmlns="http://www.w3.org/2000/svg" xmlns:xlink="http://www.w3.org/1999/xlink" x="0px" y="0px"
	 width="600px" height="600px" viewBox="0 0 600 600" enable-background="new 0 0 600 600" xml:space="preserve">
<path fill="#FFFFFF" d="M582.559,380.232H17.442c-7.674,0-13.954-6.279-13.954-13.953V233.721c0-7.674,6.279-13.953,13.954-13.953
	h565.117c7.674,0,13.953,6.279,13.953,13.953v132.559C596.512,373.953,590.232,380.232,582.559,380.232z"/>
<path fill="#222222" d="M216.802,317.441h-6.07v-37.36h21.07v5.163h-15.035v11.686h14.093v5.198h-14.093v15.313H216.802z
	 M252.279,288.663c1.221,0,2.197,0.07,3,0.245l-0.593,5.581c-0.837-0.209-1.744-0.314-2.651-0.314c-2.407,0-4.36,0.768-5.825,2.337
	c-1.5,1.57-2.233,3.593-2.233,6.104v14.825h-6v-28.255h4.709l0.802,4.988h0.314c0.942-1.674,2.163-3.035,3.663-4.012
	C248.93,289.151,250.57,288.663,252.279,288.663z M272.86,317.965c-4.395,0-7.814-1.291-10.326-3.837
	c-2.477-2.546-3.732-6.104-3.732-10.604c0-4.605,1.151-8.233,3.454-10.884c2.302-2.651,5.442-3.977,9.488-3.977
	c3.732,0,6.663,1.117,8.826,3.384c2.163,2.268,3.244,5.372,3.244,9.349v3.244h-18.837c0.07,2.756,0.837,4.849,2.233,6.313
	c1.395,1.465,3.349,2.198,5.895,2.198c1.675,0,3.209-0.14,4.675-0.489c1.43-0.313,3-0.836,4.639-1.569v4.884
	c-1.465,0.697-2.93,1.186-4.43,1.465S274.779,317.965,272.86,317.965z M271.744,293.232c-1.918,0-3.454,0.593-4.57,1.814
	c-1.151,1.221-1.849,2.965-2.058,5.302h12.837c-0.035-2.337-0.593-4.116-1.674-5.302
	C275.163,293.826,273.663,293.232,271.744,293.232z M303,317.965c-4.396,0-7.814-1.291-10.326-3.837
	c-2.477-2.546-3.732-6.104-3.732-10.604c0-4.605,1.151-8.233,3.454-10.884c2.302-2.651,5.442-3.977,9.488-3.977
	c3.732,0,6.663,1.117,8.825,3.384c2.163,2.268,3.244,5.372,3.244,9.349v3.244h-18.837c0.07,2.756,0.837,4.849,2.232,6.313
	c1.396,1.465,3.349,2.198,5.896,2.198c1.674,0,3.209-0.14,4.675-0.489c1.43-0.313,3-0.836,4.64-1.569v4.884
	c-1.466,0.697-2.931,1.186-4.431,1.465S304.918,317.965,303,317.965z M301.918,293.232c-1.918,0-3.453,0.593-4.569,1.814
	c-1.151,1.221-1.849,2.965-2.058,5.302h12.837c-0.035-2.337-0.593-4.116-1.675-5.302
	C305.303,293.826,303.803,293.232,301.918,293.232z M356.581,307.291c0,3.313-1.186,5.93-3.593,7.813s-5.721,2.825-9.941,2.825
	c-4.222,0-7.675-0.662-10.36-1.953v-5.791c1.709,0.803,3.522,1.431,5.441,1.885c1.919,0.453,3.697,0.697,5.337,0.697
	c2.407,0,4.221-0.453,5.338-1.396c1.15-0.907,1.709-2.163,1.709-3.698c0-1.395-0.523-2.58-1.57-3.558
	c-1.046-0.977-3.244-2.128-6.558-3.454c-3.419-1.395-5.825-2.964-7.221-4.708s-2.094-3.907-2.094-6.384
	c0-3.104,1.117-5.582,3.314-7.36c2.197-1.779,5.197-2.686,8.93-2.686c3.594,0,7.151,0.767,10.675,2.337l-1.953,4.988
	c-3.314-1.395-6.279-2.093-8.896-2.093c-1.988,0-3.488,0.418-4.5,1.291s-1.535,1.989-1.535,3.419c0,0.977,0.209,1.814,0.628,2.477
	c0.419,0.698,1.081,1.326,2.023,1.954c0.941,0.628,2.616,1.43,5.058,2.442c2.756,1.151,4.745,2.198,6.035,3.209
	c1.291,0.977,2.198,2.093,2.826,3.349C356.268,304.151,356.581,305.616,356.581,307.291L356.581,307.291z M388.047,317.441h-6.035
	V300.07c0-2.163-0.453-3.802-1.325-4.884s-2.268-1.604-4.187-1.604c-2.512,0-4.36,0.767-5.547,2.267
	c-1.186,1.5-1.778,4.047-1.778,7.569v14.023h-6v-39.767h6v10.082c0,1.604-0.105,3.349-0.314,5.198h0.384
	c0.803-1.361,1.953-2.407,3.419-3.174c1.465-0.733,3.14-1.117,5.093-1.117c6.837,0,10.291,3.454,10.291,10.361V317.441
	L388.047,317.441z M396.035,281.686c0-1.082,0.279-1.884,0.872-2.477c0.593-0.593,1.43-0.872,2.512-0.872
	c1.046,0,1.884,0.279,2.477,0.872c0.593,0.593,0.872,1.395,0.872,2.477c0,1.012-0.279,1.814-0.872,2.407
	c-0.593,0.593-1.396,0.872-2.477,0.872c-1.082,0-1.919-0.279-2.512-0.872C396.314,283.535,396.035,282.732,396.035,281.686z
	 M402.384,317.441h-6v-28.255h6V317.441z M425.303,317.965c-3.594,0-6.35-1.291-8.338-3.872h-0.349
	c0.244,2.372,0.349,3.837,0.349,4.36v11.582h-6v-40.849h4.849c0.14,0.523,0.419,1.779,0.838,3.768h0.313
	c1.884-2.861,4.675-4.291,8.442-4.291c3.523,0,6.278,1.291,8.232,3.837c1.953,2.546,2.965,6.14,2.965,10.744s-1.012,8.232-3,10.814
	C431.616,316.674,428.825,317.965,425.303,317.965L425.303,317.965z M423.837,293.582c-2.372,0-4.116,0.698-5.232,2.093
	c-1.081,1.396-1.64,3.628-1.64,6.698v0.907c0,3.453,0.559,5.93,1.64,7.465s2.86,2.303,5.337,2.303c2.094,0,3.663-0.838,4.814-2.547
	s1.675-4.116,1.675-7.291c0-3.174-0.559-5.546-1.675-7.186C427.64,294.384,426,293.582,423.837,293.582L423.837,293.582z
	 M457.919,317.965c-3.594,0-6.35-1.291-8.338-3.872h-0.349c0.244,2.372,0.349,3.837,0.349,4.36v11.582h-6v-40.849h4.85
	c0.139,0.523,0.418,1.779,0.837,3.768h0.313c1.884-2.861,4.675-4.291,8.442-4.291c3.523,0,6.279,1.291,8.232,3.837
	s2.965,6.14,2.965,10.744s-1.012,8.232-3,10.814C464.197,316.674,461.441,317.965,457.919,317.965L457.919,317.965z
	 M456.453,293.582c-2.372,0-4.116,0.698-5.232,2.093c-1.081,1.396-1.64,3.628-1.64,6.698v0.907c0,3.453,0.559,5.93,1.64,7.465
	c1.082,1.535,2.86,2.303,5.338,2.303c2.093,0,3.662-0.838,4.813-2.547s1.675-4.116,1.675-7.291c0-3.174-0.559-5.546-1.675-7.186
	C460.256,294.384,458.616,293.582,456.453,293.582z M475.814,281.686c0-1.082,0.278-1.884,0.872-2.477
	c0.593-0.593,1.43-0.872,2.511-0.872c1.047,0,1.884,0.279,2.478,0.872c0.593,0.593,0.872,1.395,0.872,2.477
	c0,1.012-0.279,1.814-0.872,2.407c-0.594,0.593-1.396,0.872-2.478,0.872c-1.081,0-1.918-0.279-2.511-0.872
	C476.128,283.535,475.814,282.732,475.814,281.686z M482.197,317.441h-6v-28.255h6V317.441z M515.616,317.441h-6.035V300.07
	c0-2.163-0.453-3.802-1.325-4.884s-2.268-1.604-4.187-1.604c-2.546,0-4.395,0.732-5.581,2.232c-1.186,1.5-1.779,4.012-1.779,7.535
	v14.093h-6v-28.255h4.71l0.837,3.698h0.313c0.838-1.36,2.059-2.372,3.628-3.104c1.57-0.733,3.314-1.082,5.198-1.082
	c6.768,0,10.186,3.454,10.186,10.36v18.383H515.616z M547.849,289.186v3.279l-4.813,0.907c0.453,0.593,0.802,1.326,1.081,2.198
	s0.419,1.779,0.419,2.756c0,2.895-1.012,5.198-3.035,6.872c-2.023,1.675-4.779,2.512-8.303,2.512c-0.906,0-1.709-0.069-2.441-0.209
	c-1.291,0.803-1.953,1.744-1.953,2.826c0,0.662,0.313,1.15,0.906,1.465c0.594,0.313,1.71,0.488,3.35,0.488h4.918
	c3.104,0,5.477,0.662,7.116,1.988c1.64,1.325,2.442,3.244,2.442,5.756c0,3.209-1.326,5.686-3.977,7.395
	c-2.651,1.71-6.454,2.617-11.442,2.617c-3.837,0-6.802-0.697-8.825-2.023c-2.023-1.36-3.035-3.314-3.035-5.826
	c0-1.744,0.559-3.209,1.64-4.395c1.116-1.187,2.651-2.023,4.604-2.477c-0.803-0.35-1.465-0.873-1.988-1.641
	c-0.523-0.767-0.768-1.569-0.768-2.371c0-1.047,0.279-1.954,0.907-2.687s1.5-1.465,2.651-2.163
	c-1.466-0.627-2.651-1.639-3.559-3.069s-1.36-3.07-1.36-4.988c0-3.07,0.977-5.442,2.896-7.116c1.918-1.675,4.674-2.547,8.268-2.547
	c0.802,0,1.639,0.07,2.512,0.175c0.871,0.104,1.534,0.209,1.988,0.349h9.802V289.186z M525.663,321.838c0,1.29,0.593,2.302,1.744,3
	c1.151,0.697,2.79,1.046,4.918,1.046c3.279,0,5.722-0.454,7.291-1.396s2.407-2.162,2.407-3.732c0-1.221-0.454-2.094-1.326-2.616
	c-0.872-0.523-2.512-0.768-4.883-0.768h-4.535c-1.71,0-3.104,0.419-4.116,1.221C526.151,319.36,525.663,320.441,525.663,321.838
	L525.663,321.838z M528.209,298.326c0,1.779,0.454,3.139,1.36,4.082c0.907,0.941,2.233,1.431,3.907,1.431
	c3.488,0,5.198-1.85,5.198-5.582c0-1.849-0.419-3.244-1.291-4.256s-2.163-1.5-3.907-1.5s-3.069,0.488-3.941,1.465
	C528.663,295.012,528.209,296.442,528.209,298.326z"/>
<path fill="#222222" d="M167.442,303.07V303c-0.035-1.674-1.396-3-3.07-3h-0.802l-12.454-24.07c-0.523-1.012-1.57-1.64-2.721-1.64
	h-21.279l0.802-6.418c0.244-2.582-0.558-4.988-2.232-6.837c-1.674-1.883-4.012-2.895-6.558-2.895h-66
	c-1.674,0-3.07,1.291-3.244,2.93l-0.663,5.302h37.605c2.442,0,4.36,1.988,4.291,4.43s-2.093,4.43-4.535,4.43H74.023v0.035H37.221
	c-1.709,0-3.174,1.395-3.209,3.14c-0.035,1.709,1.326,3.139,3.035,3.139h48.768c2.268,0.349,3.942,2.302,3.907,4.674
	c-0.069,2.617-2.232,4.709-4.813,4.745H51.279c-1.745,0-3.209,1.43-3.245,3.174c-0.035,1.744,1.326,3.174,3.07,3.174h33.209
	c2.302,0.314,4.012,2.302,3.942,4.674c-0.07,2.616-2.232,4.744-4.849,4.744H42.104c-1.744,0-3.209,1.43-3.244,3.175
	c-0.035,1.744,1.326,3.175,3.07,3.175h2.756l-1.082,11.302c-0.244,2.581,0.558,4.988,2.233,6.837
	c1.674,1.85,4.011,2.826,6.558,2.826h2.372c1.151,6.488,6.767,11.406,13.64,11.406c6.872,0,12.767-4.918,14.232-11.406h29.756
	c2.407,0,4.674-0.907,6.453-2.442c1.64,1.569,3.803,2.442,6.175,2.442h0.558c1.116,6.383,6.732,11.302,13.604,11.302
	s12.768-4.919,14.232-11.407h1.954c5.128,0,9.663-4.15,10.116-9.279l1.954-21.313V303.07L167.442,303.07z M68.616,339.035
	c-4.36,0-7.814-3.559-7.674-7.884c0.104-4.36,3.732-7.884,8.093-7.884c4.361,0,7.814,3.559,7.675,7.884
	C76.604,335.477,72.977,339.035,68.616,339.035z M139.36,339.035c-4.36,0-7.814-3.559-7.674-7.884
	c0.104-4.36,3.732-7.884,8.093-7.884c4.36,0,7.814,3.559,7.674,7.884C147.349,335.477,143.721,339.035,139.36,339.035z
	 M159.209,324.279c-0.175,1.813-1.849,3.349-3.663,3.349h-2.128c-1.395-6.14-6.872-10.71-13.5-10.71s-12.314,4.57-14.058,10.71
	h-0.628c-0.802,0-1.535-0.313-2.023-0.837c-0.489-0.559-0.733-1.291-0.663-2.094l3.977-44.127h9.139l-1.465,16.046
	c-0.244,2.582,0.558,4.988,2.232,6.837c1.674,1.85,4.012,2.861,6.558,2.861h17.791L159.209,324.279z"/>
</svg>
