<?xml version="1.0" encoding="utf-8"?>
<!-- Generator: Adobe Illustrator 14.0.0, SVG Export Plug-In . SVG Version: 6.00 Build 43363)  -->
<!DOCTYPE svg PUBLIC "-//W3C//DTD SVG 1.1//EN" "http://www.w3.org/Graphics/SVG/1.1/DTD/svg11.dtd">
<svg version="1.1" xmlns="http://www.w3.org/2000/svg" xmlns:xlink="http://www.w3.org/1999/xlink" x="0px" y="0px" width="240px"
	 height="200px" viewBox="0 0 240 200" enable-background="new 0 0 240 200" xml:space="preserve">
<g id="backgroud">
	<rect fill="#07AA07" width="240" height="200"/>
</g>
<g id="Layer_2">
	<line fill="none" stroke="#FFFFFF" stroke-width="2" x1="200.8" y1="174.3" x2="39.3" y2="174.3"/>
	<line fill="none" stroke="#FFFFFF" stroke-width="1.9837" x1="39.3" y1="25.7" x2="39.3" y2="175.2"/>
	<g>
		<path fill="#FFFFFF" d="M103.1,188.6c-0.5,0.2-1.4,0.4-2.5,0.4c-1.2,0-2.2-0.3-3-1.1c-0.7-0.7-1.1-1.8-1.1-3
			c0-2.4,1.7-4.2,4.4-4.2c0.9,0,1.7,0.2,2,0.4l-0.3,0.9c-0.4-0.2-1-0.3-1.8-0.3c-2,0-3.3,1.2-3.3,3.3c0,2.1,1.2,3.3,3.1,3.3
			c0.7,0,1.2-0.1,1.4-0.2v-2.4h-1.6v-0.8h2.7V188.6z"/>
		<path fill="#FFFFFF" d="M107.1,181c0.5-0.1,1.3-0.2,2-0.2c1.1,0,1.8,0.2,2.3,0.7c0.4,0.4,0.6,0.9,0.6,1.5c0,1.1-0.7,1.8-1.5,2.1v0
			c0.6,0.2,1,0.8,1.2,1.6c0.3,1.1,0.5,1.9,0.6,2.2h-1.1c-0.1-0.2-0.3-0.9-0.5-1.9c-0.2-1.1-0.7-1.5-1.6-1.6h-1v3.5h-1V181z
			 M108.1,184.7h1.1c1.1,0,1.8-0.6,1.8-1.5c0-1-0.8-1.5-1.9-1.5c-0.5,0-0.9,0-1,0.1V184.7z"/>
		<path fill="#FFFFFF" d="M117.3,186.5l-0.8,2.5h-1.1l2.8-8.1h1.2l2.8,8.1H121l-0.9-2.5H117.3z M119.9,185.6l-0.8-2.3
			c-0.2-0.5-0.3-1-0.4-1.5h0c-0.1,0.5-0.2,1-0.4,1.5l-0.8,2.3H119.9z"/>
		<path fill="#FFFFFF" d="M125.7,181c0.6-0.1,1.4-0.2,2.2-0.2c1.5,0,2.6,0.4,3.3,1c0.7,0.7,1.2,1.6,1.2,2.9c0,1.3-0.4,2.4-1.2,3.1
			c-0.8,0.8-2,1.2-3.6,1.2c-0.8,0-1.4,0-1.9-0.1V181z M126.8,188.2c0.3,0,0.6,0,1.1,0c2.2,0,3.4-1.2,3.4-3.4c0-1.9-1.1-3.1-3.3-3.1
			c-0.5,0-0.9,0-1.2,0.1V188.2z"/>
		<path fill="#FFFFFF" d="M140.3,185.2h-3.1v2.9h3.5v0.9h-4.6v-8.1h4.4v0.9h-3.3v2.6h3.1V185.2z"/>
	</g>
	<g>
		<path fill="#FFFFFF" d="M23.2,127.7c-0.1-0.5-0.2-1.2-0.2-1.9c0-1,0.2-1.7,0.6-2.2c0.3-0.4,0.8-0.7,1.4-0.7c0.8,0,1.5,0.5,1.8,1.4
			h0c0.2-0.8,0.8-1.7,2-1.7c0.7,0,1.2,0.3,1.6,0.7c0.5,0.6,0.8,1.5,0.8,2.8c0,0.7,0,1.3-0.1,1.6H23.2z M26.5,126.6v-0.9
			c0-1.1-0.6-1.7-1.4-1.7c-0.9,0-1.3,0.7-1.3,1.8c0,0.5,0,0.8,0.1,0.9H26.5z M30.3,126.6c0-0.2,0-0.5,0-0.9c0-1.1-0.4-2.1-1.6-2.1
			c-1.1,0-1.6,0.9-1.6,2.1v0.9H30.3z"/>
		<path fill="#FFFFFF" d="M27.3,114.6v3.1h2.9v-3.5h0.9v4.6H23v-4.4h0.9v3.3h2.6v-3.1H27.3z"/>
		<path fill="#FFFFFF" d="M31.1,110.5H23v-1.2l4.1-2.6c0.9-0.6,1.8-1.1,2.6-1.4l0,0c-1.1,0.1-2.1,0.1-3.3,0.1H23v-1h8.1v1.1L27,108
			c-0.9,0.6-1.8,1.1-2.7,1.5l0,0c1-0.1,2-0.1,3.3-0.1h3.5V110.5z"/>
		<path fill="#FFFFFF" d="M27.3,96v3.1h2.9v-3.5h0.9v4.6H23v-4.4h0.9v3.3h2.6V96H27.3z"/>
		<path fill="#FFFFFF" d="M23,91.9v-4.4h0.9v3.3h2.7v-3h0.9v3h3.7v1.1H23z"/>
		<path fill="#FFFFFF" d="M23,82.6h8.1v1.1H23V82.6z"/>
		<path fill="#FFFFFF" d="M23.9,76.8v2.5H23v-6h0.9v2.5h7.2v1.1H23.9z"/>
	</g>
	<line fill="none" stroke="#FFFFFF" stroke-width="2" x1="50.5" y1="163.4" x2="189" y2="41.9"/>
</g>
</svg>
