<?xml version="1.0" encoding="utf-8"?>
<!-- Generator: Adobe Illustrator 14.0.0, SVG Export Plug-In . SVG Version: 6.00 Build 43363)  -->
<!DOCTYPE svg PUBLIC "-//W3C//DTD SVG 1.1//EN" "http://www.w3.org/Graphics/SVG/1.1/DTD/svg11.dtd">
<svg version="1.1" xmlns="http://www.w3.org/2000/svg" xmlns:xlink="http://www.w3.org/1999/xlink" x="0px" y="0px" width="100px"
	 height="100px" viewBox="0 0 100 100" enable-background="new 0 0 100 100" xml:space="preserve">
<g id="Layer_1">
	<rect x="-40.3" y="-20" fill="#07AA07" width="168.3" height="154.7"/>
</g>
<g id="shaker-bottle">
	<g>
		<polygon fill="#FFFFFF" points="79.7,24.4 83.7,31.1 59.6,51.1 52.9,40 		"/>
		<polygon fill="#FFFFFF" points="80.2,25.1 76.2,18.3 47,29.4 53.3,40.7 		"/>
	</g>
	
		<rect x="37.1" y="38.3" transform="matrix(-0.5023 -0.8647 0.8647 -0.5023 41.0581 106.3689)" fill="#FFFFFF" width="28.1" height="6.1"/>
	<path fill="#FFFFFF" d="M42.4,30.8c1.3-0.8,3.1-0.3,3.9,1.1l10.7,18.5c0.8,1.4,0.4,3.1-1,3.9l0,0c-1.3,0.8-3.1,0.3-3.9-1.1
		L41.5,34.7C40.7,33.3,41.1,31.5,42.4,30.8L42.4,30.8z"/>
	
		<rect x="45.1" y="48.7" transform="matrix(-0.5024 -0.8646 0.8646 -0.5024 29.615 119.2605)" fill="#FFFFFF" width="8.1" height="4.7"/>
	<path fill="#FFFFFF" d="M30.5,44.6c0.4,0.2,0.5,0.7,0.3,1.1l-4.4,7.8c-0.2,0.4-0.7,0.5-1.1,0.3l0,0c-0.4-0.2-0.5-0.7-0.3-1.1
		l4.4-7.8C29.6,44.5,30.1,44.4,30.5,44.6L30.5,44.6z"/>
	<path fill="none" stroke="#FFFFFF" stroke-width="0.6409" d="M30.2,44.9c2.3-4.1,6.5-12.8,12.7-9.4"/>
	<rect x="47.9" y="53.2" fill="#FFFFFF" width="1.3" height="20.2"/>
</g>
<g id="cup">
	<g>
		<polygon fill="#FFFFFF" points="50.3,100 43,100 38.2,71.2 50.3,71.2 		"/>
		<polygon fill="#FFFFFF" points="49.7,100 57,100 61.8,71.2 49.7,71.2 		"/>
	</g>
</g>
<g id="guides">
</g>
</svg>
