<?xml version="1.0" encoding="utf-8"?>
<!-- Generator: Adobe Illustrator 14.0.0, SVG Export Plug-In . SVG Version: 6.00 Build 43363)  -->
<!DOCTYPE svg PUBLIC "-//W3C//DTD SVG 1.1//EN" "http://www.w3.org/Graphics/SVG/1.1/DTD/svg11.dtd">
<svg version="1.1" xmlns="http://www.w3.org/2000/svg" xmlns:xlink="http://www.w3.org/1999/xlink" x="0px" y="0px" width="240px"
	 height="200px" viewBox="0 0 240 200" enable-background="new 0 0 240 200" xml:space="preserve">
<g id="backgroud">
	<rect fill="#07AA07" width="240" height="200"/>
</g>
<g id="Layer_2" display="none">
	<g display="inline">
		<path fill="#FFFFFF" d="M40.4,155.4h-4.9l-0.8-5.6h-6l-0.8,5.6h-4.5l5-31.1h7.2L40.4,155.4z M29.2,145.6H34l-2.3-15.7h-0.1
			L29.2,145.6z"/>
		<path fill="#FFFFFF" d="M47.1,132.9L47.1,132.9L47,155.4h-4.4v-31.1h6.1l4.9,18.6h0.1v-18.6h4.4v31.1h-5L47.1,132.9z"/>
		<path fill="#FFFFFF" d="M60.2,124.3h15.1v4.4h-5.1v26.7h-4.9v-26.7h-5.1V124.3z"/>
		<path fill="#FFFFFF" d="M77.5,124.3h4.9v31.1h-4.9V124.3z"/>
		<path fill="#FFFFFF" d="M85.5,131.8c0-5,2.6-7.8,7.4-7.8c4.8,0,7.4,2.8,7.4,7.8V148c0,5-2.6,7.8-7.4,7.8c-4.8,0-7.4-2.8-7.4-7.8
			V131.8z M90.4,148.3c0,2.2,1,3.1,2.5,3.1c1.6,0,2.5-0.8,2.5-3.1v-16.8c0-2.2-1-3.1-2.5-3.1c-1.6,0-2.5,0.8-2.5,3.1V148.3z"/>
		<path fill="#FFFFFF" d="M119.2,124.3l-5.1,15.1l5.5,16h-5.2l-4-12.3h-0.1l-4,12.3h-4.6l5.5-16l-5.1-15.1h5.1l3.6,11.5h0.1
			l3.7-11.5H119.2z"/>
		<path fill="#FFFFFF" d="M122,124.3h4.9v31.1H122V124.3z"/>
		<path fill="#FFFFFF" d="M130.5,124.3h7.7c4.9,0,7.3,2.7,7.3,7.7v15.7c0,5-2.4,7.7-7.3,7.7h-7.7V124.3z M135.4,128.7V151h2.8
			c1.6,0,2.5-0.8,2.5-3v-16.2c0-2.2-0.9-3-2.5-3H135.4z"/>
		<path fill="#FFFFFF" d="M164.4,155.4h-4.9l-0.8-5.6h-6l-0.8,5.6h-4.5l5-31.1h7.2L164.4,155.4z M153.2,145.6h4.7l-2.3-15.7h-0.1
			L153.2,145.6z"/>
		<path fill="#FFFFFF" d="M171.1,132.9L171.1,132.9l-0.1,22.6h-4.4v-31.1h6.1l4.9,18.6h0.1v-18.6h4.4v31.1h-5L171.1,132.9z"/>
		<path fill="#FFFFFF" d="M184.2,124.3h15.1v4.4h-5.1v26.7h-4.9v-26.7h-5.1V124.3z"/>
		<path fill="#FFFFFF" d="M208.1,123.9c4.8,0,7.2,2.8,7.2,7.8v1h-4.6v-1.3c0-2.2-0.9-3.1-2.4-3.1c-1.6,0-2.4,0.8-2.4,3.1
			c0,2.3,1,4,4.2,6.8c4.1,3.6,5.4,6.2,5.4,9.7c0,5-2.5,7.8-7.3,7.8s-7.3-2.8-7.3-7.8V146h4.6v2.2c0,2.2,1,3,2.5,3
			c1.6,0,2.5-0.8,2.5-3c0-2.3-1-4-4.2-6.8c-4.1-3.6-5.4-6.2-5.4-9.7C200.9,126.8,203.3,123.9,208.1,123.9z"/>
	</g>
	<g display="inline">
		<path fill="#FFFFFF" d="M33.1,113.1h-10V49.8h10v27.2h11.3V49.8h10.1v63.4H44.4V86H33.1V113.1z"/>
		<path fill="#FFFFFF" d="M61.8,49.8h10v63.4h-10V49.8z"/>
		<path fill="#FFFFFF" d="M93.9,77.8h13.9v20.1c0,10.1-5.1,15.9-14.8,15.9c-9.8,0-14.8-5.8-14.8-15.9V65C78.1,54.8,83.2,49,93,49
			c9.8,0,14.8,5.8,14.8,15.9v6.2h-9.4v-6.8c0-4.5-2-6.2-5.2-6.2s-5.2,1.7-5.2,6.2v34.2c0,4.5,2,6.2,5.2,6.2s5.2-1.6,5.2-6.2V86.9
			h-4.5V77.8z"/>
		<path fill="#FFFFFF" d="M124.2,113.1h-10V49.8h10v27.2h11.3V49.8h10.1v63.4h-10.1V86h-11.3V113.1z"/>
		<path fill="#FFFFFF" d="M166.9,49.8h10v63.4h-10V49.8z"/>
		<path fill="#FFFFFF" d="M193.2,67.2H193v45.9h-9V49.8h12.5l10,37.9h0.2V49.8h8.9v63.4h-10.2L193.2,67.2z"/>
	</g>
</g>
<g id="Layer_3">
	<g>
		<polygon fill="#FFFFFF" points="166.9,35.9 174.2,48.4 129.8,85.1 117.4,64.7 		"/>
		<polygon fill="#FFFFFF" points="167.7,37.2 160.5,24.8 106.6,45.1 118.2,66 		"/>
	</g>
	
		<rect x="88.4" y="61.6" transform="matrix(-0.5023 -0.8647 0.8647 -0.5023 113.4884 199.7676)" fill="#FFFFFF" width="51.8" height="11.2"/>
	<path fill="#FFFFFF" d="M98.2,47.7c2.5-1.4,5.7-0.5,7.2,2l19.8,34c1.5,2.6,0.7,5.8-1.8,7.2l0,0c-2.5,1.4-5.7,0.5-7.2-2l-19.8-34
		C95,52.3,95.8,49.1,98.2,47.7L98.2,47.7z"/>
	
		<rect x="103.1" y="80.8" transform="matrix(-0.5024 -0.8647 0.8647 -0.5024 92.407 223.5141)" fill="#FFFFFF" width="14.9" height="8.7"/>
	<path fill="#FFFFFF" d="M76.2,73.2c0.7,0.4,1,1.3,0.6,2l-8,14.3c-0.4,0.7-1.3,1-2,0.6l0,0c-0.7-0.4-1-1.3-0.6-2l8-14.3
		C74.6,73,75.5,72.8,76.2,73.2L76.2,73.2z"/>
	<path fill="none" stroke="#FFFFFF" stroke-width="1.1807" d="M75.7,73.6C80,66,87.7,50,99.1,56.4"/>
	<rect x="108.2" y="89.1" fill="#FFFFFF" width="2.3" height="37.2"/>
	<g>
		<polygon fill="#FFFFFF" points="112.7,175.2 99.3,175.2 90.4,122.1 112.7,122.1 		"/>
		<polygon fill="#FFFFFF" points="111.5,175.2 125,175.2 133.9,122.1 111.5,122.1 		"/>
	</g>
</g>
</svg>
