<?xml version="1.0" encoding="utf-8"?>
<!-- Generator: Adobe Illustrator 16.0.0, SVG Export Plug-In . SVG Version: 6.00 Build 0)  -->
<!DOCTYPE svg PUBLIC "-//W3C//DTD SVG 1.1//EN" "http://www.w3.org/Graphics/SVG/1.1/DTD/svg11.dtd">
<svg version="1.1" id="Layer_1" xmlns="http://www.w3.org/2000/svg" xmlns:xlink="http://www.w3.org/1999/xlink" x="0px" y="0px"
	 width="46.75px" height="30px" viewBox="0 0 46.75 30" enable-background="new 0 0 46.75 30" xml:space="preserve">
<path fill="#FFFFFF" d="M43.466,0H3.461c-1.81,0-3.283,1.473-3.283,3.284V26.63c0,1.812,1.473,3.285,3.284,3.285h40.005
	c1.811,0,3.284-1.476,3.284-3.285V3.284C46.75,1.473,45.277,0,43.466,0z"/>
<path fill="#D9222A" d="M27.402,14.958c0,6.316-5.12,11.437-11.437,11.437S4.529,21.273,4.529,14.958S9.649,3.521,15.966,3.521
	S27.402,8.642,27.402,14.958"/>
<path fill="#EE9F2D" d="M31.319,3.521c-2.955,0-5.647,1.121-7.677,2.96c-0.413,0.375-0.799,0.78-1.155,1.21h2.311
	c0.316,0.385,0.607,0.79,0.872,1.211h-4.054c-0.244,0.39-0.464,0.794-0.659,1.211h5.371c0.186,0.394,0.347,0.798,0.485,1.21h-6.34
	c-0.134,0.397-0.245,0.801-0.333,1.211h7.004c0.172,0.796,0.258,1.607,0.258,2.422c0,1.27-0.207,2.493-0.589,3.632h-6.341
	c0.138,0.412,0.3,0.817,0.485,1.212h5.371c-0.195,0.416-0.415,0.821-0.659,1.211h-4.053c0.264,0.422,0.556,0.826,0.872,1.21h2.311
	c-0.354,0.432-0.741,0.836-1.156,1.212c2.03,1.838,4.722,2.96,7.677,2.96c6.316,0,11.437-5.121,11.437-11.437
	S37.636,3.521,31.319,3.521"/>
<path d="M41.231,21.332c0-0.203,0.166-0.369,0.37-0.369s0.369,0.166,0.369,0.369c0,0.204-0.165,0.37-0.369,0.37
	S41.231,21.536,41.231,21.332L41.231,21.332z M41.602,21.613c0.154,0,0.281-0.126,0.281-0.281c0-0.154-0.126-0.28-0.281-0.28l0,0
	c-0.155,0-0.281,0.124-0.281,0.28l0,0C41.32,21.487,41.446,21.612,41.602,21.613L41.602,21.613L41.602,21.613z M41.552,21.495
	h-0.076v-0.324h0.138c0.028,0,0.058,0,0.082,0.016c0.026,0.018,0.041,0.048,0.041,0.081c0,0.037-0.021,0.07-0.056,0.085l0.06,0.143
	h-0.083l-0.051-0.128h-0.055V21.495L41.552,21.495z M41.552,21.311h0.041c0.016,0,0.033,0.001,0.047-0.006
	c0.012-0.009,0.02-0.024,0.02-0.037s-0.009-0.027-0.019-0.033c-0.014-0.009-0.035-0.007-0.049-0.007h-0.04V21.311L41.552,21.311z
	 M13.295,16.21c-0.13-0.016-0.188-0.02-0.277-0.02c-0.704,0-1.061,0.241-1.061,0.719c0,0.293,0.174,0.48,0.445,0.48
	C12.909,17.39,13.273,16.907,13.295,16.21L13.295,16.21z M14.198,18.312H13.17l0.022-0.488c-0.313,0.386-0.732,0.57-1.301,0.57
	c-0.672,0-1.133-0.525-1.133-1.29c0-1.148,0.803-1.818,2.179-1.818c0.141,0,0.322,0.013,0.506,0.037
	c0.04-0.155,0.049-0.222,0.049-0.306c0-0.313-0.216-0.429-0.796-0.429c-0.607-0.007-1.109,0.144-1.314,0.212
	c0.013-0.078,0.171-1.061,0.171-1.061c0.619-0.182,1.027-0.25,1.486-0.25c1.066,0,1.63,0.479,1.629,1.384
	c0.002,0.242-0.038,0.542-0.101,0.935C14.461,16.49,14.229,17.955,14.198,18.312z M10.238,18.312H8.996l0.711-4.459l-1.588,4.459
	H7.273l-0.104-4.434l-0.748,4.434H5.259l0.972-5.801h1.785l0.108,3.247l1.089-3.247h1.986L10.238,18.312 M32.854,16.21
	c-0.129-0.016-0.188-0.02-0.276-0.02c-0.703,0-1.06,0.241-1.06,0.719c0,0.293,0.174,0.48,0.444,0.48
	C32.468,17.39,32.832,16.907,32.854,16.21L32.854,16.21z M33.758,18.312h-1.029l0.024-0.488c-0.314,0.386-0.733,0.57-1.302,0.57
	c-0.674,0-1.134-0.525-1.134-1.29c0-1.148,0.802-1.818,2.18-1.818c0.141,0,0.32,0.013,0.506,0.037
	c0.038-0.155,0.049-0.222,0.049-0.306c0-0.313-0.217-0.429-0.797-0.429c-0.607-0.007-1.107,0.144-1.315,0.212
	c0.015-0.078,0.174-1.061,0.174-1.061c0.618-0.182,1.026-0.25,1.485-0.25c1.066,0,1.632,0.479,1.63,1.384
	c0.002,0.242-0.038,0.542-0.102,0.935C34.021,16.49,33.789,17.955,33.758,18.312z M19.716,18.24
	c-0.34,0.106-0.604,0.153-0.892,0.153c-0.635,0-0.981-0.364-0.981-1.037c-0.009-0.208,0.092-0.757,0.17-1.257
	c0.071-0.441,0.538-3.22,0.538-3.22h1.234l-0.144,0.714h0.745l-0.168,1.133H19.47c-0.144,0.897-0.347,2.015-0.35,2.163
	c0,0.244,0.13,0.35,0.425,0.35c0.142,0,0.251-0.014,0.334-0.045L19.716,18.24 M23.5,18.202c-0.424,0.129-0.833,0.191-1.267,0.191
	c-1.382-0.002-2.102-0.724-2.102-2.104c0-1.613,0.916-2.8,2.159-2.8c1.019,0,1.668,0.665,1.668,1.707
	c0,0.346-0.045,0.684-0.152,1.161h-2.458c-0.083,0.685,0.354,0.969,1.072,0.969c0.442,0,0.84-0.09,1.284-0.297L23.5,18.202
	L23.5,18.202z M22.806,15.405c0.006-0.099,0.131-0.842-0.575-0.842c-0.393,0-0.673,0.3-0.788,0.842H22.806z M14.943,15.085
	c0,0.597,0.289,1.008,0.946,1.317c0.502,0.236,0.58,0.307,0.58,0.521c0,0.293-0.222,0.427-0.713,0.427
	c-0.37,0-0.715-0.059-1.112-0.187c0,0-0.163,1.039-0.171,1.09c0.283,0.062,0.535,0.118,1.292,0.14c1.31,0,1.915-0.499,1.915-1.578
	c0-0.647-0.253-1.027-0.875-1.313c-0.52-0.239-0.58-0.292-0.58-0.513c0-0.255,0.207-0.385,0.608-0.385
	c0.244,0,0.576,0.026,0.892,0.071l0.177-1.094c-0.321-0.051-0.808-0.092-1.092-0.092C15.419,13.489,14.938,14.214,14.943,15.085
	 M29.539,13.613c0.344,0,0.666,0.09,1.108,0.313l0.203-1.259c-0.182-0.072-0.821-0.491-1.364-0.491
	c-0.831,0-1.533,0.412-2.027,1.092c-0.721-0.239-1.018,0.244-1.38,0.724l-0.322,0.075c0.024-0.158,0.046-0.315,0.039-0.474h-1.142
	c-0.154,1.459-0.432,2.939-0.647,4.401l-0.056,0.316h1.241c0.208-1.347,0.322-2.209,0.391-2.792l0.468-0.261
	c0.069-0.26,0.288-0.348,0.728-0.337c-0.06,0.319-0.089,0.643-0.088,0.967c0,1.544,0.833,2.505,2.169,2.505
	c0.344,0,0.64-0.046,1.097-0.17l0.219-1.322c-0.412,0.202-0.749,0.297-1.055,0.297c-0.722,0-1.159-0.531-1.159-1.412
	C27.961,14.508,28.611,13.613,29.539,13.613"/>
<path fill="#FFFFFF" d="M10.595,17.967H9.354l0.712-4.458l-1.588,4.458H7.63l-0.104-4.433l-0.748,4.433H5.616l0.971-5.8h1.785
	l0.05,3.591l1.204-3.591h1.928L10.595,17.967"/>
<path d="M40.05,12.511l-0.275,1.676c-0.34-0.447-0.705-0.77-1.186-0.77c-0.626,0-1.197,0.475-1.57,1.174
	c-0.52-0.108-1.058-0.291-1.058-0.291v0.004c0.042-0.391,0.059-0.629,0.056-0.71h-1.142c-0.154,1.459-0.431,2.939-0.646,4.401
	l-0.058,0.316h1.242c0.169-1.089,0.297-1.993,0.392-2.71c0.424-0.384,0.636-0.718,1.064-0.696c-0.189,0.459-0.301,0.988-0.301,1.531
	c0,1.179,0.597,1.957,1.5,1.957c0.454,0,0.804-0.157,1.145-0.521l-0.059,0.438h1.175l0.944-5.801H40.05L40.05,12.511z
	 M38.497,17.222c-0.423,0-0.636-0.313-0.636-0.93c0-0.927,0.399-1.585,0.963-1.585c0.426,0,0.657,0.325,0.657,0.924
	C39.481,16.566,39.075,17.222,38.497,17.222L38.497,17.222z"/>
<path fill="#FFFFFF" d="M13.653,15.866c-0.13-0.016-0.188-0.02-0.277-0.02c-0.704,0-1.061,0.241-1.061,0.718
	c0,0.293,0.174,0.48,0.445,0.48C13.267,17.045,13.631,16.564,13.653,15.866z M14.555,17.967h-1.028l0.022-0.487
	c-0.313,0.385-0.732,0.569-1.3,0.569c-0.673,0-1.134-0.525-1.134-1.288c0-1.149,0.802-1.819,2.18-1.819
	c0.14,0,0.321,0.013,0.505,0.037c0.039-0.156,0.048-0.223,0.048-0.307c0-0.313-0.215-0.428-0.795-0.428
	c-0.607-0.007-1.108,0.145-1.314,0.211c0.013-0.078,0.171-1.06,0.171-1.06c0.619-0.182,1.027-0.25,1.486-0.25
	c1.066,0,1.631,0.479,1.63,1.383c0.001,0.244-0.04,0.542-0.102,0.935C14.818,16.146,14.586,17.611,14.555,17.967L14.555,17.967z
	 M31.208,12.323l-0.203,1.259c-0.442-0.223-0.765-0.313-1.108-0.313c-0.928,0-1.578,0.896-1.578,2.173
	c0,0.88,0.438,1.414,1.159,1.414c0.306,0,0.643-0.096,1.055-0.298l-0.219,1.322c-0.457,0.123-0.752,0.169-1.097,0.169
	c-1.337,0-2.169-0.96-2.169-2.504c0-2.074,1.15-3.523,2.796-3.523C30.386,12.021,31.026,12.251,31.208,12.323 M33.212,15.866
	c-0.13-0.016-0.188-0.02-0.277-0.02c-0.703,0-1.06,0.241-1.06,0.718c0,0.293,0.174,0.48,0.445,0.48
	C32.826,17.045,33.189,16.564,33.212,15.866L33.212,15.866z M34.114,17.967h-1.028l0.023-0.487
	c-0.313,0.385-0.732,0.569-1.301,0.569c-0.674,0-1.135-0.525-1.135-1.288c0-1.149,0.802-1.819,2.18-1.819
	c0.141,0,0.321,0.013,0.506,0.037c0.038-0.156,0.049-0.223,0.049-0.307c0-0.313-0.216-0.428-0.796-0.428
	c-0.607-0.007-1.107,0.145-1.314,0.211c0.014-0.078,0.173-1.06,0.173-1.06c0.618-0.182,1.026-0.25,1.485-0.25
	c1.065,0,1.632,0.479,1.63,1.383c0.002,0.244-0.038,0.542-0.102,0.935C34.378,16.146,34.146,17.611,34.114,17.967L34.114,17.967z
	 M20.073,17.896c-0.34,0.107-0.604,0.153-0.892,0.153c-0.635,0-0.981-0.364-0.981-1.035c-0.008-0.21,0.092-0.758,0.17-1.258
	c0.071-0.442,0.538-3.22,0.538-3.22h1.234l-0.144,0.714h0.633l-0.168,1.133h-0.636c-0.143,0.898-0.348,2.015-0.35,2.163
	c0,0.244,0.13,0.351,0.425,0.351c0.141,0,0.251-0.015,0.334-0.044L20.073,17.896 M23.857,17.858
	c-0.424,0.129-0.834,0.191-1.267,0.19c-1.382-0.001-2.102-0.722-2.102-2.104c0-1.614,0.916-2.801,2.159-2.801
	c1.019,0,1.668,0.665,1.668,1.708c0,0.346-0.045,0.683-0.152,1.161h-2.458c-0.083,0.684,0.355,0.97,1.073,0.97
	c0.441,0,0.839-0.092,1.283-0.299L23.857,17.858L23.857,17.858z M23.164,15.061c0.007-0.098,0.131-0.842-0.575-0.842
	c-0.393,0-0.673,0.301-0.788,0.842H23.164L23.164,15.061z M15.3,14.742c0,0.597,0.289,1.008,0.946,1.317
	c0.502,0.236,0.58,0.307,0.58,0.521c0,0.294-0.222,0.427-0.713,0.427c-0.371,0-0.716-0.058-1.112-0.186c0,0-0.163,1.04-0.171,1.09
	c0.282,0.062,0.534,0.117,1.292,0.139c1.31,0,1.915-0.498,1.915-1.576c0-0.648-0.253-1.029-0.875-1.315
	c-0.521-0.24-0.58-0.292-0.58-0.512c0-0.255,0.207-0.386,0.608-0.386c0.243,0,0.576,0.026,0.893,0.072l0.176-1.095
	c-0.321-0.051-0.808-0.092-1.092-0.092C15.776,13.145,15.296,13.87,15.3,14.742 M40.686,17.967h-1.174l0.059-0.438
	c-0.341,0.364-0.69,0.521-1.145,0.521c-0.903,0-1.5-0.777-1.5-1.957c0-1.57,0.925-2.892,2.021-2.892
	c0.481,0,0.846,0.197,1.185,0.644l0.276-1.676h1.224L40.686,17.967L40.686,17.967z M38.854,16.878c0.578,0,0.984-0.655,0.984-1.59
	c0-0.599-0.231-0.925-0.658-0.925c-0.563,0-0.962,0.658-0.962,1.585C38.219,16.564,38.432,16.878,38.854,16.878L38.854,16.878z
	 M35.233,13.25c-0.155,1.459-0.432,2.939-0.647,4.4l-0.058,0.316h1.242c0.444-2.884,0.552-3.447,1.248-3.377
	c0.111-0.59,0.317-1.107,0.472-1.368c-0.521-0.108-0.811,0.186-1.19,0.744c0.03-0.241,0.085-0.476,0.074-0.715H35.233 M25.013,13.25
	c-0.156,1.459-0.433,2.939-0.647,4.4l-0.057,0.316h1.241c0.445-2.884,0.552-3.447,1.248-3.377c0.111-0.59,0.317-1.107,0.471-1.368
	c-0.519-0.108-0.811,0.186-1.189,0.744c0.03-0.241,0.084-0.476,0.074-0.715H25.013 M41.231,17.599c0-0.206,0.165-0.37,0.369-0.37
	s0.37,0.164,0.37,0.368c0,0.001,0,0.001,0,0.002c0,0.203-0.166,0.368-0.37,0.368S41.231,17.802,41.231,17.599L41.231,17.599z
	 M41.601,17.879c0.155,0,0.281-0.126,0.281-0.28l0,0c0-0.156-0.126-0.281-0.28-0.281c0,0,0,0-0.001,0
	c-0.154,0-0.281,0.125-0.281,0.281C41.32,17.753,41.446,17.879,41.601,17.879z M41.551,17.76h-0.076v-0.324h0.138
	c0.028,0,0.058,0.001,0.082,0.017c0.026,0.018,0.042,0.049,0.042,0.08c0,0.038-0.021,0.071-0.057,0.084l0.06,0.144h-0.083
	l-0.051-0.129h-0.055V17.76L41.551,17.76z M41.551,17.576h0.042c0.016,0,0.032,0.001,0.046-0.007c0.013-0.008,0.02-0.022,0.02-0.037
	c-0.001-0.013-0.008-0.025-0.019-0.033c-0.014-0.007-0.035-0.005-0.049-0.005h-0.04V17.576L41.551,17.576L41.551,17.576z"/>
</svg>
