<?xml version="1.0" encoding="utf-8"?>
<!-- Generator: Adobe Illustrator 14.0.0, SVG Export Plug-In . SVG Version: 6.00 Build 43363)  -->
<!DOCTYPE svg PUBLIC "-//W3C//DTD SVG 1.1//EN" "http://www.w3.org/Graphics/SVG/1.1/DTD/svg11.dtd">
<svg version="1.1" id="Layer_1" xmlns="http://www.w3.org/2000/svg" xmlns:xlink="http://www.w3.org/1999/xlink" x="0px" y="0px"
	 width="130px" height="80px" viewBox="0 0 130 80" enable-background="new 0 0 130 80" xml:space="preserve">
<g>
	<g>
		<path fill="#07AA07" d="M0,49.6V35.5h2.8l0.4,2c1.3-1.4,2.8-2,4.6-2s3,0.6,3.7,1.9c1.4-1.3,3-1.9,4.5-1.9c3.3,0,4.9,1.8,4.9,5.4
			v8.8h-3.6v-8.9c0-1.6-0.7-2.4-2.1-2.4c-1.1,0-2.1,0.5-3.1,1.4v9.8H8.5v-8.9c0-1.6-0.7-2.4-2-2.4c-1,0-2,0.5-3,1.4v9.8H0z"/>
		<path fill="#07AA07" d="M22.4,45.2c0-2.8,2-4.2,6.1-4.2c1,0,1.9,0.1,2.9,0.3v-1.1c0-1.3-0.9-1.9-2.7-1.9c-1.5,0-3.3,0.2-5.1,0.7
			v-2.8c1.9-0.4,3.6-0.7,5.1-0.7c4.2,0,6.3,1.6,6.3,4.7v9.5H33l-1.3-1.3c-1.2,0.8-2.6,1.3-4.1,1.3C24.2,49.6,22.4,48.2,22.4,45.2z
			 M28.6,43.4c-1.7,0-2.6,0.6-2.6,1.8c0,1.3,0.7,1.9,2.2,1.9c1.2,0,2.3-0.4,3.3-1.1v-2.3C30.6,43.5,29.6,43.4,28.6,43.4z"/>
		<path fill="#07AA07" d="M37.1,33.2h2.6l0.5,2.3h3.6v2.8h-3.2v6.5c0,1.3,0.6,2,1.7,2h1.5v2.8h-3.2c-2.4,0-3.6-1.3-3.6-3.8V33.2z"/>
		<path fill="#07AA07" d="M55.6,49.2c-1.2,0.3-2.4,0.4-3.6,0.4c-5,0-7.6-2.5-7.6-7.3c0-4.5,2.5-6.8,7.6-6.8c1.3,0,2.5,0.1,3.6,0.4
			v2.8c-1.2-0.3-2.3-0.4-3.4-0.4c-2.8,0-4.2,1.3-4.2,4c0,3,1.4,4.5,4.2,4.5c1.1,0,2.2-0.1,3.4-0.4V49.2z"/>
		<path fill="#07AA07" d="M56.9,49.6V30.4h3.6v6.9c1.1-1.2,2.5-1.8,4.3-1.8c3.4,0,5,1.7,5,5.2v8.9h-3.6v-8.9c0-1.6-0.8-2.3-2.3-2.3
			c-1.2,0-2.3,0.5-3.4,1.4v9.9H56.9z"/>
		<path fill="#07AA07" d="M71.3,45.2c0-2.8,2-4.2,6.1-4.2c1,0,1.9,0.1,2.9,0.3v-1.1c0-1.3-0.9-1.9-2.7-1.9c-1.5,0-3.3,0.2-5.2,0.7
			v-2.8c1.9-0.4,3.6-0.7,5.2-0.7c4.2,0,6.3,1.6,6.3,4.7v9.5h-2.1l-1.3-1.3c-1.2,0.8-2.6,1.3-4.1,1.3C73.1,49.6,71.3,48.2,71.3,45.2z
			 M77.5,43.4c-1.7,0-2.6,0.6-2.6,1.8c0,1.3,0.7,1.9,2.2,1.9c1.2,0,2.3-0.4,3.3-1.1v-2.3C79.5,43.5,78.5,43.4,77.5,43.4z"/>
	</g>
</g>
<g>
	<path fill="#4D4D4D" d="M89,35.5v11.7h5.5v2.2h-8.1V35.5H89z"/>
	<path fill="#4D4D4D" d="M105,35.5v2.2h-7v3.5h6.6v2.3H98v3.7h7.1v2.2h-9.7V35.5H105z"/>
	<path fill="#4D4D4D" d="M115,35.5v2.2h-4v11.7h-2.6V37.7h-4v-2.2H115z"/>
	<path fill="#4D4D4D" d="M117.5,35.5v13.9h-2.6V35.5H117.5z"/>
	<path fill="#4D4D4D" d="M130,48.8c-1.2,0.5-2.6,0.7-4.1,0.7c-5,0-7.5-2.4-7.5-7.3c0-4.6,2.5-6.9,7.5-6.9c1.5,0,2.9,0.2,4.1,0.7v2.3
		c-1.2-0.5-2.5-0.8-3.9-0.8c-3.3,0-5,1.5-5,4.6c0,3.3,1.7,5,5,5c1.4,0,2.7-0.3,3.9-0.8V48.8z"/>
</g>
</svg>
