<?xml version="1.0" encoding="utf-8"?>
<!-- Generator: Adobe Illustrator 14.0.0, SVG Export Plug-In . SVG Version: 6.00 Build 43363)  -->
<!DOCTYPE svg PUBLIC "-//W3C//DTD SVG 1.1//EN" "http://www.w3.org/Graphics/SVG/1.1/DTD/svg11.dtd">
<svg version="1.1" xmlns="http://www.w3.org/2000/svg" xmlns:xlink="http://www.w3.org/1999/xlink" x="0px" y="0px" width="240px"
	 height="200px" viewBox="0 0 240 200" enable-background="new 0 0 240 200" xml:space="preserve">
<g id="backgroud">
	<rect fill="#07AA07" width="240" height="200"/>
</g>
<g id="Layer_2">
	<path fill="#FFFFFF" d="M70,149.4c0,5.2-4.3,9.5-9.5,9.5l0,0c-5.2,0-9.5-4.3-9.5-9.5V51.6c0-5.2,4.3-9.5,9.5-9.5l0,0
		c5.2,0,9.5,4.3,9.5,9.5V149.4z"/>
	<path fill="#FFFFFF" d="M43.5,137.7c0,4-3.2,7.2-7.2,7.2l0,0c-4,0-7.2-3.2-7.2-7.2V63.3c0-4,3.2-7.2,7.2-7.2l0,0
		c4,0,7.2,3.2,7.2,7.2V137.7z"/>
	<path fill="#FFFFFF" d="M19.3,117.5c0,1.9-1.8,3.4-4.1,3.4l0,0c-2.3,0-4.1-1.5-4.1-3.4V82.5c0-1.9,1.8-3.4,4.1-3.4l0,0
		c2.3,0,4.1,1.5,4.1,3.4V117.5z"/>
	<path fill="#FFFFFF" d="M228.3,117.5c0,1.9-1.8,3.4-4.1,3.4l0,0c-2.3,0-4.1-1.5-4.1-3.4V82.5c0-1.9,1.8-3.4,4.1-3.4l0,0
		c2.3,0,4.1,1.5,4.1,3.4V117.5z"/>
	<path fill="#FFFFFF" d="M72.3,109.5c-5.7,0-10.2-4.3-10.2-9.5l0,0c0-5.2,4.6-9.5,10.2-9.5h105.5c5.7,0,10.2,4.3,10.2,9.5l0,0
		c0,5.2-4.6,9.5-10.2,9.5H72.3z"/>
	<path fill="#FFFFFF" d="M169,51c0-5.2,4.3-9.5,9.5-9.5l0,0c5.2,0,9.5,4.3,9.5,9.5v97.9c0,5.2-4.3,9.5-9.5,9.5l0,0
		c-5.2,0-9.5-4.3-9.5-9.5V51z"/>
	<path fill="#FFFFFF" d="M195.5,62.8c0-4,3.2-7.2,7.2-7.2l0,0c4,0,7.2,3.2,7.2,7.2v74.3c0,4-3.2,7.2-7.2,7.2l0,0
		c-4,0-7.2-3.2-7.2-7.2V62.8z"/>
	<path fill="#FFFFFF" d="M166.7,91c5.7,0,10.2,4.3,10.2,9.5l0,0c0,5.2-4.6,9.5-10.2,9.5H61.2c-5.7,0-10.2-4.3-10.2-9.5l0,0
		c0-5.2,4.6-9.5,10.2-9.5H166.7z"/>
</g>
</svg>
