<?xml version="1.0" encoding="utf-8"?>
<!-- Generator: Adobe Illustrator 14.0.0, SVG Export Plug-In . SVG Version: 6.00 Build 43363)  -->
<!DOCTYPE svg PUBLIC "-//W3C//DTD SVG 1.1//EN" "http://www.w3.org/Graphics/SVG/1.1/DTD/svg11.dtd">
<svg version="1.1" xmlns="http://www.w3.org/2000/svg" xmlns:xlink="http://www.w3.org/1999/xlink" x="0px" y="0px" width="240px"
	 height="200px" viewBox="0 0 240 200" enable-background="new 0 0 240 200" xml:space="preserve">
<g id="backgroud">
	<rect fill="#07AA07" width="240" height="200"/>
</g>
<g id="overnight_oats">
	<path fill="#FFFFFF" d="M203.6,74.8c0,46.2-37.5,83.7-83.7,83.7S36.3,121,36.3,74.8H203.6z"/>
	<rect x="99.1" y="154.5" fill="#FFFFFF" width="41.8" height="7.9"/>
	<g id="XMLID_35_">
		<g>
			<path fill="#FFFFFF" d="M111.6,68.3c14.5,0,28.3,0.4,42,1.2c16.7-0.4,33.3-0.8,50-1.2c-3.6-0.8-7.2-1.2-10.1-2.4
				c-1.4-0.8-2.9-1.6-4.3-2c-6.5-2-15.2,1.2-22.5,0c-7.2-1.2-9.4-6-16.7-7.6c-2.9-0.8-6.5-0.8-8.7-1.6c-2.9-0.8-5.1-2.4-7.2-3.6
				c-2.9-1.2-7.2-1.2-10.9-1.2c-1.4,0-2.9,0-4.3-0.4c-1.5-0.4-2.2-0.8-3.6-1.2c-0.7-0.4-0.7-0.4-1.5-0.4c-0.7,0-0.7,0-1.4,0
				c-2.9,0-5.8,0-8,0.8c-2.9,0.4-5.1,1.2-8,2c-2.9,0.8-2.9,0.8-3.6,2.4c-1.4,1.6-6.5,2.4-9.4,3.2c-8.7,1.6-16.7,4.4-23.2,7.6
				l2.9-0.8c-1.5,0.4-2.2,0.8-3.6,1.6c-1.4,0.8-2.9,1.6-5.1,2.4c-1.4-1.2-3.6-1.2-5.1-0.4c-2.2,0.4-5.1,0.8-7.2,1.6
				c-0.7,0-0.7,0.4-1.5,0.4c13,0,26.8,0.4,40.6,0.8C91.4,68.7,101.5,67.9,111.6,68.3z"/>
		</g>
	</g>
	<path fill="#FFFFFF" d="M222.5,40.7c0.6,1.5-0.7,3.5-3,4.5l-53.8,22.9l-11.2-1.7l62.7-26.6C219.5,38.8,221.8,39.2,222.5,40.7
		L222.5,40.7z"/>
</g>
</svg>
