<?xml version="1.0" encoding="utf-8"?>
<!-- Generator: Adobe Illustrator 14.0.0, SVG Export Plug-In . SVG Version: 6.00 Build 43363)  -->
<!DOCTYPE svg PUBLIC "-//W3C//DTD SVG 1.1//EN" "http://www.w3.org/Graphics/SVG/1.1/DTD/svg11.dtd">
<svg version="1.1" xmlns="http://www.w3.org/2000/svg" xmlns:xlink="http://www.w3.org/1999/xlink" x="0px" y="0px" width="100px"
	 height="100px" viewBox="0 0 100 100" enable-background="new 0 0 100 100" xml:space="preserve">
<g id="Layer_1">
</g>
<g id="Layer_2">
	<g>
		<polygon fill="#FFFFFF" points="51,100 36.3,100 26.7,42.3 51,41.8 		"/>
		<polygon fill="#FFFFFF" points="49.4,100 64,100 73.7,42.3 49.4,41.8 		"/>
	</g>
	<rect x="24.1" y="32.1" fill="#FFFFFF" width="52.5" height="11.4"/>
	<path fill="#FFFFFF" d="M75.7,33.7c0,2.9-2.4,5.2-5.4,5.2H30.3c-3,0-5.4-2.3-5.4-5.2l0,0c0-2.9,2.4-5.2,5.4-5.2h39.9
		C73.3,28.4,75.7,30.8,75.7,33.7L75.7,33.7z"/>
	<rect x="28.9" y="20.9" fill="#FFFFFF" width="15.1" height="8.8"/>
	<path fill="#FFFFFF" d="M45.6,20.2c0,0.8-0.7,1.5-1.5,1.5H27.4c-0.8,0-1.5-0.7-1.5-1.5l0,0c0-0.8,0.7-1.5,1.5-1.5h16.7
		C44.9,18.7,45.6,19.4,45.6,20.2L45.6,20.2z"/>
	<path fill="none" stroke="#FFFFFF" stroke-width="1.1987" d="M44.9,20c8.9,0,26.9-1.2,26.9,12.2"/>
</g>
<g id="guides">
</g>
</svg>
