<?xml version="1.0" encoding="utf-8"?>
<!-- Generator: Adobe Illustrator 14.0.0, SVG Export Plug-In . SVG Version: 6.00 Build 43363)  -->
<!DOCTYPE svg PUBLIC "-//W3C//DTD SVG 1.1//EN" "http://www.w3.org/Graphics/SVG/1.1/DTD/svg11.dtd">
<svg version="1.1" xmlns="http://www.w3.org/2000/svg" xmlns:xlink="http://www.w3.org/1999/xlink" x="0px" y="0px" width="240px"
	 height="200px" viewBox="0 0 240 200" enable-background="new 0 0 240 200" xml:space="preserve">
<g id="backgroud">
	<rect fill="#07AA07" width="240" height="200"/>
</g>
<g id="Layer_3">
	<g>
		<polygon fill="#FFFFFF" points="60.8,174.3 38.4,174.3 23.6,86.1 60.8,86 		"/>
		<polygon fill="#FFFFFF" points="58.8,174.3 81.1,174.3 95.9,86.1 58.8,86 		"/>
	</g>
	<g>
		<polygon fill="#FFFFFF" points="169.6,174.3 142.5,174.3 124.6,67.3 169.6,66.3 		"/>
		<polygon fill="#FFFFFF" points="166.7,174.3 193.9,174.3 211.8,67.3 166.7,66.3 		"/>
	</g>
	<rect x="119.7" y="48.2" fill="#FFFFFF" width="97.5" height="21.1"/>
	<path fill="#FFFFFF" d="M215.5,51.2c0,5.4-4.5,9.7-10.1,9.7h-74.1c-5.6,0-10.1-4.4-10.1-9.7l0,0c0-5.4,4.5-9.7,10.1-9.7h74.1
		C211,41.4,215.5,45.8,215.5,51.2L215.5,51.2z"/>
	<rect x="128.7" y="27.5" fill="#FFFFFF" width="28.1" height="16.4"/>
	<path fill="#FFFFFF" d="M159.6,26.1c0,1.5-1.2,2.8-2.8,2.8h-30.9c-1.5,0-2.8-1.2-2.8-2.8l0,0c0-1.5,1.2-2.8,2.8-2.8h30.9
		C158.4,23.4,159.6,24.6,159.6,26.1L159.6,26.1z"/>
	<path fill="none" stroke="#FFFFFF" stroke-width="2.2249" d="M158.4,25.8c16.5,0,49.9-2.2,49.9,22.6"/>
	<path fill="#FFFFFF" d="M67.7,168.9c0.3,1.5-0.6,3.1-2.2,3.4l0,0c-1.5,0.3-3.1-0.6-3.4-2.2L30,26.9c-0.3-1.5,0.6-3.1,2.2-3.4l0,0
		c1.6-0.3,3.1,0.6,3.4,2.2L67.7,168.9z"/>
</g>
</svg>
