<?xml version="1.0" encoding="utf-8"?>
<!-- Generator: Adobe Illustrator 14.0.0, SVG Export Plug-In . SVG Version: 6.00 Build 43363)  -->
<!DOCTYPE svg PUBLIC "-//W3C//DTD SVG 1.1//EN" "http://www.w3.org/Graphics/SVG/1.1/DTD/svg11.dtd">
<svg version="1.1" xmlns="http://www.w3.org/2000/svg" xmlns:xlink="http://www.w3.org/1999/xlink" x="0px" y="0px" width="840px"
	 height="274px" viewBox="0 0 840 274" enable-background="new 0 0 840 274" xml:space="preserve">
<g id="shadows">
</g>
<g id="guides">
	<rect x="-107" y="-132" fill="#FF00FF" width="3.3" height="0"/>
</g>
<g id="Layer_4">
	<g>
		<path fill="#848484" d="M182.9,149.8l-121.7,42c0,0-20.9,18.4,7.1,25.8l43.1-14.4l83.5-27.8L182.9,149.8z"/>
		<path fill="#848484" d="M163.6,96.9l182.7-61.1c0,0,28.3-12.8,41.8,22c0,0,9.8,18.5,10.6,27.4c0.6,7.2,4.7,5.2-7.8,13.3
			c-3.5,2.3-9.9,5.9-11.5,10.7c-1.7,5.1,1.4,11.4,0.8,15.5c-1.3,8.8,5.4,15.6,1.7,20.7L211.1,218c0,0-4.9-18.4-25-50.2
			c0,0-10.9-8.9-9.8-35.3C176.3,132.5,170.7,122.4,163.6,96.9"/>
	</g>
	<g>
		<path fill="#848484" d="M643.8,135.5l120.4,42.7c0,0,27.6-1.5,10.4-24.6l-42.3-15.5l-82-30.1L643.8,135.5z"/>
		<path fill="#848484" d="M626.1,189l-179.6-65.6c0,0-29.9-7.6-18.9-43.2c0,0,3.8-20.6,8.7-28.1c4-6-0.4-6.9,14.3-5.6
			c4.1,0.4,11.3,1.5,15.5-1.3c4.4-2.9,5.9-9.8,8.9-12.6c6.5-6.1,5.4-15.6,11.5-17.3l177.4,49.3c0,0-7.6,17.5-11.6,54.9
			c0,0,2.9,13.8-14.2,33.8C638.2,153.3,636.3,164.6,626.1,189"/>
	</g>
	<g>
		<g>
			<line fill="#464646" x1="319.8" y1="298.2" x2="313" y2="297.6"/>
			<line fill="#464646" x1="110.8" y1="372.4" x2="113.7" y2="378.7"/>
		</g>
	</g>
</g>
<g id="lollies">
	<path fill="#2BBA2B" d="M701.3,160.3c-3.4,2.6-8.2,2.1-10.8-1.2c-2.6-3.3-1.9-8.1,1.5-10.8c3.4-2.6,8.2-2.1,10.8,1.2
		C705.3,152.8,704.7,157.6,701.3,160.3"/>
	
		<ellipse transform="matrix(0.614 0.7893 -0.7893 0.614 390.6632 -490.306)" fill="none" stroke="#0E9247" stroke-width="0.3894" stroke-miterlimit="10" cx="696.6" cy="154.3" rx="7.6" ry="7.8"/>
	<path fill="#0B8040" d="M693,152.1c0.5-0.8,1.1-1.6,1.7-2.3c0.1-0.2,0.3-0.3,0.5-0.4c0.3-0.1,0.5,0.1,0.8,0.2
		c0.8,0.5,1.7,0.8,2.6,1.1c0.6,0.1,1.2,0.2,1.7,0.6c0.5,0.4,0.7,1.2,0.2,1.6c-0.1,0.1-0.3,0.2-0.5,0.3c-1.3,0.4-2.6,0.5-3.9,0.4
		C694.9,153.5,693.7,153.1,693,152.1"/>
	<path fill="#0B8040" d="M695.4,160.3c-0.3-0.6-0.5-1.3-0.6-1.9c0-0.1-0.1-0.3,0-0.4c0.1-0.2,0.4-0.2,0.7-0.3
		c0.8-0.2,1.6-0.5,2.3-0.8c0.5-0.2,0.9-0.5,1.5-0.6c0.6-0.1,1.3,0.2,1.3,0.6c0,0.1-0.1,0.3-0.1,0.4c-0.5,0.8-1.2,1.6-2.1,2.2
		C697.5,160,696.5,160.4,695.4,160.3"/>
	<path fill="#F2F2F2" d="M700.3,147.5c-1.8-0.2-3.4,1-5.2,0.8c-0.5-0.1-1-0.2-1.5-0.2c-0.8,0-1.6,0.4-2,1.1c0.1-1.2,1.5-2,2.7-2.3
		c2-0.5,4.3-0.2,6.1,0.7"/>
	<path fill="#0E9247" d="M704.4,154c-0.5,0.8-0.8,1.6-1,2.5c-0.1,0.4-0.1,0.8-0.3,1.1c-0.1,0.3-0.4,0.5-0.6,0.7
		c-1.1,1-2.1,1.9-3.2,2.9c-0.4-0.5-1.2-0.5-1.8-0.4c-0.6,0.1-1.3,0.3-1.9,0.3c-0.5,0-0.9-0.2-1.4-0.3c-1.6-0.6-3.3-1.3-4.2-2.8
		c0.2,1,1,1.8,1.8,2.4c0.8,0.6,1.7,0.9,2.7,1.2c1,0.3,2,0.6,3.1,0.4c1.4-0.2,2.5-1.1,3.6-2c0.8-0.7,1.7-1.4,2.2-2.3
		c0.7-1.2,1-2.5,1.2-3.9"/>
	<path fill="#262261" d="M699.9,147.3c0,0.5,0.3,0.9,0.7,1.2c0.4,0.3,0.8,0.6,1.1,0.9c0.8,0.7,1.2,1.6,1.7,2.5
		c0.1,0.1,0.2,0.3,0.4,0.2c0.1-0.1,0.1-0.3,0-0.4c-0.3-0.8-0.6-1.6-1.1-2.3c-0.5-0.7-1.1-1.4-1.9-1.7c-0.3-0.1-0.6-0.2-0.9-0.2"/>
	<path fill="#0E9247" d="M691.3,148.9c0.1,0.3,0.1,0.7,0,1c-0.1,0.3-0.3,0.6-0.5,0.9c-0.3,0.4-0.7,0.9-1,1.4c0,0-0.1,0.1-0.1,0.1
		c-0.2,0.3-0.4,0.6-0.4,0.9c0,0.2,0.2,0.4,0.2,0.6c0,0.3-0.2,0.5-0.3,0.7c-0.2,0.5,0.2,1,0.4,1.5c0.2,0.4,0.4,0.9,0.5,1.4
		c0.1,0.2,0.1,0.5-0.1,0.6c-0.8-1.1-0.9-2.5-1-3.9c0-0.3,0-0.6,0-0.9c0.1-0.5,0.3-1,0.5-1.4c0.5-1.1,1.1-2.2,2-2.9"/>
	<path fill="#73C175" d="M682.8,190.3c7.1,6.6,7.6,17.6,1.1,24.5c-6.5,6.9-17.4,7.1-24.5,0.5c-7.1-6.6-7.6-17.6-1.1-24.5
		C664.7,183.9,675.7,183.7,682.8,190.3"/>
	
		<ellipse transform="matrix(0.6838 -0.7297 0.7297 0.6838 64.2313 553.7689)" fill="none" stroke="#0E9247" stroke-width="0.8778" stroke-miterlimit="10" cx="671.1" cy="202.8" rx="17.1" ry="17.6"/>
	<path fill="#0A783D" d="M667.6,211.5c-2-0.9-3.9-1.9-5.7-3c-0.4-0.3-0.8-0.5-1-1c-0.2-0.6,0-1.2,0.3-1.8c0.8-1.9,1.3-4,1.4-6.1
		c0.1-1.3,0.1-2.8,0.7-3.9s2.3-1.9,3.4-1c0.3,0.3,0.6,0.7,0.7,1.1c1.3,2.7,2.1,5.6,2.3,8.6c0.2,2.6-0.2,5.4-2,7.3"/>
	<path fill="#0A783D" d="M685,203.4c-1.3,0.8-2.6,1.5-4,2.1c-0.3,0.1-0.6,0.2-0.9,0.1c-0.4-0.2-0.7-0.8-0.9-1.4
		c-0.7-1.8-1.6-3.4-2.6-4.9c-0.7-0.9-1.5-1.8-1.8-3c-0.3-1.2,0-2.9,0.9-3c0.3-0.1,0.6,0,0.9,0.2c2,0.8,3.9,2.1,5.6,3.9
		c1.5,1.5,2.8,3.6,3.1,6.1"/>
	<path fill="#F2F2F2" d="M654.8,197c0.2,4,3.5,7.3,3.6,11.3c0.1,1.2-0.2,2.3,0,3.5c0.3,1.8,1.6,3.4,3.3,4.1c-2.8,0.1-4.9-2.5-6-5.1
		c-1.8-4.4-2-9.4-0.6-13.9"/>
	<path fill="#0E9247" d="M667.7,185.6c1.9,0.8,3.9,1.2,6,1.2c0.9,0,1.7,0,2.5,0.2c0.7,0.2,1.2,0.7,1.8,1.1c2.5,2,5,4.1,7.5,6.1
		c-0.9,1.1-0.8,2.8-0.4,4.2c0.4,1.4,1.1,2.7,1.3,4.1c0.1,1.1,0,2.2-0.2,3.2c-0.7,3.8-1.7,7.8-4.7,10.3c2.1-0.9,3.7-2.8,4.7-4.8
		c1-2,1.5-4.2,1.8-6.4c0.4-2.3,0.6-4.7-0.1-7c-0.9-3-3.4-5.2-5.7-7.3c-1.8-1.6-3.6-3.2-5.8-4.2c-2.8-1.2-6-1.2-9.1-1.2"/>
	<path fill="#0E9247" d="M654.3,197.9c1-0.2,1.9-1,2.5-1.9c0.6-0.9,1-1.9,1.5-2.8c1.2-1.9,3.2-3.3,4.9-4.8c0.3-0.2,0.6-0.6,0.3-0.9
		c-0.2-0.2-0.6-0.1-0.9,0.1c-1.7,1-3.3,2-4.8,3.3c-1.4,1.3-2.6,2.9-3.1,4.8c-0.2,0.7-0.2,1.4-0.2,2.1"/>
	<path fill="#0E9247" d="M661.1,216.6c0.7-0.4,1.5-0.5,2.3-0.4c0.8,0.1,1.5,0.5,2.2,0.9c1.1,0.6,2.2,1.2,3.4,1.8
		c0.1,0.1,0.2,0.1,0.4,0.2c0.7,0.4,1.4,0.7,2.1,0.5c0.4-0.1,0.8-0.5,1.2-0.5c0.6-0.1,1.1,0.3,1.7,0.4c1.2,0.2,2.2-0.7,3.1-1.4
		c0.9-0.7,1.8-1.2,2.8-1.7c0.5-0.2,1.2-0.3,1.5,0.1c-2.2,2.1-5.2,2.8-8.2,3.5c-0.6,0.1-1.3,0.3-1.9,0.3c-1.1,0.1-2.3-0.3-3.4-0.6
		c-2.6-0.8-5.3-1.6-7.2-3.4"/>
	<path fill="#73C175" d="M373.4,179.5c5.1,4.8,5.5,12.7,0.8,17.7c-4.7,5-12.6,5.1-17.7,0.3c-5.1-4.8-5.5-12.7-0.8-17.7
		C360.4,174.9,368.3,174.8,373.4,179.5"/>
	
		<ellipse transform="matrix(0.6838 -0.7297 0.7297 0.6838 -22.1894 325.9377)" fill="none" stroke="#0E9247" stroke-width="0.6342" stroke-miterlimit="10" cx="365" cy="188.6" rx="12.4" ry="12.7"/>
	<path fill="#0A783D" d="M362.5,194.9c-1.4-0.6-2.8-1.3-4.1-2.2c-0.3-0.2-0.6-0.4-0.7-0.7c-0.2-0.4,0-0.9,0.2-1.3
		c0.6-1.4,0.9-2.9,1-4.4c0.1-1,0.1-2,0.5-2.8c0.5-0.8,1.7-1.4,2.4-0.7c0.2,0.2,0.4,0.5,0.5,0.8c1,1.9,1.5,4,1.7,6.2
		c0.1,1.9-0.2,3.9-1.5,5.3"/>
	<path fill="#0A783D" d="M375,189c-0.9,0.6-1.9,1.1-2.9,1.5c-0.2,0.1-0.5,0.2-0.7,0c-0.3-0.2-0.5-0.6-0.6-1
		c-0.5-1.3-1.2-2.5-1.9-3.5c-0.5-0.7-1.1-1.3-1.3-2.2c-0.3-0.9,0-2.1,0.6-2.2c0.2,0,0.4,0,0.6,0.1c1.4,0.6,2.8,1.5,4,2.8
		C374,185.7,374.9,187.2,375,189"/>
	<path fill="#F2F2F2" d="M353.2,184.4c0.1,2.9,2.5,5.3,2.6,8.1c0,0.8-0.1,1.7,0,2.5c0.2,1.3,1.1,2.5,2.4,2.9c-2,0.1-3.6-1.8-4.3-3.7
		c-1.3-3.2-1.5-6.8-0.5-10"/>
	<path fill="#0E9247" d="M362.5,176.2c1.4,0.6,2.9,0.9,4.3,0.9c0.6,0,1.2,0,1.8,0.2c0.5,0.2,0.9,0.5,1.3,0.8
		c1.8,1.5,3.6,2.9,5.5,4.4c-0.6,0.8-0.6,2-0.3,3c0.3,1,0.8,2,0.9,3c0.1,0.8,0,1.6-0.2,2.3c-0.5,2.8-1.3,5.7-3.4,7.5
		c1.5-0.6,2.7-2,3.4-3.5c0.7-1.4,1-3,1.3-4.6c0.3-1.7,0.4-3.4-0.1-5c-0.7-2.2-2.4-3.8-4.1-5.3c-1.3-1.1-2.6-2.3-4.2-3
		c-2-0.9-4.3-0.9-6.5-0.9"/>
	<path fill="#0E9247" d="M352.9,185c0.8-0.2,1.4-0.7,1.8-1.4c0.4-0.6,0.7-1.4,1.1-2c0.9-1.4,2.3-2.4,3.6-3.4
		c0.2-0.2,0.4-0.5,0.2-0.7c-0.2-0.2-0.4-0.1-0.6,0.1c-1.2,0.7-2.4,1.4-3.5,2.4c-1,0.9-1.9,2.1-2.2,3.5c-0.1,0.5-0.2,1-0.1,1.5"/>
	<path fill="#0E9247" d="M357.7,198.5c0.5-0.3,1.1-0.4,1.7-0.3c0.6,0.1,1.1,0.4,1.6,0.7c0.8,0.4,1.6,0.9,2.4,1.3
		c0.1,0,0.2,0.1,0.3,0.1c0.5,0.3,1,0.5,1.5,0.4c0.3-0.1,0.6-0.3,0.9-0.4c0.4-0.1,0.8,0.2,1.2,0.3c0.8,0.2,1.6-0.5,2.2-1
		c0.6-0.5,1.3-0.9,2-1.2c0.4-0.2,0.8-0.2,1.1,0.1c-1.6,1.5-3.8,2-5.9,2.5c-0.5,0.1-0.9,0.2-1.4,0.2c-0.8,0-1.6-0.2-2.4-0.4
		c-1.9-0.5-3.8-1.1-5.2-2.5"/>
	<path fill="#2BBA2B" d="M670,143.2c-3.4,0.1-6.2-2.5-6.3-5.7c-0.1-3.3,2.5-6,5.9-6.1c3.4-0.1,6.2,2.5,6.3,5.7
		C676,140.4,673.3,143.1,670,143.2"/>
	
		<ellipse transform="matrix(3.227575e-002 0.9995 -0.9995 3.227575e-002 785.4084 -536.5801)" fill="none" stroke="#0E9247" stroke-width="0.3044" stroke-miterlimit="10" cx="669.8" cy="137.3" rx="5.9" ry="6.1"/>
	<path fill="#0A783D" d="M669.3,135.1c0.7-0.3,1.4-0.5,2.1-0.7c0.2,0,0.3-0.1,0.5,0c0.2,0.1,0.3,0.3,0.4,0.5
		c0.3,0.7,0.7,1.3,1.1,1.8c0.3,0.4,0.7,0.7,0.8,1.1c0.1,0.5-0.1,1-0.6,1.1c-0.1,0-0.3,0-0.4-0.1c-1-0.3-1.9-0.9-2.7-1.5
		C669.8,136.8,669.3,136,669.3,135.1"/>
	<path fill="#0A783D" d="M666.2,140.6c0.1-0.5,0.3-1,0.5-1.5c0-0.1,0.1-0.2,0.2-0.2c0.2,0,0.4,0,0.5,0.1c0.6,0.3,1.2,0.5,1.8,0.5
		c0.4,0.1,0.8,0.1,1.2,0.3c0.4,0.2,0.7,0.7,0.5,1c-0.1,0.1-0.2,0.1-0.3,0.2c-0.7,0.3-1.5,0.4-2.3,0.4
		C667.7,141.3,666.9,141.1,666.2,140.6"/>
	<path fill="#F2F2F2" d="M663.9,135.6c0.2,1.4,1.5,2.4,1.7,3.7c0.1,0.4,0,0.8,0.1,1.2c0.2,0.6,0.7,1.1,1.3,1.3
		c-1,0.2-1.8-0.7-2.3-1.5C664,138.8,663.7,137.1,663.9,135.6"/>
	<path fill="#0E9247" d="M674.8,140.7c-0.7,0.3-1.3,0.7-1.8,1.2c-0.2,0.2-0.4,0.4-0.7,0.6c-0.2,0.1-0.5,0.1-0.7,0.2l-3.3,0.4
		c-0.1-0.5-0.5-0.9-0.9-1.1c-0.4-0.2-0.9-0.4-1.3-0.7c-0.3-0.2-0.5-0.5-0.7-0.8c-0.8-1.1-1.5-2.3-1.4-3.7c-0.3,0.7-0.2,1.6,0,2.3
		c0.2,0.7,0.7,1.4,1.1,2c0.5,0.7,1,1.3,1.7,1.7c1,0.5,2.1,0.5,3.2,0.4c0.8-0.1,1.7-0.1,2.4-0.4c1-0.4,1.8-1.2,2.5-1.9"/>
	<path fill="#0E9247" d="M675.1,134.4c-0.2,0.3-0.2,0.7-0.1,1.1c0.1,0.4,0.2,0.7,0.3,1.1c0.2,0.8,0,1.6,0,2.4c0,0.1,0,0.3,0.1,0.3
		c0.1,0,0.2-0.1,0.2-0.2c0.2-0.7,0.3-1.3,0.4-2c0-0.7-0.1-1.4-0.4-1.9c-0.1-0.2-0.3-0.4-0.5-0.6"/>
	<path fill="#0E9247" d="M668.9,131.5c-0.1,0.3-0.2,0.5-0.5,0.6c-0.2,0.2-0.5,0.2-0.8,0.3c-0.4,0.1-0.8,0.2-1.3,0.4c0,0-0.1,0-0.1,0
		c-0.2,0.1-0.5,0.2-0.6,0.4c-0.1,0.1-0.1,0.3-0.2,0.4c-0.1,0.2-0.3,0.2-0.5,0.3c-0.3,0.2-0.4,0.7-0.4,1.1c0,0.4-0.1,0.7-0.3,1.1
		c-0.1,0.2-0.2,0.4-0.4,0.3c0-1.1,0.6-2,1.2-2.9c0.1-0.2,0.2-0.4,0.4-0.5c0.3-0.3,0.6-0.5,1-0.7C667.2,132,668,131.5,668.9,131.5"/>
	<path fill="#F8D6A4" d="M180.9,148.1l-121.7,42c0,0-20.9,18.4,7.1,25.8l43.1-14.4l83.5-27.8L180.9,148.1z"/>
	<path fill="#0E9247" d="M161.6,95.2l182.7-61.1c0,0,28.3-12.8,41.8,22c0,0,9.8,18.5,10.6,27.4c0.6,7.2,4.7,5.2-7.8,13.3
		c-3.5,2.3-9.9,5.9-11.5,10.7c-1.7,5.1,1.4,11.4,0.8,15.5c-1.3,8.8,5.4,15.6,1.7,20.7l-170.9,72.5c0,0-4.9-18.4-25-50.2
		c0,0-10.9-8.9-9.8-35.3C174.3,130.8,168.7,120.7,161.6,95.2"/>
	<polygon fill="#44B767" points="283.1,54.6 324.3,167.1 236.1,204.8 197.5,83 	"/>
	<path fill="#73C175" d="M161.6,95.2L197.5,83l40.2,121.1l-28.6,12.1c0,0-15.2-29.7-24.7-43.6c0,0-11.8-14.2-10.2-41.6"/>
	<g>
		<g>
			<path fill="#0A9046" d="M386.8,58.9l-9.8,51.1l-186.6,72c0,0-18.6-21.8-16.1-51.3L386.8,58.9z"/>
		</g>
	</g>
	<path fill="#44B767" d="M100.7,204.1c1-0.3,2.1-0.5,3.1-0.9c1.7-0.7,3.6-1.1,5.4-1.5c0.1-1.4-0.4-2.9-1.3-4
		c-2.1-2.5-5.9-2.8-8.5-0.6c-2.5,2.1-2.9,5.7-1,8.2C99.1,204.8,99.9,204.4,100.7,204.1"/>
	<path fill="none" stroke="#0E9247" stroke-width="0.3044" stroke-miterlimit="10" d="M100.7,204.1c1-0.3,2.1-0.5,3.1-0.9
		c1.7-0.7,3.6-1.1,5.4-1.5c0.1-1.4-0.4-2.9-1.3-4c-2.1-2.5-5.9-2.8-8.5-0.6c-2.5,2.1-2.9,5.7-1,8.2
		C99.1,204.8,99.9,204.4,100.7,204.1z"/>
	<path fill="#0B8040" d="M107.1,200.6c-0.4,0.6-0.7,0.7-1.1,1.3c-0.1,0.1-0.5,0.2-0.7,0.2c-0.2,0.1-0.5,0.3-0.6,0.2
		c-0.6-0.4-1.2,0.8-1.9,0.7c-0.5-0.1-0.9-1.3-1.2-1.6c-0.4-0.3-0.6-0.9-0.2-1.2c0.1-0.1,0.3-0.2,0.4-0.2c1-0.3,2-0.5,3-0.4
		C105.6,199.6,106.6,199.9,107.1,200.6"/>
	<path fill="#0B8040" d="M103.9,196.8c0.2,0.5,0.4,1,0.6,1.5c0,0.1,0.1,0.2,0,0.3c-0.1,0.1-0.3,0.2-0.5,0.2
		c-0.6,0.2-1.2,0.4-1.8,0.7c-0.3,0.2-0.7,0.4-1.1,0.5c-0.4,0.1-1-0.1-1-0.4c0-0.1,0-0.2,0.1-0.3c0.3-0.7,0.9-1.3,1.6-1.8
		C102.3,197.1,103.1,196.7,103.9,196.8"/>
	<path fill="#F2F2F2" d="M108.8,199.2c-1-0.9-2.6-0.9-3.7-1.9c-0.3-0.3-0.5-0.6-0.9-0.9c-0.5-0.4-1.2-0.5-1.8-0.2
		c0.7-0.7,1.8-0.6,2.7-0.2c1.5,0.6,2.8,1.8,3.6,3.3"/>
	<path fill="#0E9247" d="M97.1,202c0.4-0.6,0.6-1.3,0.7-2c0-0.3,0.1-0.6,0.2-0.9c0.1-0.2,0.3-0.4,0.5-0.6l2.4-2.4
		c0.4,0.4,0.9,0.4,1.4,0.3c0.5-0.1,1-0.3,1.5-0.3c0.4,0,0.7,0.1,1.1,0.2c1.3,0.4,2.6,0.9,3.4,2c-0.2-0.7-0.8-1.4-1.5-1.8
		c-0.6-0.4-1.4-0.7-2.1-0.9c-0.8-0.2-1.6-0.4-2.4-0.3c-1.1,0.2-1.9,1-2.8,1.7c-0.6,0.6-1.3,1.1-1.7,1.8c-0.5,0.9-0.7,2-0.8,3.1"/>
	<g>
		<g>
			<polygon fill="#0B8040" points="370,40.2 167.8,115 170.7,121.3 376.8,40.8 			"/>
		</g>
	</g>
	<g>
		<g>
			<polygon fill="#0B8040" points="378.3,128.5 200.9,200.8 197.5,194.8 377.9,125.7 			"/>
		</g>
	</g>
	<g>
		<g>
			<path fill="#848484" d="M535.1,233l-127.7-15.5c0,0-26.9,7.1-5,25.4l45,5.9l87.2,11.5L535.1,233z"/>
			<path fill="#848484" d="M432.6,247.5L560.3,263c0,0,26.9-7.1,5-25.4l-45-5.9l-87.2-11.5L432.6,247.5z"/>
			<path fill="#F8D6A4" d="M534.1,230.7l-127.7-16.5c0,0-26.9,7.5-5,27l45,6.3l87.2,12.2L534.1,230.7z"/>
			<path fill="#F8D6A4" d="M432.6,246.3l127.7,16.5c0,0,26.9-7.5,5-27l-45-6.3l-87.2-12.2L432.6,246.3z"/>
		</g>
		<path fill="#44B767" d="M437.4,245.9c1.1,0.2,2.1,0.4,3.2,0.5c1.9,0.2,3.7,0.6,5.5,1c0.7-1.3,1-2.8,0.6-4.3
			c-0.8-3.3-4.1-5.2-7.3-4.4c-3.2,0.8-5.1,4-4.5,7.1C435.7,245.9,436.5,245.8,437.4,245.9"/>
		<path fill="none" stroke="#0E9247" stroke-width="0.3084" stroke-miterlimit="10" d="M437.4,245.9c1.1,0.2,2.1,0.4,3.2,0.5
			c1.9,0.2,3.7,0.6,5.5,1c0.7-1.3,1-2.8,0.6-4.3c-0.8-3.3-4.1-5.2-7.3-4.4c-3.2,0.8-5.1,4-4.5,7.1
			C435.7,245.9,436.5,245.8,437.4,245.9z"/>
		<path fill="#0B8040" d="M444.7,245.6c-0.6,0.4-0.9,0.4-1.6,0.7c-0.1,0.1-0.5-0.1-0.7-0.1c-0.2,0-0.6,0.1-0.7-0.1
			c-0.4-0.6-1.4,0.2-2-0.2c-0.4-0.3-0.2-1.6-0.4-2c-0.2-0.4-0.1-1.1,0.3-1.2c0.1,0,0.3,0,0.5,0c1,0.1,2,0.4,2.9,1
			C443.8,244,444.5,244.7,444.7,245.6"/>
		<path fill="#0B8040" d="M443.5,240.6c0,0.5,0,1.1-0.2,1.6c0,0.1-0.1,0.2-0.2,0.3c-0.1,0.1-0.4,0-0.6,0c-0.7-0.1-1.3-0.2-1.9-0.1
			c-0.4,0-0.8,0.1-1.2,0c-0.4-0.1-0.8-0.5-0.7-0.8c0-0.1,0.1-0.2,0.2-0.2c0.6-0.4,1.3-0.8,2.2-0.9
			C441.9,240.2,442.8,240.2,443.5,240.6"/>
		<path fill="#F2F2F2" d="M446.8,245.1c-0.5-1.3-1.9-2.1-2.5-3.4c-0.1-0.4-0.2-0.8-0.4-1.2c-0.3-0.6-0.9-1-1.5-1
			c0.9-0.4,1.9,0.3,2.5,1C446.1,241.8,446.7,243.5,446.8,245.1"/>
		<path fill="#0E9247" d="M435.1,242.3c0.6-0.4,1.1-0.9,1.5-1.5c0.2-0.3,0.3-0.5,0.5-0.7c0.2-0.2,0.4-0.2,0.7-0.3l3.2-1.1
			c0.2,0.5,0.7,0.8,1.1,0.9c0.5,0.1,1,0.2,1.5,0.4c0.3,0.2,0.6,0.4,0.9,0.7c1,0.9,2,2,2.1,3.4c0.1-0.8-0.1-1.7-0.5-2.3
			c-0.4-0.7-1-1.2-1.5-1.8c-0.6-0.6-1.3-1.1-2-1.3c-1-0.3-2.2,0-3.2,0.3c-0.8,0.2-1.6,0.5-2.3,0.9c-0.9,0.6-1.5,1.6-2.1,2.5"/>
	</g>
	<path fill="#F8D6A4" d="M643.8,134.4l121.5,42.5c0,0,27.8-1.5,10.5-24.6l-125.5-45.4L643.8,134.4z"/>
	<path fill="#0E9247" d="M628.2,185.7L447,120.4c0,0-30.2-7.5-19.2-43.2L444,28.3c0,0,15.2-28.5,43-16.1l179,49
		c0,0-7.6,17.5-11.5,54.9c0,0,3,13.7-14.2,33.8C640.3,150,638.5,161.3,628.2,185.7"/>
	<polygon fill="#44B767" points="507.7,142.3 545.1,28.5 637.7,53.5 592.5,173 	"/>
	<path fill="#73C175" d="M628.2,185.7L592.5,173l43.6-119.9l30,8.2c0,0-6.5,32.8-7.7,49.5c0,0,0.5,18.5-17.8,39"/>
	<g>
		<g>
			<polygon fill="#0B8040" points="459,19.6 662.8,78.6 661.7,85.4 452.3,20.6 			"/>
		</g>
	</g>
	<g opacity="0.8">
		<g>
			<path fill="#0A9046" d="M429.1,74.6l13.5-42.1l216.9,67.3c0,0,1.1,28.6-19.2,50.2L429.1,74.6z"/>
		</g>
	</g>
	<g>
		<g>
			<polygon fill="#F4D09F" points="398,228.4 571.6,251.7 572.1,246 393.4,225.4 			"/>
		</g>
	</g>
	<g>
		<g>
			<polygon fill="#F4D09F" points="654.8,127.9 773.6,170.4 775.3,164.9 656,124.7 			"/>
		</g>
	</g>
	<g>
		<g>
			<path fill="#F4D09F" d="M177.7,160.1c0,0-108.1,35.3-119.1,41.8s2.2,5.3,2.2,5.3l118-44L177.7,160.1z"/>
		</g>
	</g>
	<g>
		<g>
			<polygon fill="#0B8040" points="431.2,97.6 634.2,170.1 636.1,163.4 426.4,92.8 			"/>
		</g>
	</g>
</g>
</svg>
