<?xml version="1.0" encoding="utf-8"?>
<!-- Generator: Adobe Illustrator 14.0.0, SVG Export Plug-In . SVG Version: 6.00 Build 43363)  -->
<!DOCTYPE svg PUBLIC "-//W3C//DTD SVG 1.1//EN" "http://www.w3.org/Graphics/SVG/1.1/DTD/svg11.dtd">
<svg version="1.1" id="Layer_1" xmlns="http://www.w3.org/2000/svg" xmlns:xlink="http://www.w3.org/1999/xlink" x="0px" y="0px"
	 width="240px" height="71.7px" viewBox="0 0 240 71.7" enable-background="new 0 0 240 71.7" xml:space="preserve">
<g>
	<g>
		<g>
			<path fill="#07AA07" d="M54.6,30.5V10.3h3.9l0.6,2.9c1.8-1.9,4-2.9,6.5-2.9s4.3,0.9,5.2,2.8c2.1-1.8,4.2-2.8,6.5-2.8
				c4.6,0,7,2.6,7,7.7v12.5h-5.1V17.8c0-2.2-1-3.4-3-3.4c-1.5,0-3,0.7-4.4,2v14h-5.1V17.8c0-2.3-0.9-3.4-2.8-3.4
				c-1.5,0-2.9,0.7-4.2,2v14H54.6z"/>
			<path fill="#07AA07" d="M86.6,24.2c0-4,2.9-6,8.8-6c1.4,0,2.7,0.1,4.1,0.4v-1.5c0-1.8-1.3-2.7-3.9-2.7c-2.2,0-4.7,0.3-7.3,1v-4
				c2.7-0.6,5.1-1,7.3-1c6,0,9,2.2,9,6.7v13.5h-3l-1.8-1.8c-1.8,1.2-3.7,1.8-5.8,1.8C89,30.5,86.6,28.4,86.6,24.2z M95.3,21.7
				c-2.5,0-3.7,0.8-3.7,2.5c0,1.8,1,2.7,3.1,2.7c1.7,0,3.3-0.5,4.7-1.6V22C98.2,21.8,96.8,21.7,95.3,21.7z"/>
			<path fill="#07AA07" d="M107.5,7h3.8l0.8,3.3h5.1v4h-4.5v9.3c0,1.9,0.8,2.8,2.4,2.8h2.1v4h-4.5c-3.4,0-5.1-1.8-5.1-5.4V7z"/>
			<path fill="#07AA07" d="M133.9,29.9c-1.7,0.4-3.4,0.6-5.2,0.6C121.5,30.5,118,27,118,20c0-6.5,3.6-9.7,10.8-9.7
				c1.8,0,3.5,0.2,5.2,0.6v4c-1.7-0.4-3.3-0.6-4.8-0.6c-4,0-6.1,1.9-6.1,5.7c0,4.3,2,6.4,6.1,6.4c1.5,0,3.1-0.2,4.8-0.6V29.9z"/>
			<path fill="#07AA07" d="M135.7,30.5V3h5.1v9.9c1.6-1.7,3.6-2.6,6.1-2.6c4.8,0,7.2,2.5,7.2,7.5v12.7H149V17.8
				c0-2.2-1.1-3.3-3.3-3.3c-1.7,0-3.3,0.7-4.8,2v14.1H135.7z"/>
			<path fill="#07AA07" d="M156.4,24.2c0-4,2.9-6,8.8-6c1.4,0,2.7,0.1,4.1,0.4v-1.5c0-1.8-1.3-2.7-3.9-2.7c-2.2,0-4.7,0.3-7.3,1v-4
				c2.7-0.6,5.1-1,7.3-1c6,0,9,2.2,9,6.7v13.5h-3l-1.8-1.8c-1.8,1.2-3.7,1.8-5.8,1.8C158.8,30.5,156.4,28.4,156.4,24.2z M165.1,21.7
				c-2.4,0-3.7,0.8-3.7,2.5c0,1.8,1,2.7,3.1,2.7c1.7,0,3.3-0.5,4.7-1.6V22C168,21.8,166.6,21.7,165.1,21.7z"/>
		</g>
	</g>
	<g>
		<path fill="#4D4D4D" d="M181.6,10.3V27h7.9v3.2h-11.6V10.3H181.6z"/>
		<path fill="#4D4D4D" d="M204.3,10.3v3.2h-10v5h9.5v3.3h-9.5V27h10.2v3.2h-13.8V10.3H204.3z"/>
		<path fill="#4D4D4D" d="M218.7,10.3v3.2H213v16.7h-3.7V13.5h-5.7v-3.2H218.7z"/>
		<path fill="#4D4D4D" d="M222.3,10.3v19.9h-3.7V10.3H222.3z"/>
		<path fill="#4D4D4D" d="M240.1,29.4c-1.7,0.6-3.7,1-5.8,1c-7.1,0-10.7-3.5-10.7-10.4c0-6.5,3.6-9.8,10.7-9.8c2.2,0,4.1,0.3,5.8,1
			v3.3c-1.7-0.7-3.6-1.1-5.6-1.1c-4.8,0-7.2,2.2-7.2,6.6c0,4.8,2.4,7.2,7.2,7.2c2,0,3.8-0.4,5.6-1.1V29.4z"/>
	</g>
	<circle fill="#07AA07" cx="29.4" cy="20.1" r="17"/>
	<circle fill="none" stroke="#4D4D4D" stroke-width="1.2052" cx="29.3" cy="20.2" r="19.3"/>
	<g>
		<path fill="#4D4D4D" d="M4,20.3c0,1.8-0.8,3.3-1.8,3.3H1.7c-1,0-1.8-1.5-1.8-3.3l0,0c0-1.8,0.8-3.3,1.8-3.3h0.6
			C3.2,16.9,4,18.4,4,20.3L4,20.3z"/>
		<rect x="2.4" y="16.9" fill="#4D4D4D" width="7.5" height="6.6"/>
	</g>
</g>
</svg>
