<?xml version="1.0" encoding="utf-8"?>
<!-- Generator: Adobe Illustrator 14.0.0, SVG Export Plug-In . SVG Version: 6.00 Build 43363)  -->
<!DOCTYPE svg PUBLIC "-//W3C//DTD SVG 1.1//EN" "http://www.w3.org/Graphics/SVG/1.1/DTD/svg11.dtd">
<svg version="1.1" xmlns="http://www.w3.org/2000/svg" xmlns:xlink="http://www.w3.org/1999/xlink" x="0px" y="0px" width="240px"
	 height="200px" viewBox="0 0 240 200" enable-background="new 0 0 240 200" xml:space="preserve">
<g id="backgroud">
	<rect fill="#07AA07" width="240" height="200"/>
</g>
<g id="Layer_3">
	<path fill="#FFFFFF" d="M199.4,62.3c0,4.8-3.9,8.6-8.6,8.6H50.3c-4.8,0-8.6-3.9-8.6-8.6l0,0c0-4.8,3.9-8.6,8.6-8.6h140.5
		C195.5,53.7,199.4,57.6,199.4,62.3L199.4,62.3z"/>
	<path fill="#FFFFFF" d="M199.4,86.2c0,4.8-3.9,8.6-8.6,8.6H50.3c-4.8,0-8.6-3.9-8.6-8.6l0,0c0-4.8,3.9-8.6,8.6-8.6h140.5
		C195.5,77.6,199.4,81.4,199.4,86.2L199.4,86.2z"/>
	<path fill="#FFFFFF" d="M199.4,110.1c0,4.8-3.9,8.6-8.6,8.6H50.3c-4.8,0-8.6-3.9-8.6-8.6l0,0c0-4.8,3.9-8.6,8.6-8.6h140.5
		C195.5,101.4,199.4,105.3,199.4,110.1L199.4,110.1z"/>
	<path fill="#FFFFFF" d="M199.4,133.6c0,4.8-3.9,8.6-8.6,8.6H50.3c-4.8,0-8.6-3.9-8.6-8.6l0,0c0-4.8,3.9-8.6,8.6-8.6h140.5
		C195.5,125,199.4,128.8,199.4,133.6L199.4,133.6z"/>
	<path fill="#FFFFFF" stroke="#07AA07" stroke-width="1.4119" d="M83.7,64.6c1.3,0.4,2.6,0.7,4,0.8c3.8,0.2,7.5-0.8,11.3-1.1
		c7.4-0.6,11.8,6.4,16.6,11.2c2.7,2.7,5.6,5.2,8.9,7.1c4.5,2.6,6.2,4.7,9,9.3c2.3,3.7,3.5,5.9,3.9,10.2c0.4,3.8,0.8,6.4,3.6,9.1
		c7.5,7.2,8.7-2.3,11.7-7.3c3.1-5.2,9.5-9.5,14.3-13.1c5.8-4.4,7.7-8.6,11.4-14.1c3-4.6,9.4-7.6,14.5-10.3c3.2-1.7,12.3-6,10.3-10.9
		c-2.3-5.7-13.8-8.4-18.9-8.4c-14.7,0.1-29.4-5-44.2-3.5c-6.7,0.7-12.5,3.3-19.2,1.7c-7.9-1.9-15.4-3.9-23.6-3.9
		c-10.4,0-20.3,5.1-30.5,2.5c-5.4-1.4-13.4-2.7-17.5,2.2c-6,7.1,0.8,14.5,8.1,15.1c2.6,0.2,4.3-0.8,6.4-2c2-1.1,4.3,1.1,6.1,1.7
		c2.5,0.8,5.2,0.9,7.7,1.6C79.7,63.1,81.7,63.9,83.7,64.6z"/>
	<path fill="#FFFFFF" d="M226.7,153.8c0,2.9-2.3,5.3-5.3,5.3H18.6c-2.9,0-5.3-2.4-5.3-5.3l0,0c0-2.9,2.4-5.3,5.3-5.3h202.8
		C224.3,148.5,226.7,150.9,226.7,153.8L226.7,153.8z"/>
</g>
</svg>
