<?xml version="1.0" encoding="utf-8"?>
<!-- Generator: Adobe Illustrator 16.0.0, SVG Export Plug-In . SVG Version: 6.00 Build 0)  -->
<!DOCTYPE svg PUBLIC "-//W3C//DTD SVG 1.1//EN" "http://www.w3.org/Graphics/SVG/1.1/DTD/svg11.dtd">
<svg version="1.1" id="Layer_1" xmlns="http://www.w3.org/2000/svg" xmlns:xlink="http://www.w3.org/1999/xlink" x="0px" y="0px"
	 width="46.75px" height="30px" viewBox="0 0 46.75 30" enable-background="new 0 0 46.75 30" xml:space="preserve">
<path fill="#FFFFFF" d="M43.466,0H3.461C1.651,0,0.178,1.473,0.178,3.284V26.63c0,1.811,1.473,3.285,3.284,3.285h40.005
	c1.811,0,3.284-1.475,3.284-3.285V3.284C46.75,1.473,45.277,0,43.466,0z"/>
<path fill="#003087" d="M10.231,10.142C9.73,9.796,9.075,9.624,8.268,9.624H5.143c-0.248,0-0.384,0.125-0.41,0.372l-1.27,7.971
	c-0.013,0.078,0.006,0.149,0.058,0.215c0.052,0.065,0.118,0.098,0.196,0.098h1.484c0.26,0,0.403-0.124,0.43-0.372l0.352-2.148
	c0.013-0.104,0.059-0.189,0.137-0.254c0.079-0.065,0.176-0.108,0.293-0.127c0.118-0.02,0.228-0.029,0.332-0.029
	s0.229,0.006,0.372,0.019c0.143,0.013,0.234,0.02,0.273,0.02c1.12,0,1.999-0.316,2.637-0.948c0.638-0.631,0.957-1.507,0.957-2.627
	C10.983,11.043,10.732,10.487,10.231,10.142L10.231,10.142z M8.62,12.535c-0.065,0.456-0.234,0.755-0.508,0.898
	c-0.274,0.143-0.664,0.214-1.172,0.214l-0.645,0.02l0.333-2.09c0.025-0.144,0.11-0.216,0.253-0.216h0.371
	c0.521,0,0.899,0.075,1.133,0.225C8.62,11.737,8.698,12.053,8.62,12.535L8.62,12.535z"/>
<path fill="#009CDE" d="M43.215,9.624H41.77c-0.144,0-0.228,0.072-0.254,0.215l-1.27,8.127l-0.019,0.038
	c0,0.065,0.026,0.128,0.078,0.187c0.052,0.059,0.117,0.088,0.195,0.088h1.29c0.247,0,0.384-0.124,0.41-0.372l1.271-7.989v-0.02
	C43.47,9.715,43.384,9.624,43.215,9.624z"/>
<path fill="#003087" d="M25.752,12.77c0-0.065-0.027-0.127-0.078-0.186c-0.053-0.058-0.111-0.087-0.176-0.087h-1.505
	c-0.143,0-0.26,0.065-0.351,0.195l-2.071,3.047l-0.859-2.931c-0.065-0.208-0.208-0.312-0.43-0.312h-1.465
	c-0.065,0-0.124,0.029-0.176,0.087c-0.052,0.059-0.078,0.121-0.078,0.186c0,0.026,0.127,0.41,0.381,1.152
	c0.254,0.743,0.528,1.543,0.821,2.402c0.293,0.859,0.445,1.316,0.459,1.367c-1.067,1.459-1.602,2.24-1.602,2.344
	c0,0.171,0.084,0.254,0.254,0.254h1.504c0.144,0,0.26-0.064,0.352-0.194l4.981-7.188C25.738,12.88,25.751,12.834,25.752,12.77
	L25.752,12.77z"/>
<path fill="#009CDE" d="M39.757,12.496h-1.485c-0.182,0-0.292,0.214-0.332,0.644c-0.339-0.521-0.957-0.782-1.856-0.782
	c-0.938,0-1.735,0.352-2.393,1.056c-0.658,0.703-0.987,1.53-0.987,2.481c0,0.769,0.224,1.38,0.674,1.835
	c0.45,0.457,1.051,0.684,1.807,0.684c0.377,0,0.762-0.077,1.152-0.233c0.391-0.156,0.697-0.365,0.918-0.626
	c0,0.014-0.014,0.072-0.04,0.176c-0.026,0.105-0.039,0.183-0.039,0.235c0,0.208,0.084,0.313,0.254,0.313h1.348
	c0.248,0,0.391-0.124,0.43-0.372l0.801-5.098c0.013-0.078-0.006-0.149-0.059-0.214C39.901,12.528,39.835,12.496,39.757,12.496
	L39.757,12.496z M37.208,16.345c-0.332,0.325-0.732,0.487-1.202,0.487c-0.377,0-0.683-0.104-0.918-0.313
	c-0.234-0.208-0.352-0.494-0.352-0.859c0-0.482,0.163-0.889,0.489-1.221c0.325-0.332,0.729-0.498,1.21-0.498
	c0.365,0,0.667,0.107,0.908,0.322c0.241,0.215,0.362,0.512,0.362,0.889C37.707,15.621,37.541,16.019,37.208,16.345L37.208,16.345z"
	/>
<path fill="#003087" d="M17.566,12.496h-1.484c-0.183,0-0.293,0.214-0.333,0.644c-0.352-0.521-0.97-0.782-1.855-0.782
	c-0.938,0-1.736,0.352-2.393,1.056c-0.658,0.703-0.986,1.53-0.986,2.481c0,0.769,0.225,1.38,0.674,1.835
	c0.449,0.457,1.051,0.684,1.807,0.684c0.364,0,0.742-0.077,1.133-0.233c0.391-0.156,0.703-0.365,0.938-0.626
	c-0.052,0.157-0.078,0.293-0.078,0.411c0,0.208,0.085,0.313,0.254,0.313h1.348c0.247,0,0.391-0.124,0.43-0.372l0.801-5.098
	c0.013-0.078-0.006-0.149-0.058-0.214C17.709,12.528,17.645,12.496,17.566,12.496L17.566,12.496z M15.018,16.354
	c-0.332,0.319-0.74,0.479-1.221,0.479c-0.377,0-0.681-0.104-0.909-0.313c-0.228-0.208-0.341-0.494-0.341-0.859
	c0-0.481,0.163-0.889,0.488-1.221c0.325-0.332,0.729-0.498,1.211-0.498c0.365,0,0.667,0.107,0.909,0.322
	c0.241,0.215,0.361,0.512,0.361,0.889C15.516,15.635,15.349,16.035,15.018,16.354L15.018,16.354z"/>
<path fill="#009CDE" d="M32.422,10.142c-0.5-0.345-1.155-0.518-1.963-0.518h-3.105c-0.261,0-0.404,0.125-0.43,0.372l-1.27,7.97
	c-0.013,0.079,0.006,0.15,0.058,0.216s0.118,0.098,0.196,0.098h1.602c0.156,0,0.26-0.085,0.312-0.254l0.353-2.267
	c0.013-0.104,0.058-0.188,0.136-0.254c0.079-0.064,0.175-0.107,0.293-0.126c0.117-0.02,0.228-0.029,0.332-0.029
	c0.104,0,0.228,0.007,0.371,0.02c0.143,0.013,0.234,0.02,0.273,0.02c1.12,0,1.999-0.316,2.637-0.948
	c0.639-0.631,0.958-1.508,0.958-2.627C33.174,11.043,32.923,10.487,32.422,10.142L32.422,10.142z M30.42,13.355
	c-0.287,0.195-0.717,0.292-1.29,0.292l-0.625,0.02l0.333-2.09c0.025-0.144,0.11-0.216,0.254-0.216h0.352
	c0.286,0,0.514,0.013,0.684,0.04c0.169,0.025,0.332,0.107,0.488,0.244c0.157,0.137,0.235,0.335,0.235,0.596
	C30.85,12.788,30.707,13.16,30.42,13.355L30.42,13.355z"/>
</svg>
