<?xml version="1.0" encoding="utf-8"?>
<!-- Generator: Adobe Illustrator 14.0.0, SVG Export Plug-In . SVG Version: 6.00 Build 43363)  -->
<!DOCTYPE svg PUBLIC "-//W3C//DTD SVG 1.1//EN" "http://www.w3.org/Graphics/SVG/1.1/DTD/svg11.dtd">
<svg version="1.1" xmlns="http://www.w3.org/2000/svg" xmlns:xlink="http://www.w3.org/1999/xlink" x="0px" y="0px" width="240px"
	 height="200px" viewBox="0 0 240 200" enable-background="new 0 0 240 200" xml:space="preserve">

<g id="Layer_2">
	<g>
		<polygon fill="#FFFFFF" points="121.6,176 94.5,176 76.6,68.9 121.6,68 		"/>
		<polygon fill="#FFFFFF" points="118.7,176 145.9,176 163.8,68.9 118.7,68 		"/>
	</g>
	<rect x="71.7" y="49.9" fill="#FFFFFF" width="97.5" height="21.1"/>
	<path fill="#FFFFFF" d="M167.5,52.9c0,5.4-4.5,9.7-10.1,9.7H83.3c-5.6,0-10.1-4.4-10.1-9.7l0,0c0-5.4,4.5-9.7,10.1-9.7h74.1
		C163,43.1,167.5,47.5,167.5,52.9L167.5,52.9z"/>
	<rect x="80.7" y="29.2" fill="#FFFFFF" width="28.1" height="16.4"/>
	<path fill="#FFFFFF" d="M111.6,27.8c0,1.5-1.2,2.8-2.8,2.8H77.9c-1.5,0-2.8-1.2-2.8-2.8l0,0c0-1.5,1.2-2.8,2.8-2.8h30.9
		C110.4,25,111.6,26.3,111.6,27.8L111.6,27.8z"/>
	<path fill="none" stroke="#FFFFFF" stroke-width="2.2249" d="M110.4,27.5c16.5,0,49.9-2.2,49.9,22.6"/>
</g>
</svg>
