<?xml version="1.0" encoding="utf-8"?>
<!-- Generator: Adobe Illustrator 14.0.0, SVG Export Plug-In . SVG Version: 6.00 Build 43363)  -->
<!DOCTYPE svg PUBLIC "-//W3C//DTD SVG 1.1//EN" "http://www.w3.org/Graphics/SVG/1.1/DTD/svg11.dtd">
<svg version="1.1" id="Layer_1" xmlns="http://www.w3.org/2000/svg" xmlns:xlink="http://www.w3.org/1999/xlink" x="0px" y="0px"
	 width="15px" height="15px" viewBox="0 0 15 15" enable-background="new 0 0 15 15" xml:space="preserve">
<g>
	<path fill-rule="evenodd" clip-rule="evenodd" fill="#07AA07" d="M7.4,0.4c1.1,1.3,1.8,3,2.6,4.5c1.8,0.2,3.3,0.7,5,0.9
		c-1,1.4-2.4,2.6-3.5,3.9c0.3,1.6,0.5,3.3,0.6,5c-1.6-0.6-3.1-1.4-4.6-2.1c-1.5,0.7-3,1.5-4.6,2.1c0.1-1.7,0.3-3.4,0.6-4.9
		C2.5,8.3,1,7.2,0,5.7c1.7-0.2,3.2-0.6,4.9-0.9C5.8,3.5,6.7,2,7.4,0.4z"/>
</g>
</svg>
