<?xml version="1.0" encoding="utf-8"?>
<!-- Generator: Adobe Illustrator 16.0.0, SVG Export Plug-In . SVG Version: 6.00 Build 0)  -->
<!DOCTYPE svg PUBLIC "-//W3C//DTD SVG 1.1//EN" "http://www.w3.org/Graphics/SVG/1.1/DTD/svg11.dtd">
<svg version="1.1" xmlns="http://www.w3.org/2000/svg" xmlns:xlink="http://www.w3.org/1999/xlink" x="0px" y="0px" width="18px"
	 height="35px" viewBox="0 0 18 35" enable-background="new 0 0 18 35" xml:space="preserve">
<g id="guide">
	<rect fill="#FFFFFF" width="18" height="35"/>
</g>
<g id="Layer_2">
	<g>
		<path fill="#231F20" d="M17.2,28.7H0.8c-0.5,0-0.8-0.4-0.8-0.8V14.6c0-0.5,0.4-0.8,0.8-0.8h16.3c0.5,0,0.8,0.4,0.8,0.8v13.2
			C18,28.3,17.6,28.7,17.2,28.7"/>
		<path fill="none" stroke="#231F20" stroke-width="1.8244" stroke-miterlimit="10" d="M12.1,23.1H5.9c-1.8,0-3.3-1.5-3.3-3.3V9.7
			c0-1.8,1.5-3.3,3.3-3.3h6.2c1.8,0,3.3,1.5,3.3,3.3v10.1C15.4,21.6,13.9,23.1,12.1,23.1z"/>
		<path fill="#FFFFFF" d="M9,23.9L9,23.9c-0.3,0-0.6-0.3-0.6-0.6v-1.8C8.4,21.2,8.6,21,9,21c0.3,0,0.6,0.3,0.6,0.6v1.8
			C9.5,23.7,9.3,23.9,9,23.9"/>
		<path fill="#FFFFFF" d="M10.3,20.6c0,0.7-0.6,1.3-1.3,1.3c-0.7,0-1.3-0.6-1.3-1.3c0-0.7,0.6-1.3,1.3-1.3
			C9.7,19.3,10.3,19.9,10.3,20.6"/>
	</g>
</g>
</svg>
