<?xml version="1.0" encoding="utf-8"?>
<!-- Generator: Adobe Illustrator 16.0.0, SVG Export Plug-In . SVG Version: 6.00 Build 0)  -->
<!DOCTYPE svg PUBLIC "-//W3C//DTD SVG 1.1//EN" "http://www.w3.org/Graphics/SVG/1.1/DTD/svg11.dtd">
<svg version="1.1" xmlns="http://www.w3.org/2000/svg" xmlns:xlink="http://www.w3.org/1999/xlink" x="0px" y="0px" width="18px"
	 height="35px" viewBox="0 0 18 35" enable-background="new 0 0 18 35" xml:space="preserve">
<g id="guide">
</g>
<g id="lock">
	<path fill="#FFFFFF" d="M17.2,25.2H0.8c-0.5,0-0.8-0.2-0.8-0.5v-8.4c0-0.3,0.4-0.5,0.8-0.5h16.3c0.5,0,0.8,0.2,0.8,0.5v8.4
		C18,24.9,17.6,25.2,17.2,25.2"/>
	<path fill="none" stroke="#FFFFFF" stroke-width="1.8244" stroke-miterlimit="10" d="M2.6,19.9v-5.5c0-1.8,1.5-3.3,3.3-3.3h6.2
		c1.8,0,3.3,1.5,3.3,3.3v5.2L2.6,19.9z"/>
	<path fill="#222222" d="M9,23.4L9,23.4c-0.3,0-0.6-0.3-0.6-0.6V21c0-0.3,0.3-0.6,0.6-0.6c0.3,0,0.6,0.3,0.6,0.6v1.8
		C9.5,23.2,9.3,23.4,9,23.4"/>
	<path fill="#222222" d="M10.3,20.1c0,0.7-0.6,1.3-1.3,1.3c-0.7,0-1.3-0.6-1.3-1.3s0.6-1.3,1.3-1.3C9.7,18.8,10.3,19.4,10.3,20.1"/>
</g>
</svg>
