<?xml version="1.0" encoding="utf-8"?>
<!-- Generator: Adobe Illustrator 14.0.0, SVG Export Plug-In . SVG Version: 6.00 Build 43363)  -->
<!DOCTYPE svg PUBLIC "-//W3C//DTD SVG 1.1//EN" "http://www.w3.org/Graphics/SVG/1.1/DTD/svg11.dtd">
<svg version="1.1" xmlns="http://www.w3.org/2000/svg" xmlns:xlink="http://www.w3.org/1999/xlink" x="0px" y="0px" width="100px"
	 height="100px" viewBox="0 0 100 100" enable-background="new 0 0 100 100" xml:space="preserve">
<g id="Layer_1">
	<circle fill="#07AA07" cx="50" cy="50" r="50"/>
</g>
<g id="Layer_2">
	<g>
		<path fill="#FFFFFF" d="M74.9,24.6c0,4.3-3.5,7.8-7.8,7.8c-4.3,0-7.8-3.5-7.8-7.8c0-4.3,3.5-7.8,7.8-7.8
			C71.4,16.8,74.9,20.3,74.9,24.6"/>
		<path fill="#FFFFFF" d="M55,37.4c0.2,0.5-1.4,1.8-1.6,2c-0.7,0.7-1.4,1.5-2.1,2.2c-1.4,1.5-2.8,2.9-4.2,4.4
			c-0.1,0.1-0.3,0.3-0.4,0.4c-1.2,1.3-2.3,2.9-2.8,4.6c-1.6,5.1,3.1,7.6,6.6,10c1.5,1,3,2.4,3.6,4.2c0.7,2,0.7,4.3,0.1,6.3
			c-0.5,1.5-1.3,2.8-2.2,4.1c-1.2,1.8-3.9,4.6-2.8,6.9c0.3,0.6,0.9,1.1,1.5,1.3c2.9,0.9,5-1.9,6.3-4c1.3-2.1,2.6-4.2,4-6.2
			c1.5-2.4,3.3-5.3,2.7-8.3c-0.4-2.2-1.8-3.7-3.4-5.2C60,60,56.8,57,56.9,56.9c0,0,8.2-10.3,8.3-10.3c-0.2,0.2,0.1,1.9,0.2,2.2
			c0.2,0.6,0.6,1.1,1.1,1.6c3,3.2,7.7,4.9,11.7,6.4c1.3,0.5,2.6-0.2,3.4-1.2c1-1.3,0.8-3.4-0.3-4.6c-0.9-0.9-2.1-1.5-3.2-2.1
			c-1.3-0.7-2.5-1.4-3.8-2.2c-1.5-0.9-2.9-2-4-3.4c-1.9-2.3-3.1-5.3-5.5-7.1c-1.3-1-2.7-2-4-3.1c-1.7-1.3-3.3-2.6-5.5-3
			c-1.8-0.3-3.6-0.5-5.4-0.7c-2.3-0.2-4.3-0.4-6.4,0.5c-2,0.8-3.8,2.1-5.5,3.3c-1.9,1.3-7.6,4.6-5,7.3c0.8,0.9,2.2,1,3.3,0.8
			c2-0.4,3.4-1.3,4.8-2.8c0.5-0.6,1-1.1,1.6-1.5c1.6-1,3.7-0.5,5.5-0.4c2.2,0.2,4.3,0.3,6.5,0.5C54.9,37.2,55,37.3,55,37.4"/>
		<path fill="#FFFFFF" d="M41.1,58.8c-0.7,1.8-1.6,3.5-2.2,5.4c-0.3,0.8-1.1,0.8-1.9,0.7c-1.1-0.1-2.1-0.2-3.2-0.4
			c-1.6-0.2-3.2-0.4-4.8-0.5c-0.8-0.1-1.5-0.2-2.2-0.4c-0.7-0.2-1.5-0.5-2.2-0.8c-0.4-0.2-0.9-0.4-1.3-0.4c-1.5,0-3.3,1.8-4.1,2.9
			c-0.8,1.2-0.4,2.6,0.7,3.3c0.6,0.4,1.3,0.5,1.9,0.7c2.5,0.6,5,1.3,7.6,1.9c2.7,0.7,5.9,2.2,8.5,1c2.2-1.1,4.2-2.6,6.1-4.2
			c0.8-0.8,1.8-1.4,2.6-2.2c0.5-0.5,1.3-1.5,0.8-2.2c-0.2-0.2-0.4-0.4-0.6-0.5c-1-0.7-2-1.4-3-2.1C43.6,60.6,41.1,59,41.1,58.8"/>
	</g>
</g>
</svg>
