<?xml version="1.0" encoding="utf-8"?>
<!-- Generator: Adobe Illustrator 14.0.0, SVG Export Plug-In . SVG Version: 6.00 Build 43363)  -->
<!DOCTYPE svg PUBLIC "-//W3C//DTD SVG 1.1//EN" "http://www.w3.org/Graphics/SVG/1.1/DTD/svg11.dtd">
<svg version="1.1" xmlns="http://www.w3.org/2000/svg" xmlns:xlink="http://www.w3.org/1999/xlink" x="0px" y="0px" width="100px"
	 height="100px" viewBox="0 0 100 100" enable-background="new 0 0 100 100" xml:space="preserve">
<g id="Layer_1">
	<circle fill="#07AA07" cx="50" cy="50" r="50"/>
</g>
<g id="Layer_2">
	<path id="XMLID_24_" fill="#FFFFFF" d="M26.7,46.8c0-12.5,10.2-22.5,22.6-22.5c12.5,0,22.5,10.2,22.5,22.6
		c0,12.5-10.2,22.5-22.6,22.5C36.7,69.4,26.7,59.2,26.7,46.8z"/>
	<path fill="#FFFFFF" d="M56.2,81.3c0,1-0.8,1.9-1.9,1.9h-9.3c-1,0-1.9-0.8-1.9-1.9l0,0c0-1,0.8-1.9,1.9-1.9h9.3
		C55.3,79.4,56.2,80.2,56.2,81.3L56.2,81.3z"/>
	<path fill="#FFFFFF" d="M56.2,74.3c0,1-0.8,1.9-1.9,1.9h-9.3c-1,0-1.9-0.8-1.9-1.9l0,0c0-1,0.8-1.9,1.9-1.9h9.3
		C55.3,72.4,56.2,73.3,56.2,74.3L56.2,74.3z"/>
	<path fill="#FFFFFF" d="M56.2,68c0,1-0.8,1.9-1.9,1.9h-9.3c-1,0-1.9-0.8-1.9-1.9l0,0c0-1,0.8-1.9,1.9-1.9h9.3
		C55.3,66.1,56.2,66.9,56.2,68L56.2,68z"/>
	<rect x="43.8" y="86.1" fill="#FFFFFF" width="11.8" height="3.6"/>
	<path fill="#FFFFFF" d="M54,87.9c0,2.4-1.9,4.3-4.3,4.3c-2.4,0-4.3-1.9-4.3-4.3S54,85.6,54,87.9z"/>
	<line fill="#FFFFFF" stroke="#FFFFFF" stroke-width="2" stroke-miterlimit="10" x1="20.4" y1="26.4" x2="26.7" y2="32.8"/>
	<line fill="#FFFFFF" stroke="#FFFFFF" stroke-width="2" stroke-miterlimit="10" x1="79.6" y1="26.4" x2="73.3" y2="32.8"/>
	<line fill="#FFFFFF" stroke="#FFFFFF" stroke-width="2" stroke-miterlimit="10" x1="79.6" y1="73" x2="73.3" y2="66.7"/>
	<line fill="#FFFFFF" stroke="#FFFFFF" stroke-width="2" stroke-miterlimit="10" x1="20.4" y1="73" x2="26.7" y2="66.7"/>
	<line fill="#FFFFFF" stroke="#FFFFFF" stroke-width="2" stroke-miterlimit="10" x1="49.3" y1="10.8" x2="49.3" y2="19.7"/>
</g>
</svg>
