<?xml version="1.0" encoding="utf-8"?>
<!-- Generator: Adobe Illustrator 14.0.0, SVG Export Plug-In . SVG Version: 6.00 Build 43363)  -->
<!DOCTYPE svg PUBLIC "-//W3C//DTD SVG 1.1//EN" "http://www.w3.org/Graphics/SVG/1.1/DTD/svg11.dtd">
<svg version="1.1" id="Layer_1" xmlns="http://www.w3.org/2000/svg" xmlns:xlink="http://www.w3.org/1999/xlink" x="0px" y="0px"
	 width="450px" height="55px" viewBox="0 0 450 55" enable-background="new 0 0 450 55" xml:space="preserve">
<g>
	<path fill-rule="evenodd" clip-rule="evenodd" d="M42.6,11c4.7,3.8,3.8,13.1,5.8,19.7c2.5-1.7,2.7-5.8,6.9-5.8
		c8.7,1.6,4.7,13.7,2.3,19.7c-4.8-2.1,0.7-9.8-1.2-16.2c-7.4,0-4.5,10.1-6.9,15C42,37.8,44.3,22.4,42.6,11z"/>
	<path fill-rule="evenodd" clip-rule="evenodd" d="M182.6,11c3.5,4.6,4.2,12,4.6,19.7c3.4-2,3.3-7.5,10.4-5.8
		c3.2,3.8,4,17.4-2.3,18.5c0-5,0-10,0-15c-8,0.1-1.8,14.4-9.3,15C184.3,33.9,181.6,19.6,182.6,11z"/>
	<path fill-rule="evenodd" clip-rule="evenodd" d="M226.6,11c2.4,8.1-2.3,23,1.2,32.4C219.2,37.3,222.8,19.7,226.6,11z"/>
	<path fill-rule="evenodd" clip-rule="evenodd" d="M97,12.2c1.2,0,2.3,0,3.5,0c1.4,4.4,3.1,8.5,4.6,12.7c6.2-1.1,4-10.6,10.4-11.6
		c2.8,9.2,5.2,18.7,6.9,28.9c-7-2.6-7.3-11.9-9.3-19.7c-1.5,4.5-7.9,10.3-12.7,4.6c-1.4,5.8,2.5,10.5,0,13.9
		C93.2,36.8,96.2,21.2,97,12.2z"/>
	<path fill-rule="evenodd" clip-rule="evenodd" d="M39.1,16.8c-4.8-0.9-5.9,1.8-10.4,1.2c2.6,7.8-0.3,21.1,3.5,27.8
		c-8-2.5-5.2-15.6-5.8-25.5c-0.5-2.6-5.7-0.5-8.1-1.2C20.9,15.3,36.8,9.9,39.1,16.8z"/>
	<path fill-rule="evenodd" clip-rule="evenodd" d="M331.9,16.8c-4.8-0.9-5.9,1.8-10.4,1.2c2.4,7.7-0.1,20.1,2.3,27.8
		c-6.1-3.6-6.6-17.5-4.6-25.5c-0.5-2.6-5.7-0.5-8.1-1.2C313.5,14.6,329.5,10.5,331.9,16.8z"/>
	<path fill-rule="evenodd" clip-rule="evenodd" d="M149,16.8c2.7,3.5-1.6,14,8.1,10.4c0,3.5-4.1,2.9-6.9,3.5
		c-1.3,9.1,4,15.6,10.4,10.4c-0.2,4.5-4.5,4.7-9.3,4.6C145.4,38.6,145,25.7,149,16.8z"/>
	<path fill-rule="evenodd" clip-rule="evenodd" d="M255.5,16.8c5.4,0.2,0.4,6.4,1.2,9.3c0.1,2.6,4.9,0.5,6.9,1.2
		c0,3.5-4.1,2.9-6.9,3.5c-0.8,7.1,4.5,16,9.3,10.4C258.7,55.3,247.5,27.4,255.5,16.8z"/>
	<path fill-rule="evenodd" clip-rule="evenodd" d="M79.6,29.5c-1.9,1.7-5.8-1-10.4,0c-4.2,0.8-2,8.8-1.2,11.6
		c8.2,1.3,9.7-4.2,15-5.8c-2.5,6-6.7,10.3-16.2,9.3c-6.6-3.9,0-15.2-4.6-19.7c5.3,2.9,4.5-5.9,9.3-6.9
		C76.3,19.7,79.1,23.5,79.6,29.5z M69.2,26.1c2-0.3,5.8,3.3,6.9,0c-2.7-0.8-0.9-6.1-5.8-4.6C70.6,23.6,69,24,69.2,26.1z"/>
	<path fill-rule="evenodd" clip-rule="evenodd" d="M247.4,29.5c-3.9-0.3-9.4,0.9-11.6-1.2c0.4,4.3-1,10.2,1.2,12.7
		c7.6,1.1,9.5-3.6,13.9-5.8c-1,7.4-7.1,9.9-16.2,9.3c-4.4-3.7-0.2-16-4.6-19.7c6.5,0.7,6.1-5.5,10.4-6.9
		C244.6,20.1,247.6,23.2,247.4,29.5z M237,26.1c3.5-0.8,3.4,2,6.9,1.2c-0.7-2.8-1-6-4.6-5.8C238.7,23.1,237.6,24.4,237,26.1z"/>
	<path fill-rule="evenodd" clip-rule="evenodd" d="M350.5,29.5c-1.9,1.7-5.8-1-10.4,0c-4.2,0.8-2,8.8-1.2,11.6
		c8.2,1.3,9.7-4.2,15-5.8c-2.5,6-6.7,10.3-16.2,9.3c-6.6-3.9,0-15.2-4.6-19.7c5.3,2.9,4.5-5.9,9.3-6.9
		C347.1,19.7,349.9,23.5,350.5,29.5z M340,26.1c2-0.3,5.8,3.3,6.9,0c-2.7-0.8-0.9-6.1-5.8-4.6C341.5,23.6,339.9,24,340,26.1z"/>
	<path fill-rule="evenodd" clip-rule="evenodd" d="M375.9,20.3c3.6-0.5,3.7,2.5,3.5,5.8c2.2-0.1,0.8-3.8,3.5-3.5
		c4.4-0.2,3.8,4.7,5.8,6.9c2-1.9,1.4-6.3,3.5-8.1c8,3.1,7.8,14.6,12.7,20.8c-6.2,2.4-8.6-8.1-10.4-13.9c-3.6,3.3-0.2,13.7-6.9,13.9
		c-1.5-5.1-2.3-10.8-3.5-16.2c-4,3,2.8,16.6-4.6,16.2C377.7,35.5,376.2,28.5,375.9,20.3z"/>
	<path fill-rule="evenodd" clip-rule="evenodd" fill="#FFFFFF" d="M70.3,21.4c4.9-1.4,3.1,3.9,5.8,4.6c-1.2,3.3-4.9-0.3-6.9,0
		C69,24,70.6,23.6,70.3,21.4z"/>
	<path fill-rule="evenodd" clip-rule="evenodd" d="M169.9,22.6c-3.7,2.8-9.9,8.2-5.8,15c9.4,1.3,9.3-6.9,15-9.3
		c-1,8.7-5.7,13.6-15,13.9C154.9,38.5,160.6,17.8,169.9,22.6z"/>
	<path fill-rule="evenodd" clip-rule="evenodd" fill="#FFFFFF" d="M239.3,21.4c3.6-0.2,4,3,4.6,5.8c-3.5,0.8-3.4-2-6.9-1.2
		C237.6,24.4,238.7,23.1,239.3,21.4z"/>
	<path fill-rule="evenodd" clip-rule="evenodd" d="M286.8,22.6c-5.1,2.7-9.9,7.6-6.9,15c8.4,0.7,11.2-4.2,13.9-9.3
		c4.7,5.9-5.4,15-11.6,13.9C270.4,40.1,275.1,19.8,286.8,22.6z"/>
	<path fill-rule="evenodd" clip-rule="evenodd" fill="#FFFFFF" d="M341.2,21.4c4.9-1.4,3.1,3.9,5.8,4.6c-1.2,3.3-4.9-0.3-6.9,0
		C339.9,24,341.5,23.6,341.2,21.4z"/>
	<path fill-rule="evenodd" clip-rule="evenodd" d="M140.9,23.7c-2.5,7.7,1.4,11.3,2.3,18.5c-3.9,0.1-4.3-3.4-5.8-5.8
		c-3.7,1.7-4.5,6.3-10.4,5.8C119.4,32.8,130.7,19,140.9,23.7z M128.2,38.8c5.7-1.3,8.3-5.6,8.1-12.7C129.8,26.5,127.4,31,128.2,38.8
		z"/>
	<path fill-rule="evenodd" clip-rule="evenodd" d="M216.2,22.6c1.6,6.5,1.6,14.6,4.6,19.7c-4.6,0.7-5.1-2.6-5.8-5.8
		c-3.2,2.2-5.2,5.6-10.4,5.8c0-1.1-1.4-0.9-2.3-1.2C198.7,30.8,205.9,22.8,216.2,22.6z M204.6,38.8c6.2-0.4,8.4-4.8,8.1-11.6
		C208.3,24.8,203.1,31.5,204.6,38.8z"/>
	<path fill-rule="evenodd" clip-rule="evenodd" d="M370.1,22.6c1.6,6.5,1.6,14.6,4.6,19.7c-4.6,0.7-5.1-2.6-5.8-5.8
		c-3.2,2.2-5.2,5.6-10.4,5.8c0-1.1-1.4-0.9-2.3-1.2C352.7,30.8,359.9,22.8,370.1,22.6z M358.6,38.8c6.2-0.4,8.4-4.8,8.1-11.6
		C362.3,24.8,357.1,31.5,358.6,38.8z"/>
	<path fill-rule="evenodd" clip-rule="evenodd" d="M269.4,24.9c4.2,2.2,2.6,13.1,2.3,16.2C267.2,39.8,267.5,28.9,269.4,24.9z"/>
	<path fill-rule="evenodd" clip-rule="evenodd" fill="#FFFFFF" d="M136.3,26.1c0.2,7.2-2.4,11.5-8.1,12.7
		C127.4,31,129.8,26.5,136.3,26.1z"/>
	<path fill-rule="evenodd" clip-rule="evenodd" fill="#FFFFFF" d="M212.7,27.2c0.3,6.8-1.9,11.2-8.1,11.6
		C203.1,31.5,208.3,24.8,212.7,27.2z"/>
	<path fill-rule="evenodd" clip-rule="evenodd" fill="#FFFFFF" d="M366.7,27.2c0.3,6.8-1.9,11.2-8.1,11.6
		C357.1,31.5,362.3,24.8,366.7,27.2z"/>
	<path fill-rule="evenodd" clip-rule="evenodd" d="M409.5,36.5c6.6-0.6,4.7,7-1.2,5.8C408,39.6,408.5,37.8,409.5,36.5z"/>
	<path fill-rule="evenodd" clip-rule="evenodd" d="M418.7,36.5c6.6-0.6,4.7,7-1.2,5.8C417.2,39.6,417.8,37.8,418.7,36.5z"/>
	<path fill-rule="evenodd" clip-rule="evenodd" d="M429.2,36.5c5.2-0.9,4.3,7.7-1.2,5.8C425.9,40.2,428.5,38.9,429.2,36.5z"/>
	<path fill-rule="evenodd" clip-rule="evenodd" fill="#FFFFFF" d="M7.8,2.9c147.4,0,294.8,0,442.2,0c0,17.4,0,34.7,0,52.1
		c-147.8,0-295.6,0-443.3,0c0-16.2,0-32.4,0-48.6C6.6,4.7,6.5,3.1,7.8,2.9z M49.5,43.4c2.4-4.9-0.4-15.1,6.9-15
		c1.9,6.4-3.7,14.1,1.2,16.2c2.3-5.9,6.4-18.1-2.3-19.7c-4.2,0-4.4,4.1-6.9,5.8c-1.9-6.5-1.1-15.9-5.8-19.7
		C44.3,22.4,42,37.8,49.5,43.4z M186.1,43.4c7.5-0.6,1.3-14.9,9.3-15c0,5,0,10,0,15c6.3-1.1,5.5-14.7,2.3-18.5
		c-7.1-1.7-7,3.8-10.4,5.8c-0.4-7.7-1.2-15-4.6-19.7C181.6,19.6,184.3,33.9,186.1,43.4z M227.8,43.4c-3.5-9.4,1.2-24.3-1.2-32.4
		C222.8,19.7,219.2,37.3,227.8,43.4z M100.4,41.1c2.5-3.4-1.4-8.1,0-13.9c4.8,5.7,11.2-0.1,12.7-4.6c1.9,7.7,2.2,17,9.3,19.7
		c-1.7-10.2-4.1-19.8-6.9-28.9c-6.4,0.9-4.2,10.4-10.4,11.6c-1.6-4.2-3.3-8.3-4.6-12.7c-1.2,0-2.3,0-3.5,0
		C96.2,21.2,93.2,36.8,100.4,41.1z M18.2,19.1c2.4,0.7,7.6-1.4,8.1,1.2c0.6,9.8-2.2,23,5.8,25.5c-3.8-6.7-0.9-20-3.5-27.8
		c4.5,0.6,5.7-2.1,10.4-1.2C36.8,9.9,20.9,15.3,18.2,19.1z M311.1,19.1c2.4,0.7,7.6-1.4,8.1,1.2c-2,8-1.5,21.9,4.6,25.5
		c-2.4-7.7,0.1-20.1-2.3-27.8c4.5,0.6,5.7-2.1,10.4-1.2C329.5,10.5,313.5,14.6,311.1,19.1z M151.4,45.7c4.7,0.1,9.1-0.2,9.3-4.6
		c-6.4,5.2-11.7-1.3-10.4-10.4c2.9-0.6,7,0,6.9-3.5c-9.7,3.6-5.4-6.9-8.1-10.4C145,25.7,145.4,38.6,151.4,45.7z M266,41.1
		c-4.8,5.6-10-3.3-9.3-10.4c2.9-0.6,7,0,6.9-3.5c-2-0.7-6.8,1.4-6.9-1.2c-0.7-2.9,4.2-9-1.2-9.3C247.5,27.4,258.7,55.3,266,41.1z
		 M71.5,18c-4.8,1-4,9.8-9.3,6.9c4.6,4.5-2,15.7,4.6,19.7c9.5,1,13.8-3.2,16.2-9.3c-5.3,1.6-6.8,7.1-15,5.8
		c-0.8-2.8-3.1-10.7,1.2-11.6c4.6-1,8.6,1.7,10.4,0C79.1,23.5,76.3,19.7,71.5,18z M240.5,18c-4.3,1.5-3.9,7.7-10.4,6.9
		c4.4,3.7,0.3,15.9,4.6,19.7c9.1,0.7,15.2-1.8,16.2-9.3c-4.4,2.1-6.3,6.9-13.9,5.8c-2.1-2.5-0.8-8.5-1.2-12.7
		c2.2,2.1,7.6,0.8,11.6,1.2C247.6,23.2,244.6,20.1,240.5,18z M342.4,18c-4.8,1-4,9.8-9.3,6.9c4.6,4.5-2,15.7,4.6,19.7
		c9.5,1,13.8-3.2,16.2-9.3c-5.3,1.6-6.8,7.1-15,5.8c-0.8-2.8-3.1-10.7,1.2-11.6c4.6-1,8.6,1.7,10.4,0
		C349.9,23.5,347.1,19.7,342.4,18z M379.4,42.3c7.4,0.4,0.7-13.2,4.6-16.2c1.2,5.4,2,11.1,3.5,16.2c6.7-0.2,3.3-10.5,6.9-13.9
		c1.8,5.8,4.2,16.3,10.4,13.9c-5-6.2-4.7-17.7-12.7-20.8c-2,1.8-1.5,6.2-3.5,8.1c-2-2.2-1.4-7.1-5.8-6.9c-2.7-0.4-1.3,3.3-3.5,3.5
		c0.2-3.3,0.1-6.3-3.5-5.8C376.2,28.5,377.7,35.5,379.4,42.3z M164.1,42.3c9.3-0.3,14.1-5.2,15-13.9c-5.7,2.4-5.6,10.6-15,9.3
		c-4.1-6.8,2.1-12.2,5.8-15C160.6,17.8,154.9,38.5,164.1,42.3z M282.2,42.3c6.2,1.1,16.3-8,11.6-13.9c-2.7,5-5.5,10-13.9,9.3
		c-2.9-7.5,1.8-12.3,6.9-15C275.1,19.8,270.4,40.1,282.2,42.3z M127.1,42.3c5.9,0.5,6.8-4,10.4-5.8c1.5,2.4,1.8,5.9,5.8,5.8
		c-0.9-7.3-4.8-10.8-2.3-18.5C130.7,19,119.4,32.8,127.1,42.3z M202.3,41.1c0.9,0.3,2.3,0,2.3,1.2c5.2-0.2,7.2-3.6,10.4-5.8
		c0.7,3.2,1.2,6.5,5.8,5.8c-3.1-5.1-3-13.2-4.6-19.7C205.9,22.8,198.7,30.8,202.3,41.1z M356.2,41.1c0.9,0.3,2.3,0,2.3,1.2
		c5.2-0.2,7.2-3.6,10.4-5.8c0.7,3.2,1.2,6.5,5.8,5.8c-3.1-5.1-3-13.2-4.6-19.7C359.9,22.8,352.7,30.8,356.2,41.1z M271.7,41.1
		c0.2-3.1,1.9-14-2.3-16.2C267.5,28.9,267.2,39.8,271.7,41.1z M408.3,42.3c5.8,1.2,7.8-6.4,1.2-5.8C408.5,37.8,408,39.6,408.3,42.3z
		 M417.6,42.3c5.8,1.2,7.8-6.4,1.2-5.8C417.8,37.8,417.2,39.6,417.6,42.3z M428,42.3c5.5,1.9,6.4-6.7,1.2-5.8
		C428.5,38.9,425.9,40.2,428,42.3z"/>
</g>
</svg>
