<?xml version="1.0" encoding="utf-8"?>
<!-- Generator: Adobe Illustrator 14.0.0, SVG Export Plug-In . SVG Version: 6.00 Build 43363)  -->
<!DOCTYPE svg PUBLIC "-//W3C//DTD SVG 1.1//EN" "http://www.w3.org/Graphics/SVG/1.1/DTD/svg11.dtd">
<svg version="1.1" xmlns="http://www.w3.org/2000/svg" xmlns:xlink="http://www.w3.org/1999/xlink" x="0px" y="0px" width="18px"
	 height="35px" viewBox="0 0 18 35" enable-background="new 0 0 18 35" xml:space="preserve">
<g id="Layer_1">
</g>
<g id="VAN" display="none">
	<g display="inline">
		<g>
			<path fill="#FFFFFF" d="M17.9,19.3c0,0.5-0.4,0.8-1,0.8h-10c-0.5,0-1-0.4-1-0.8v-8c0-0.5,0.4-0.8,1-0.8h10c0.5,0,1,0.4,1,0.8
				V19.3z"/>
			<path fill="#FFFFFF" d="M17.9,21.6c0,0.5-0.4,0.8-1,0.8h-1.1h-0.2l-0.4-1.1L14.6,21L13,21.3L12.6,22l0,0.4H12h-5
				c-0.5,0-1-0.4-1-0.8v-8c0-0.5,0.4-0.8,1-0.8h10c0.5,0,1,0.4,1,0.8V21.6z"/>
			<path fill="#FFFFFF" d="M7.9,20.4c0,0.3-0.3,0.5-0.6,0.5H1.4c-0.3,0-0.6-0.2-0.6-0.5v-4.5c0-0.3,0.3-0.5,0.6-0.5h5.9
				c0.3,0,0.6,0.2,0.6,0.5V20.4z"/>
			<path fill="#FFFFFF" d="M10.5,19.6c0,0.3-0.3,0.6-0.6,0.6H4.1c-0.3,0-0.6-0.3-0.6-0.6v-5.8c0-0.3,0.3-0.6,0.6-0.6H10
				c0.3,0,0.6,0.3,0.6,0.6V19.6z"/>
			<path fill="#FFFFFF" d="M6.5,16c0.1,0.2,0.1,0.4,0,0.5l-2.7,2.4c-0.1,0.1-0.4,0.1-0.5,0l-2.3-2.7c-0.1-0.2-0.1-0.4,0-0.5l2.7-2.4
				c0.1-0.1,0.4-0.1,0.5,0L6.5,16z"/>
			<circle fill="#222222" stroke="#FFFFFF" stroke-width="1.3296" cx="4.8" cy="22.5" r="2"/>
			<circle fill="#222222" stroke="#FFFFFF" stroke-width="1.3296" cx="14" cy="22.5" r="2"/>
			<path fill="#FFFFFF" d="M3.2,21.8c0,0.4-0.3,0.6-0.6,0.6H0.7c-0.4,0-0.6-0.3-0.6-0.6l0,0c0-0.4,0.3-0.6,0.6-0.6h1.8
				C2.9,21.2,3.2,21.4,3.2,21.8L3.2,21.8z"/>
			<rect x="0.8" y="19.1" fill="#FFFFFF" width="2.2" height="2.3"/>
		</g>
		<rect x="4.2" y="14.2" fill="#000222" width="1.8" height="2.8"/>
		<polygon fill="#000222" points="2,16 4.2,14.2 5,16.9 2,16.9 		"/>
	</g>
</g>
<g id="Layer_3">
	<path fill-rule="evenodd" clip-rule="evenodd" fill="none" stroke="#FFFFFF" stroke-width="0.9459" d="M17.5,21.1
		c0,1.6-1.3,2.8-2.8,2.8H3.4c-1.6,0-2.8-1.3-2.8-2.8V14c0-1.6,1.3-2.8,2.8-2.8h11.4c1.6,0,2.8,1.3,2.8,2.8V21.1z"/>
	<rect x="8.1" y="11.1" fill-rule="evenodd" clip-rule="evenodd" fill="#FFFFFF" width="1.9" height="12.8"/>
	<rect x="0.7" y="16.5" fill-rule="evenodd" clip-rule="evenodd" fill="#FFFFFF" width="16.7" height="2.1"/>
	<polygon fill-rule="evenodd" clip-rule="evenodd" fill="#FFFFFF" points="1.1,22.7 2.2,23.7 17,12.3 15.9,11.4 	"/>
	<polygon fill-rule="evenodd" clip-rule="evenodd" fill="#FFFFFF" points="17,22.7 15.9,23.7 1,12.3 2.2,11.4 	"/>
</g>
</svg>
