<?xml version="1.0" encoding="utf-8"?>
<!-- Generator: Adobe Illustrator 16.0.0, SVG Export Plug-In . SVG Version: 6.00 Build 0)  -->
<!DOCTYPE svg PUBLIC "-//W3C//DTD SVG 1.1//EN" "http://www.w3.org/Graphics/SVG/1.1/DTD/svg11.dtd">
<svg version="1.1" id="Layer_1" xmlns="http://www.w3.org/2000/svg" xmlns:xlink="http://www.w3.org/1999/xlink" x="0px" y="0px"
	 width="46.75px" height="30px" viewBox="0 0 46.75 30" enable-background="new 0 0 46.75 30" xml:space="preserve">
<path fill="#FFFFFF" d="M43.466,0H3.461c-1.81,0-3.283,1.473-3.283,3.284V26.63c0,1.812,1.473,3.285,3.284,3.285h40.005
	c1.811,0,3.284-1.476,3.284-3.285V3.284C46.75,1.473,45.277,0,43.466,0z"/>
<path fill="#0E4595" d="M17.221,20.763l2.102-12.331h3.361L20.58,20.763H17.221z M32.724,8.698c-0.666-0.25-1.709-0.518-3.013-0.518
	c-3.321,0-5.661,1.672-5.682,4.069c-0.018,1.772,1.672,2.761,2.945,3.351c1.31,0.604,1.749,0.989,1.743,1.528
	c-0.008,0.828-1.045,1.205-2.012,1.205c-1.345,0-2.06-0.187-3.164-0.647L23.11,17.49l-0.472,2.76
	c0.786,0.345,2.237,0.644,3.745,0.658c3.532,0,5.826-1.653,5.853-4.213c0.012-1.403-0.883-2.47-2.823-3.351
	c-1.174-0.57-1.893-0.951-1.886-1.529c0-0.513,0.609-1.06,1.925-1.06c1.1-0.017,1.896,0.222,2.516,0.472l0.301,0.142L32.724,8.698
	 M41.373,8.432h-2.598c-0.805,0-1.406,0.22-1.76,1.023l-4.992,11.3h3.529c0,0,0.577-1.52,0.708-1.853
	c0.386,0,3.814,0.004,4.305,0.004c0.101,0.433,0.408,1.849,0.408,1.849h3.119L41.373,8.432L41.373,8.432z M37.252,16.394
	c0.278-0.71,1.34-3.446,1.34-3.446c-0.021,0.032,0.275-0.714,0.444-1.177l0.229,1.063c0,0,0.643,2.944,0.778,3.561H37.252
	L37.252,16.394L37.252,16.394z M14.368,8.432l-3.291,8.409l-0.351-1.709c-0.612-1.97-2.521-4.104-4.655-5.173l3.009,10.784
	l3.556-0.004l5.292-12.308H14.368"/>
<path fill="#F2AE14" d="M8.007,8.432h-5.42L2.544,8.688c4.217,1.021,7.007,3.487,8.165,6.451L9.53,9.473
	C9.327,8.692,8.737,8.459,8.007,8.432"/>
</svg>
