<?xml version="1.0" encoding="utf-8"?>
<!-- Generator: Adobe Illustrator 14.0.0, SVG Export Plug-In . SVG Version: 6.00 Build 43363)  -->
<!DOCTYPE svg PUBLIC "-//W3C//DTD SVG 1.1//EN" "http://www.w3.org/Graphics/SVG/1.1/DTD/svg11.dtd">
<svg version="1.1" xmlns="http://www.w3.org/2000/svg" xmlns:xlink="http://www.w3.org/1999/xlink" x="0px" y="0px" width="240px"
	 height="200px" viewBox="0 0 240 200" enable-background="new 0 0 240 200" xml:space="preserve">
<g id="Layer_2">
	<g>
		<path fill="#FFFFFF" d="M111.3,139.2c-0.1-2.4-0.1-4.2-0.1-5.4c0-7.1,1-13.3,3-18.4c1.5-3.9,3.9-7.8,7.2-11.8
			c2.4-2.9,6.8-7.1,13-12.6c6.3-5.5,10.4-10,12.2-13.2c1.9-3.3,2.8-6.9,2.8-10.8c0-7.1-2.8-13.2-8.3-18.6c-5.5-5.3-12.3-8-20.3-8
			c-7.7,0-14.2,2.4-19.3,7.3c-5.2,4.8-8.6,12.4-10.2,22.7L72.8,68c1.7-13.8,6.7-24.3,15-31.6c8.3-7.3,19.3-11,32.9-11
			c14.4,0,26,3.9,34.6,11.8c8.6,7.9,12.9,17.4,12.9,28.5c0,6.4-1.5,12.4-4.5,17.8c-3,5.4-8.9,12.1-17.7,19.8
			c-5.9,5.2-9.8,9.1-11.6,11.6c-1.8,2.5-3.2,5.3-4,8.6c-0.9,3.2-1.4,8.5-1.5,15.7H111.3z M110.2,175.6V155h20.7v20.7H110.2z"/>
	</g>
</g>
</svg>
