<?xml version="1.0" encoding="utf-8"?>
<!-- Generator: Adobe Illustrator 14.0.0, SVG Export Plug-In . SVG Version: 6.00 Build 43363)  -->
<!DOCTYPE svg PUBLIC "-//W3C//DTD SVG 1.1//EN" "http://www.w3.org/Graphics/SVG/1.1/DTD/svg11.dtd">
<svg version="1.1" xmlns="http://www.w3.org/2000/svg" xmlns:xlink="http://www.w3.org/1999/xlink" x="0px" y="0px" width="100px"
	 height="100px" viewBox="0 0 100 100" enable-background="new 0 0 100 100" xml:space="preserve">
<g id="Layer_3">
</g>
<g id="Layer_4">
	<g>
		<path fill="#FFFFFF" d="M44.6,80.2c0-1.3-0.1-2.3-0.1-3c0-3.9,0.5-7.2,1.6-10c0.8-2.1,2.1-4.3,3.9-6.4c1.3-1.6,3.7-3.9,7.1-6.9
			c3.4-3,5.6-5.4,6.7-7.2c1-1.8,1.5-3.7,1.5-5.9c0-3.8-1.5-7.2-4.5-10.1s-6.7-4.4-11-4.4c-4.2,0-7.7,1.3-10.5,3.9
			c-2.8,2.6-4.7,6.7-5.5,12.3l-10.1-1.2c0.9-7.5,3.6-13.2,8.1-17.2c4.5-4,10.5-6,17.9-6c7.9,0,14.1,2.1,18.8,6.4
			c4.7,4.3,7,9.4,7,15.5c0,3.5-0.8,6.7-2.5,9.7s-4.9,6.6-9.6,10.8c-3.2,2.8-5.3,5-6.3,6.3c-1,1.4-1.7,2.9-2.2,4.7s-0.7,4.6-0.8,8.6
			H44.6z M44,100V88.8h11.2V100H44z"/>
	</g>
</g>
<g id="guides">
</g>
</svg>
